<svg id="Layer_1" data-name="Layer 1" xmlns="http://www.w3.org/2000/svg" xmlns:xlink="http://www.w3.org/1999/xlink" viewBox="0 0 402.03906 174.30469">
  <defs>
    <style>
      .cls-1 {
        fill: none;
      }

      .cls-2 {
        clip-path: url(#clip-path);
      }

      .cls-3 {
        clip-path: url(#clip-path-2);
      }

      .cls-4 {
        fill: #1a1c5b;
      }

      .cls-5 {
        clip-path: url(#clip-path-3);
      }

      .cls-6 {
        fill: #ff4754;
      }

      .cls-7 {
        clip-path: url(#clip-path-4);
      }

      .cls-8 {
        fill: #f1f0f6;
      }

      .cls-9 {
        clip-path: url(#clip-path-5);
      }

      .cls-10 {
        clip-path: url(#clip-path-6);
      }
    </style>
    <clipPath id="clip-path" transform="translate(-402.05859 -352.70313)">
      <rect class="cls-1" x="401" y="352" width="404" height="177"/>
    </clipPath>
    <clipPath id="clip-path-2" transform="translate(-402.05859 -352.70313)">
      <rect class="cls-1" x="402.12109" y="355" width="396.01953" height="169"/>
    </clipPath>
    <clipPath id="clip-path-3" transform="translate(-402.05859 -352.70313)">
      <rect class="cls-1" x="402.12109" y="355" width="396.01953" height="168"/>
    </clipPath>
    <clipPath id="clip-path-4" transform="translate(-402.05859 -352.70313)">
      <rect class="cls-1" x="546" y="517" width="11" height="8.52344"/>
    </clipPath>
    <clipPath id="clip-path-5" transform="translate(-402.05859 -352.70313)">
      <rect class="cls-1" x="456" y="352.59375" width="11" height="10.40625"/>
    </clipPath>
    <clipPath id="clip-path-6" transform="translate(-402.05859 -352.70313)">
      <rect class="cls-1" x="546" y="516" width="10" height="9.52344"/>
    </clipPath>
  </defs>
  <g class="cls-2">
    <g id="surface8">
      <g class="cls-3">
        <path class="cls-4" d="M462.47656,355.78906l89.30469,163.44922,33.53906-52.10156,11.0586,22.07422,29.89062-59.6875,29.78125,74.332,29.668-59.24219,14.89063,29.73047,44.82031-89.49219,44.375,118.10938,14.293-51.39844v8.32422l-13.9961,50.25L745.13281,390.42578l-44.52343,88.89844-14.89063-29.73047-29.89063,59.6875-29.78124-74.332-29.668,59.24219-11.28125-22.5586-33.46485,51.957L462.25,360.02734l-60.19141,86.77735v-3.90235Z" transform="translate(-402.05859 -352.70313)"/>
      </g>
      <g class="cls-5">
        <path class="cls-6" d="M461.73047,355.75l89.30469,163.48828,33.543-52.10156L595.63281,489.25l29.89063-59.65234,29.78125,74.332,29.67187-59.28125,14.89063,29.73437,44.78125-89.457,44.41015,118.25781,15.03907-54v6.94922L789.35547,509.168,744.42578,389.57031,699.86719,478.543,684.97656,448.8125,655.082,508.46094l-29.78125-74.32813-29.668,59.27735-11.28125-22.52344-33.46484,51.99609L461.50781,359.28125l-59.44922,85.77734v-3.26953Z" transform="translate(-402.05859 -352.70313)"/>
      </g>
      <path class="cls-4" d="M620.94531,432.98047a4.75,4.75,0,0,0,.09375.94141,4.58449,4.58449,0,0,0,.27735.90624,4.76129,4.76129,0,0,0,.44531.83594,4.71574,4.71574,0,0,0,1.33594,1.332,4.53265,4.53265,0,0,0,.83593.44922,4.939,4.939,0,0,0,.90625.27344,4.86425,4.86425,0,0,0,2.79688-.27344,4.53273,4.53273,0,0,0,.83594-.44922,4.71587,4.71587,0,0,0,1.33593-1.332,4.77866,4.77866,0,0,0,.44922-.83594,4.84878,4.84878,0,0,0,.27344-.90624,4.77356,4.77356,0,0,0,0-1.88282,4.84911,4.84911,0,0,0-.27344-.90625,4.77822,4.77822,0,0,0-.44922-.83593,4.71608,4.71608,0,0,0-1.33593-1.332,4.53393,4.53393,0,0,0-.83594-.44922,4.83895,4.83895,0,0,0-2.79688-.27343,4.93978,4.93978,0,0,0-.90625.27343,4.53384,4.53384,0,0,0-.83593.44922,4.71595,4.71595,0,0,0-1.33594,1.332,4.76085,4.76085,0,0,0-.44531.83593,4.58478,4.58478,0,0,0-.27735.90625A4.75,4.75,0,0,0,620.94531,432.98047Z" transform="translate(-402.05859 -352.70313)"/>
      <path class="cls-4" d="M680.50781,447.84766a4.77916,4.77916,0,0,0,.09375.9414,4.84986,4.84986,0,0,0,.27344.90625,4.92336,4.92336,0,0,0,.44922.83594,4.67371,4.67371,0,0,0,.60156.73047,4.52886,4.52886,0,0,0,.73438.60156,4.7612,4.7612,0,0,0,.83593.44531,4.80736,4.80736,0,0,0,2.79688.27735,4.95155,4.95155,0,0,0,.90625-.27735,4.76129,4.76129,0,0,0,.83594-.44531,4.70307,4.70307,0,0,0,.73437-.60156,4.75469,4.75469,0,0,0,1.04688-1.56641,4.58476,4.58476,0,0,0,.27734-.90625,4.79314,4.79314,0,0,0,0-1.88672,4.66583,4.66583,0,0,0-.27734-.90625,4.72655,4.72655,0,0,0-.44532-.832,4.79824,4.79824,0,0,0-1.33593-1.33594,4.762,4.762,0,0,0-.83594-.44531,4.65376,4.65376,0,0,0-.90625-.27343,4.81235,4.81235,0,0,0-1.89063,0,4.57393,4.57393,0,0,0-.90625.27343,4.8251,4.8251,0,0,0-1.57031,1.04688,4.96149,4.96149,0,0,0-1.05078,1.5664,4.93981,4.93981,0,0,0-.27344.90625A4.789,4.789,0,0,0,680.50781,447.84766Z" transform="translate(-402.05859 -352.70313)"/>
      <path class="cls-4" d="M744.91016,383.55078a4.832,4.832,0,1,1-4.83985,4.832A4.82711,4.82711,0,0,1,744.91016,383.55078Z" transform="translate(-402.05859 -352.70313)"/>
      <path class="cls-4" d="M584.42969,465.31641a5.03823,5.03823,0,0,0-.9336.17187,4.76734,4.76734,0,0,0-.88281.34766,5.04873,5.04873,0,0,0-.79687.51562,4.52728,4.52728,0,0,0-.67969.66016,4.60311,4.60311,0,0,0-.53906.77734,4.79,4.79,0,0,0-.57813,1.79688,4.842,4.842,0,0,0,.50391,2.75781,5.04873,5.04873,0,0,0,.51562.79687,4.84667,4.84667,0,0,0,1.44141,1.21876,4.92352,4.92352,0,0,0,.87109.375,4.65455,4.65455,0,0,0,.92578.19921,5.13833,5.13833,0,0,0,.94922.01563,4.735,4.735,0,0,0,.9336-.17188,4.87675,4.87675,0,0,0,.88281-.34765,4.78643,4.78643,0,0,0,.79687-.51563,4.69186,4.69186,0,0,0,.67969-.65625,4.63361,4.63361,0,0,0,.53906-.78125,4.74476,4.74476,0,0,0,.37891-.86718,5.43453,5.43453,0,0,0,.19922-.92579,5.13821,5.13821,0,0,0,.01562-.94921,4.99754,4.99754,0,0,0-.17187-.92969,4.78182,4.78182,0,0,0-.35156-.88281,5.0256,5.0256,0,0,0-.51172-.79688,5.16719,5.16719,0,0,0-.66016-.67969,4.85165,4.85165,0,0,0-.78125-.53515,4.78044,4.78044,0,0,0-.87109-.37891,5.08412,5.08412,0,0,0-.92578-.19922A5.1392,5.1392,0,0,0,584.42969,465.31641Z" transform="translate(-402.05859 -352.70313)"/>
      <path class="cls-4" d="M461.99219,353.82031a4.83009,4.83009,0,1,1-4.83985,4.832A4.82711,4.82711,0,0,1,461.99219,353.82031Z" transform="translate(-402.05859 -352.70313)"/>
      <path class="cls-4" d="M784.74219,507.30859a4.78577,4.78577,0,0,0,.08984.94532,4.92981,4.92981,0,0,0,.72266,1.74218,4.85418,4.85418,0,0,0,1.33593,1.332,4.90384,4.90384,0,0,0,.83594.44532,4.61084,4.61084,0,0,0,.91016.27344,4.79364,4.79364,0,0,0,1.88672,0,4.69071,4.69071,0,0,0,.91015-.27344,4.84891,4.84891,0,0,0,2.89453-3.51953,4.9972,4.9972,0,0,0,0-1.88672,4.92969,4.92969,0,0,0-.72265-1.74219A4.9295,4.9295,0,0,0,793,503.89453a4.67371,4.67371,0,0,0-.73047-.60156,4.90342,4.90342,0,0,0-.83594-.44531,4.99006,4.99006,0,0,0-.91015-.27735,4.99775,4.99775,0,0,0-1.88672,0,4.85314,4.85314,0,0,0-2.48047,1.32422,5.15713,5.15713,0,0,0-.60156.73047,4.93,4.93,0,0,0-.72266,1.74219A4.77466,4.77466,0,0,0,784.74219,507.30859Z" transform="translate(-402.05859 -352.70313)"/>
      <path class="cls-4" d="M695.39844,477.57812a4.74993,4.74993,0,0,0,.09375.94141,4.84983,4.84983,0,0,0,.27343.90625,4.78,4.78,0,0,0,.44922.83594,4.71642,4.71642,0,0,0,1.33594,1.332,4.53273,4.53273,0,0,0,.83594.44922,4.84986,4.84986,0,0,0,.90625.27344,4.79314,4.79314,0,0,0,1.88672,0,4.888,4.888,0,0,0,.91015-.27344,4.66159,4.66159,0,0,0,.83594-.44922,4.71608,4.71608,0,0,0,1.33594-1.332,4.76129,4.76129,0,0,0,.44531-.83594,4.58478,4.58478,0,0,0,.27735-.90625,4.774,4.774,0,0,0,0-1.88281,4.58478,4.58478,0,0,0-.27735-.90625,4.76129,4.76129,0,0,0-.44531-.83594,4.81242,4.81242,0,0,0-3.082-2.05469,4.79314,4.79314,0,0,0-1.88672,0,4.84986,4.84986,0,0,0-.90625.27344,4.78,4.78,0,0,0-.83594.44922,4.71642,4.71642,0,0,0-1.33594,1.332,4.78,4.78,0,0,0-.44922.83594,4.84983,4.84983,0,0,0-.27343.90625A4.7499,4.7499,0,0,0,695.39844,477.57812Z" transform="translate(-402.05859 -352.70313)"/>
      <path class="cls-4" d="M650.72656,507.30859a4.789,4.789,0,0,0,.09375.94532,4.93981,4.93981,0,0,0,.27344.90625,5.216,5.216,0,0,0,.44922.83593,4.67325,4.67325,0,0,0,.60156.73047,4.82552,4.82552,0,0,0,1.57031,1.04688,4.65448,4.65448,0,0,0,.90625.27344,4.81335,4.81335,0,0,0,1.89063,0,4.65448,4.65448,0,0,0,.90625-.27344,4.76133,4.76133,0,0,0,.83594-.44532,4.93446,4.93446,0,0,0,.73437-.60156,4.67325,4.67325,0,0,0,.60156-.73047,5.216,5.216,0,0,0,.44922-.83593,4.939,4.939,0,0,0,.27344-.90625,4.79314,4.79314,0,0,0,0-1.88672,4.84911,4.84911,0,0,0-.27344-.90625,5.21564,5.21564,0,0,0-.44922-.83594,4.85418,4.85418,0,0,0-1.33593-1.332,4.76129,4.76129,0,0,0-.83594-.44531,4.95155,4.95155,0,0,0-.90625-.27735,5.01832,5.01832,0,0,0-1.89063,0,4.95155,4.95155,0,0,0-.90625.27735,4.7612,4.7612,0,0,0-.83593.44531,4.52886,4.52886,0,0,0-.73438.60156,4.67371,4.67371,0,0,0-.60156.73047,5.21564,5.21564,0,0,0-.44922.83594,4.84986,4.84986,0,0,0-.27344.90625A4.77916,4.77916,0,0,0,650.72656,507.30859Z" transform="translate(-402.05859 -352.70313)"/>
      <path class="cls-4" d="M591.16406,492.44531a4.77918,4.77918,0,0,0,.09375.94141,4.81234,4.81234,0,0,0,1.32422,2.47266,4.70268,4.70268,0,0,0,.73438.60156,4.9037,4.9037,0,0,0,.83593.44531,4.621,4.621,0,0,0,.91016.27734,4.79314,4.79314,0,0,0,1.88672,0,4.58476,4.58476,0,0,0,.90625-.27734,4.93882,4.93882,0,0,0,.83984-.44531,4.8688,4.8688,0,0,0,1.78125-2.168,4.84911,4.84911,0,0,0,.27344-.90625,4.79314,4.79314,0,0,0,0-1.88672,4.939,4.939,0,0,0-.27344-.90625,4.5,4.5,0,0,0-.44922-.832,4.70314,4.70314,0,0,0-.60156-.73438,4.71764,4.71764,0,0,0-1.57031-1.04687,4.84986,4.84986,0,0,0-.90625-.27344,4.79314,4.79314,0,0,0-1.88672,0,4.80888,4.80888,0,0,0-3.082,2.05469,4.7265,4.7265,0,0,0-.44531.832,4.95155,4.95155,0,0,0-.27735.90625A4.81838,4.81838,0,0,0,591.16406,492.44531Z" transform="translate(-402.05859 -352.70313)"/>
      <g class="cls-7">
        <path class="cls-4" d="M546.49609,522.17578a4.74674,4.74674,0,0,0,.08985.94141,4.861,4.861,0,0,0,.27734.90625,4.762,4.762,0,0,0,.44531.83594,5.1907,5.1907,0,0,0,.60157.73437,4.90968,4.90968,0,0,0,.73437.59766,4.66252,4.66252,0,0,0,.83594.44921,4.88752,4.88752,0,0,0,.91015.27344,4.79314,4.79314,0,0,0,1.88672,0,4.9779,4.9779,0,0,0,.91016-.27344,4.66252,4.66252,0,0,0,.83594-.44921,4.87834,4.87834,0,0,0,.73047-.59766,4.70307,4.70307,0,0,0,.60156-.73437,4.74513,4.74513,0,0,0,.72265-1.74219,4.773,4.773,0,0,0,0-1.88281,4.74495,4.74495,0,0,0-.72265-1.74219,4.5,4.5,0,0,0-.60156-.73047,4.67371,4.67371,0,0,0-.73047-.60156,4.92336,4.92336,0,0,0-.83594-.44922,4.9779,4.9779,0,0,0-.91016-.27344,4.79314,4.79314,0,0,0-1.88672,0,4.72682,4.72682,0,0,0-1.74609.72266,4.70307,4.70307,0,0,0-.73437.60156,4.94609,4.94609,0,0,0-.60157.73047,4.76222,4.76222,0,0,0-.44531.83593,4.861,4.861,0,0,0-.27734.90626A4.74664,4.74664,0,0,0,546.49609,522.17578Z" transform="translate(-402.05859 -352.70313)"/>
      </g>
      <path class="cls-8" d="M620.57422,431.86719a4.77916,4.77916,0,0,0,.09375.9414,4.84888,4.84888,0,0,0,.27344.90625,4.92293,4.92293,0,0,0,.44921.83594,4.67378,4.67378,0,0,0,.60157.73047,4.52879,4.52879,0,0,0,.73437.60156,4.76129,4.76129,0,0,0,.83594.44531,4.86023,4.86023,0,0,0,.90625.27735,4.99775,4.99775,0,0,0,1.88672,0,4.90916,4.90916,0,0,0,1.74609-.72266,4.70268,4.70268,0,0,0,.73438-.60156,4.75446,4.75446,0,0,0,1.04687-1.56641,4.58458,4.58458,0,0,0,.27735-.90625,4.79309,4.79309,0,0,0,0-1.88671,4.66574,4.66574,0,0,0-.27735-.90626,4.85539,4.85539,0,0,0-3.52734-2.89062,4.99775,4.99775,0,0,0-1.88672,0,4.861,4.861,0,0,0-.90625.27734,4.82524,4.82524,0,0,0-1.57031,1.04688,4.67378,4.67378,0,0,0-.60157.73047,4.7454,4.7454,0,0,0-.72265,1.74219A4.789,4.789,0,0,0,620.57422,431.86719Z" transform="translate(-402.05859 -352.70313)"/>
      <path class="cls-8" d="M680.13672,446.73047a5.13153,5.13153,0,0,0,.08984.94531,4.95131,4.95131,0,0,0,.27735.90625,4.7265,4.7265,0,0,0,.44531.832,4.9597,4.9597,0,0,0,.60547.73438,4.75456,4.75456,0,0,0,1.5664,1.04687,4.9779,4.9779,0,0,0,.91016.27344,4.79314,4.79314,0,0,0,1.88672,0,4.80883,4.80883,0,0,0,1.74609-.71875A4.79774,4.79774,0,0,0,689,449.41406a4.7265,4.7265,0,0,0,.44531-.832,4.95131,4.95131,0,0,0,.27735-.90625,4.79544,4.79544,0,0,0-.27735-2.793A4.90333,4.90333,0,0,0,689,444.04688a5.15725,5.15725,0,0,0-.60156-.73047,4.825,4.825,0,0,0-1.57032-1.04688,4.62065,4.62065,0,0,0-.91015-.27734,4.79314,4.79314,0,0,0-1.88672,0,4.70234,4.70234,0,0,0-.91016.27734,4.90333,4.90333,0,0,0-.83593.44531,4.67276,4.67276,0,0,0-.73047.60157,4.68632,4.68632,0,0,0-1.05078,1.5664,4.86023,4.86023,0,0,0-.27735.90625A5.0898,5.0898,0,0,0,680.13672,446.73047Z" transform="translate(-402.05859 -352.70313)"/>
      <path class="cls-8" d="M744.53516,382.4375a4.83009,4.83009,0,1,1-4.83985,4.832A4.82711,4.82711,0,0,1,744.53516,382.4375Z" transform="translate(-402.05859 -352.70313)"/>
      <path class="cls-8" d="M584.05469,464.20312a4.78951,4.78951,0,0,0-.9336.17188,4.88032,4.88032,0,0,0-1.67578.85938,4.96527,4.96527,0,0,0-.68359.66015,5.14025,5.14025,0,0,0-.53906.78125,5.01109,5.01109,0,0,0-.375.86719,4.775,4.775,0,0,0-.19922.92578,4.53747,4.53747,0,0,0-.01563.94922,4.69755,4.69755,0,0,0,.17188.92969,4.87675,4.87675,0,0,0,.34765.88281,4.6001,4.6001,0,0,0,.51563.793,4.52715,4.52715,0,0,0,.66015.67968,4.48146,4.48146,0,0,0,.78126.53907,4.744,4.744,0,0,0,.86718.3789,5.39808,5.39808,0,0,0,.92969.19922,4.99248,4.99248,0,0,0,1.88281-.15625,4.74441,4.74441,0,0,0,.87891-.35156,4.69514,4.69514,0,0,0,.79687-.51172,4.966,4.966,0,0,0,.6836-.66016,5.10532,5.10532,0,0,0,.53906-.77734,4.87864,4.87864,0,0,0,.57422-1.79687,4.4997,4.4997,0,0,0,.01562-.94532,4.72891,4.72891,0,0,0-.168-.93359,5.03338,5.03338,0,0,0-.35157-.87891,4.78637,4.78637,0,0,0-.51562-.79687,4.71974,4.71974,0,0,0-.66016-.67969,4.84137,4.84137,0,0,0-.77734-.53906,5.18283,5.18283,0,0,0-.8711-.375,4.75218,4.75218,0,0,0-.92968-.19922A4.81911,4.81911,0,0,0,584.05469,464.20312Z" transform="translate(-402.05859 -352.70313)"/>
      <g class="cls-9">
        <path class="cls-8" d="M461.61719,352.70312a4.832,4.832,0,1,1-4.83594,4.832A4.82464,4.82464,0,0,1,461.61719,352.70312Z" transform="translate(-402.05859 -352.70313)"/>
      </g>
      <path class="cls-8" d="M784.36719,506.19531a4.75,4.75,0,0,0,.09375.94141,4.58476,4.58476,0,0,0,.27734.90625,4.762,4.762,0,0,0,.44531.83594,4.71642,4.71642,0,0,0,1.33594,1.332,4.53393,4.53393,0,0,0,.83594.44922,4.93954,4.93954,0,0,0,.90625.27343,4.86439,4.86439,0,0,0,2.79687-.27343,4.53393,4.53393,0,0,0,.83594-.44922,4.71608,4.71608,0,0,0,1.33594-1.332,4.78,4.78,0,0,0,.44922-.83594,4.84983,4.84983,0,0,0,.27343-.90625,4.773,4.773,0,0,0,0-1.88281,4.8496,4.8496,0,0,0-.27343-.90625,4.78,4.78,0,0,0-.44922-.83594,4.71574,4.71574,0,0,0-1.33594-1.332,4.53273,4.53273,0,0,0-.83594-.44922,4.83883,4.83883,0,0,0-2.79687-.27344,4.93958,4.93958,0,0,0-.90625.27344,4.53273,4.53273,0,0,0-.83594.44922,4.71608,4.71608,0,0,0-1.33594,1.332,4.762,4.762,0,0,0-.44531.83594,4.58455,4.58455,0,0,0-.27734.90625A4.7499,4.7499,0,0,0,784.36719,506.19531Z" transform="translate(-402.05859 -352.70313)"/>
      <path class="cls-8" d="M695.02734,476.46484a5.089,5.089,0,0,0,.08985.94141,4.92969,4.92969,0,0,0,.72265,1.74219,5.15719,5.15719,0,0,0,.60157.73047,4.825,4.825,0,0,0,1.57031,1.04687,4.99012,4.99012,0,0,0,.91016.27734,4.99715,4.99715,0,0,0,1.88671,0,4.99012,4.99012,0,0,0,.91016-.27734,4.825,4.825,0,0,0,1.57031-1.04687,5.15644,5.15644,0,0,0,.60156-.73047,4.92946,4.92946,0,0,0,.72266-1.74219,4.99775,4.99775,0,0,0,0-1.88672,4.92946,4.92946,0,0,0-.72266-1.74219,4.85454,4.85454,0,0,0-1.33593-1.332A4.90379,4.90379,0,0,0,701.71875,472a4.69081,4.69081,0,0,0-.91016-.27344,4.79309,4.79309,0,0,0-1.88671,0,4.69081,4.69081,0,0,0-.91016.27344,4.90379,4.90379,0,0,0-.83594.44531,4.85476,4.85476,0,0,0-1.33594,1.332,4.92969,4.92969,0,0,0-.72265,1.74219A5.09876,5.09876,0,0,0,695.02734,476.46484Z" transform="translate(-402.05859 -352.70313)"/>
      <path class="cls-8" d="M650.35547,506.19531a4.75,4.75,0,0,0,.09375.94141,4.74538,4.74538,0,0,0,.72266,1.74219,4.70307,4.70307,0,0,0,.60156.73437,4.87722,4.87722,0,0,0,.73047.59766,4.56672,4.56672,0,0,0,.83984.44922,4.84983,4.84983,0,0,0,.90625.27343,4.79314,4.79314,0,0,0,1.88672,0,4.88834,4.88834,0,0,0,.91016-.27343,4.66311,4.66311,0,0,0,.83593-.44922,4.71608,4.71608,0,0,0,1.33594-1.332,4.76129,4.76129,0,0,0,.44531-.83594,4.86023,4.86023,0,0,0,.27735-.90625,4.77351,4.77351,0,0,0,0-1.88281,4.86,4.86,0,0,0-.27735-.90625,4.76129,4.76129,0,0,0-.44531-.83594,4.71574,4.71574,0,0,0-1.33594-1.332,4.66185,4.66185,0,0,0-.83593-.44922,4.88837,4.88837,0,0,0-.91016-.27344,4.79314,4.79314,0,0,0-1.88672,0,4.84986,4.84986,0,0,0-.90625.27344,4.56551,4.56551,0,0,0-.83984.44922,4.87777,4.87777,0,0,0-.73047.59765,4.70314,4.70314,0,0,0-.60156.73438,4.74538,4.74538,0,0,0-.72266,1.74219A4.7499,4.7499,0,0,0,650.35547,506.19531Z" transform="translate(-402.05859 -352.70313)"/>
      <path class="cls-8" d="M590.793,491.32812a4.789,4.789,0,0,0,.09375.94532,4.939,4.939,0,0,0,.27344.90625,4.83863,4.83863,0,0,0,2.62109,2.61328,4.57463,4.57463,0,0,0,.90625.27344,4.8128,4.8128,0,0,0,1.89062,0,4.65437,4.65437,0,0,0,.90626-.27344,4.76155,4.76155,0,0,0,.83593-.44531,4.7981,4.7981,0,0,0,1.33594-1.33594,4.7265,4.7265,0,0,0,.44531-.832,4.66586,4.66586,0,0,0,.27735-.90625,4.79314,4.79314,0,0,0,0-1.88672,4.58478,4.58478,0,0,0-.27735-.90625,4.75446,4.75446,0,0,0-1.04687-1.56641,4.70314,4.70314,0,0,0-.73438-.60156,4.76155,4.76155,0,0,0-.83593-.44531,4.95141,4.95141,0,0,0-.90626-.27735,4.80207,4.80207,0,0,0-2.79687.27735,4.76129,4.76129,0,0,0-.83594.44531,4.52879,4.52879,0,0,0-.73437.60156,4.67371,4.67371,0,0,0-.60156.73047,4.92265,4.92265,0,0,0-.44922.83594,4.84911,4.84911,0,0,0-.27344.90625A4.77916,4.77916,0,0,0,590.793,491.32812Z" transform="translate(-402.05859 -352.70313)"/>
      <g class="cls-10">
        <path class="cls-8" d="M546.12109,521.0625a4.77918,4.77918,0,0,0,.09375.94141,4.58478,4.58478,0,0,0,.27735.90625,4.75456,4.75456,0,0,0,1.04687,1.5664,4.70268,4.70268,0,0,0,.73438.60156,4.76133,4.76133,0,0,0,.83594.44532,4.952,4.952,0,0,0,.90624.27734,4.80224,4.80224,0,0,0,2.79688-.27734,4.76133,4.76133,0,0,0,.83594-.44532,4.52879,4.52879,0,0,0,.73437-.60156,4.67332,4.67332,0,0,0,.60157-.73047,4.92322,4.92322,0,0,0,.44921-.83593,4.84911,4.84911,0,0,0,.27344-.90625,4.79314,4.79314,0,0,0,0-1.88672,4.9388,4.9388,0,0,0-.27344-.90625,4.83863,4.83863,0,0,0-2.62109-2.61328,4.5733,4.5733,0,0,0-.90625-.27344,4.81285,4.81285,0,0,0-1.89063,0,4.6528,4.6528,0,0,0-.90624.27344,4.76129,4.76129,0,0,0-.83594.44531,4.79774,4.79774,0,0,0-1.33594,1.33594,4.72615,4.72615,0,0,0-.44531.832,4.66565,4.66565,0,0,0-.27735.90625A4.789,4.789,0,0,0,546.12109,521.0625Z" transform="translate(-402.05859 -352.70313)"/>
      </g>
    </g>
  </g>
</svg>
