<svg id="Layer_1" data-name="Layer 1" xmlns="http://www.w3.org/2000/svg" xmlns:xlink="http://www.w3.org/1999/xlink" viewBox="0 0 244.41797 143.88281">
  <defs>
    <style>
      .cls-1 {
        filter: url(#alpha);
      }

      .cls-2 {
        opacity: 0.898;
      }

      .cls-3 {
        fill: none;
      }

      .cls-4 {
        mask: url(#mask);
      }

      .cls-5 {
        clip-path: url(#clip-path);
      }

      .cls-6 {
        fill: #1a1c5b;
      }

      .cls-11, .cls-6, .cls-7, .cls-8, .cls-9 {
        fill-rule: evenodd;
      }

      .cls-10, .cls-7 {
        fill: #07bf9b;
      }

      .cls-8 {
        fill: #262c69;
      }

      .cls-9 {
        fill: #3c3c8d;
      }

      .cls-11 {
        fill: #474b9b;
      }
    </style>
    <filter id="alpha" x="0" y="0" width="100%" height="100%" name="alpha">
      <feColorMatrix values="0 0 0 0 1 0 0 0 0 1 0 0 0 0 1 0 0 0 1 0" in="SourceGraphic"/>
    </filter>
    <mask id="mask" x="-38.62891" y="-107.39453" width="960" height="540" maskUnits="userSpaceOnUse">
      <g transform="translate(-38.62891 -107.39453)">
        <g id="mask0">
          <g class="cls-1">
            <rect class="cls-2" width="960" height="540"/>
          </g>
        </g>
      </g>
    </mask>
    <clipPath id="clip-path" transform="translate(-38.62891 -107.39453)">
      <rect class="cls-3" x="38.12109" y="108" width="243.87891" height="144"/>
    </clipPath>
  </defs>
  <g class="cls-4">
    <g id="surface1">
      <g class="cls-5">
        <path class="cls-6" d="M41.043,108.48047l186.97656.54687,53.82031,54.29688-.24218,85.92969a2.0197,2.0197,0,0,1-2.01563,2.02343L40.64844,250.582a2.023,2.023,0,0,1-2.01953-2.02344l.39453-138.082A1.98031,1.98031,0,0,1,41.043,108.48047Z" transform="translate(-38.62891 -107.39453)"/>
      </g>
      <path class="cls-7" d="M42.24609,107.39453l186.94922.543,53.85157,54.29687-.24219,85.96093a2.02052,2.02052,0,0,1-2.01953,2.02344l-238.92969-.69531A2.02052,2.02052,0,0,1,39.83594,247.5l.39062-138.082A2.023,2.023,0,0,1,42.24609,107.39453Z" transform="translate(-38.62891 -107.39453)"/>
      <path class="cls-8" d="M77.082,114.40625l158.95313.42187,40.23046,40.57813-.17968,57.89063a3.37321,3.37321,0,0,1-3.01563,3.35546,27.069,27.069,0,0,0-23.89453,23.83985,3.36536,3.36536,0,0,1-3.375,2.98828l-169.10937-.45313a3.36875,3.36875,0,0,1-3.34766-3.01953,27.014,27.014,0,0,0-23.77344-23.96093,3.37,3.37,0,0,1-2.98437-3.38282l.21094-68.07422a3.373,3.373,0,0,1,3.01171-3.35546A27.073,27.073,0,0,0,73.707,117.39453,3.3624,3.3624,0,0,1,77.082,114.40625Z" transform="translate(-38.62891 -107.39453)"/>
      <path class="cls-9" d="M137.76953,219.42969l-6.75,3.35547-.02734,6.76953-13.5-.03125,3.375-5.04688-3.375-5.07422Zm64.03516,5.25782,3.375,5.07811-13.5-.03124.03125-6.76954-6.75-3.41406,20.25.0625Z" transform="translate(-38.62891 -107.39453)"/>
      <path class="cls-10" d="M183.57031,147.61719q-1.86328-1.08985-3.82031-1.98828-1.96289-.90235-4-1.60547-2.03321-.70312-4.13281-1.20313-2.09766-.5039-4.23438-.793a43.90128,43.90128,0,0,0-8.59375-.32031q-2.15039.12891-4.28125.47266-2.127.34571-4.21093.89453c-1.39063.36329-2.75782.80078-4.10547,1.30078a42.61447,42.61447,0,0,0-3.957,1.69922q-1.93946.94922-3.77344,2.07812-1.834,1.13673-3.55078,2.44141-1.71681,1.3125-3.29688,2.78125-1.582,1.47071-3.00781,3.08594-1.4297,1.623-2.69141,3.37109-1.26562,1.752-2.35156,3.61719-1.084,1.86914-1.98438,3.832-.89647,1.96289-1.59765,4.00781-.70312,2.04492-1.20313,4.14453-.498,2.10352-.78906,4.2461c-.19531,1.42578-.3164,2.85937-.37109,4.30078s-.03516,2.87891.05078,4.31641q.13476,2.15625.47265,4.293.3457,2.13282.89063,4.22267.55078,2.09178,1.30078,4.11718.75,2.02148,1.69141,3.96875.94922,1.93946,2.07812,3.78125a43.09637,43.09637,0,0,0,2.4336,3.5625q1.30077,1.71679,2.76953,3.30469,1.46484,1.582,3.082,3.01563,1.61133,1.42967,3.35937,2.69921,1.7461,1.26563,3.60938,2.35547a42.66619,42.66619,0,0,0,3.82031,1.98828q1.957.90234,3.9961,1.60547t4.13671,1.20312q2.09766.50391,4.23047.793a43.926,43.926,0,0,0,8.59766.32031q2.15039-.1289,4.27734-.47265,2.127-.34571,4.21485-.89453,2.08007-.55078,4.10547-1.30078,2.01561-.75,3.957-1.69922,1.93359-.94923,3.77343-2.082a42.9934,42.9934,0,0,0,3.55078-2.4414q1.71681-1.30665,3.29688-2.77734,1.57617-1.47071,3.00781-3.08985,1.42383-1.61718,2.69141-3.36719,1.25976-1.75194,2.34766-3.61718,1.08984-1.86915,1.98437-3.832.89649-1.96289,1.60156-4.00781.70313-2.04492,1.19922-4.14843c.332-1.39844.59766-2.81641.78906-4.24219a44.12912,44.12912,0,0,0-.15234-12.91016q-.33984-2.13281-.89063-4.22265-.54492-2.09181-1.29687-4.11719-.75-2.02735-1.69531-3.96875-.94336-1.93946-2.07422-3.78125-1.13086-1.83985-2.4336-3.5625a43.095,43.095,0,0,0-2.77343-3.30468q-1.46485-1.58205-3.07813-3.01563-1.61718-1.42969-3.35937-2.69922C186.01172,149.12891,184.8125,148.34375,183.57031,147.61719Z" transform="translate(-38.62891 -107.39453)"/>
      <path class="cls-11" d="M191.72656,233.07812l.02735-10.15234-60.78125-.16016-.02735,10.15235Z" transform="translate(-38.62891 -107.39453)"/>
      <path class="cls-9" d="M258.63672,199.46094a.66855.66855,0,0,1,.66406.66406v2.02344a.66856.66856,0,0,1-.66406.66407l-39.14453-.1211a.66777.66777,0,0,1-.66016-.66407v-2.02343a.66776.66776,0,0,1,.66016-.66407Zm-6.78125,6.73437a.67193.67193,0,0,1,.66406.668v2.02344a.66855.66855,0,0,1-.66406.66406l-25.64063-.05859a.67193.67193,0,0,1-.66406-.668v-2.02344a.66856.66856,0,0,1,.66406-.66406Zm-148.49609-7.1875a.66776.66776,0,0,1,.66015.66407v2.02343a.66777.66777,0,0,1-.66015.66407l-39.14454-.1211a.66855.66855,0,0,1-.66406-.66406v-2.02344a.66856.66856,0,0,1,.66406-.66406Zm-6.75,6.73438a.67117.67117,0,0,1,.66015.668v2.02343a.66776.66776,0,0,1-.66015.66407l-25.64454-.0586a.67193.67193,0,0,1-.66406-.668v-2.02343a.66856.66856,0,0,1,.66406-.66407Zm156-26.61719a13.50008,13.50008,0,1,1-13.46876-13.56641A13.5503,13.5503,0,0,1,252.60938,179.125Zm-155.2461-.45312a13.50008,13.50008,0,1,1-13.47266-13.56641A13.55615,13.55615,0,0,1,97.36328,178.67188Zm1.50391-54.14454,125.5664.36328A1.35291,1.35291,0,0,1,225.793,126.25v4.04688a1.35291,1.35291,0,0,1-1.35938,1.35937L98.86719,131.293a1.3496,1.3496,0,0,1-1.35547-1.35938v-4.04687A1.3496,1.3496,0,0,1,98.86719,124.52734Z" transform="translate(-38.62891 -107.39453)"/>
      <path class="cls-8" d="M263.15625,226.68359l-.05859,16.707h-3.85938l.03125-12.35546-3.79687,1.11718v-2.92968l7.32422-2.50782Zm1.17578,9.87892v-3.05079a7.9291,7.9291,0,0,1,1.53906-5.22656,5.92415,5.92415,0,0,1,8.58594.05859,8.00426,8.00426,0,0,1,1.50781,5.22656V236.625a7.92912,7.92912,0,0,1-1.53906,5.22656,5.19682,5.19682,0,0,1-4.27734,1.8125,5.26667,5.26667,0,0,1-4.3086-1.875A8.10363,8.10363,0,0,1,264.332,236.56251Zm5.84766,4.10937a1.50574,1.50574,0,0,0,1.44531-.84376,5.89481,5.89481,0,0,0,.48047-2.66015v-4.14063a6.09637,6.09637,0,0,0-.44922-2.6875,1.55314,1.55314,0,0,0-1.47656-.90625,1.53455,1.53455,0,0,0-1.44922.81641,5.335,5.335,0,0,0-.48047,2.50781v4.25781a6.307,6.307,0,0,0,.45312,2.75A1.52037,1.52037,0,0,0,270.17969,240.67188ZM54.35938,114.40625h.36328l-.0625,16.707H50.80469l.03125-12.35937-3.79688,1.08984v-2.92969Zm1.53906,9.87891v-3.05078a7.95036,7.95036,0,0,1,1.53515-5.22657,5.92009,5.92009,0,0,1,8.58985.0586,8.00374,8.00374,0,0,1,1.5039,5.22656v3.05078a7.969,7.969,0,0,1-1.53515,5.23047,5.21335,5.21335,0,0,1-4.27735,1.8125,5.27456,5.27456,0,0,1-4.3125-1.875A8.18613,8.18613,0,0,1,55.89844,124.28516Zm5.8164,4.07812a1.50573,1.50573,0,0,0,1.44532-.84375,5.89486,5.89486,0,0,0,.48046-2.66015v-4.14063a6.09639,6.09639,0,0,0-.44921-2.6875,1.55687,1.55687,0,0,0-1.47657-.90625,1.53072,1.53072,0,0,0-1.44922.81641,5.335,5.335,0,0,0-.48046,2.50781V124.707a6.24936,6.24936,0,0,0,.45312,2.75A1.50279,1.50279,0,0,0,61.71484,128.36328Zm-7.32422,97.71484L54.332,242.78906H50.47266l.03125-12.35937L46.707,231.54688v-2.92969l7.32031-2.50781Zm1.207,9.87891v-3.05078a7.95033,7.95033,0,0,1,1.53515-5.22656,5.22453,5.22453,0,0,1,4.3086-1.8125,5.20046,5.20046,0,0,1,4.28125,1.875,7.99665,7.99665,0,0,1,1.5039,5.22656v3.05078a7.95033,7.95033,0,0,1-1.53515,5.22656,5.20472,5.20472,0,0,1-4.28125,1.8125,5.2692,5.2692,0,0,1-4.3086-1.87108A7.8415,7.8415,0,0,1,55.59766,235.957Zm5.8125,4.10938a1.50767,1.50767,0,0,0,1.44922-.84375,5.88319,5.88319,0,0,0,.48046-2.66015v-4.14063a6.03154,6.03154,0,0,0-.45312-2.6875,1.67115,1.67115,0,0,0-2.92188-.08985,5.34623,5.34623,0,0,0-.48046,2.50781v4.25782a6.30493,6.30493,0,0,0,.44921,2.75A1.52752,1.52752,0,0,0,61.41016,240.06641Z" transform="translate(-38.62891 -107.39453)"/>
      <path class="cls-8" d="M162.42188,148.39453a3.10416,3.10416,0,0,1,3.10156,3.11328v4.47266a.96969.96969,0,0,0,.8125.96484,17.30566,17.30566,0,0,1,10.39844,5.77344,18.11836,18.11836,0,0,1,4.03906,11.42187.84265.84265,0,0,1-.84375.84376l-11.543-.03126a.80144.80144,0,0,1-.8125-.78515,10.06743,10.06743,0,0,0-1.53906-5.46875,5.6712,5.6712,0,0,0-8.4375-.60156,6.62932,6.62932,0,0,0-1.44532,4.46875,6.32943,6.32943,0,0,0,1.62891,4.59375,15.6872,15.6872,0,0,0,5.24219,3.26562c2.41015,1.02734,4.69922,2.11328,6.83984,3.23047a27.37045,27.37045,0,0,1,5.543,3.77734,15.06581,15.06581,0,0,1,3.64844,4.957,15.50882,15.50882,0,0,1,1.29687,6.76563,14.7139,14.7139,0,0,1-4.28125,10.91016,17.605,17.605,0,0,1-10.57812,4.77343,1.103,1.103,0,0,0-.96094,1.08594v3.77734a3.10548,3.10548,0,1,1-6.21094,0v-3.83593a1.08,1.08,0,0,0-.93359-1.08985c-5.21094-.72265-9.21875-2.65625-12.082-5.76953-2.80469-3.05078-4.28125-7.01172-4.49219-11.875a1.14494,1.14494,0,0,1,1.14844-1.207l10.875.02734a1.1578,1.1578,0,0,1,1.14844,1.08985,9.55191,9.55191,0,0,0,1.92578,5.71094,7.04459,7.04459,0,0,0,5.60546,2.35547,5.52871,5.52871,0,0,0,4.1875-1.57032,5.98041,5.98041,0,0,0,1.53907-4.35155,7.1728,7.1728,0,0,0-1.50781-4.86329,14.48237,14.48237,0,0,0-5.332-3.35547c-2.53125-1.05859-4.91406-2.11328-7.05078-3.20313a24.58548,24.58548,0,0,1-5.57812-3.74609,14.89918,14.89918,0,0,1-3.58594-4.89453,16.72913,16.72913,0,0,1-1.23438-6.73828,14.3827,14.3827,0,0,1,4.49219-10.87891,18.7953,18.7953,0,0,1,10.9961-4.86328,1.001,1.001,0,0,0,.875-.96484V151.418A3.087,3.087,0,0,1,162.42188,148.39453Z" transform="translate(-38.62891 -107.39453)"/>
      <path class="cls-6" d="M282.98438,162.23438l-57.22266,9.48828a2.02052,2.02052,0,0,1-2.01953-2.02344l5.39453-61.76171Z" transform="translate(-38.62891 -107.39453)"/>
      <path class="cls-7" d="M282.98438,162.23438l-51.98047-.1211a2.023,2.023,0,0,1-2.01953-2.02344l.18359-52.15233Z" transform="translate(-38.62891 -107.39453)"/>
      <path class="cls-8" d="M276.56641,155.49609l-10.60547-.03125a3.36875,3.36875,0,0,1-3.34766-3.01953,27.03782,27.03782,0,0,0-23.77344-23.92969,3.34612,3.34612,0,0,1-2.98437-3.35546l.03125-10.72657Z" transform="translate(-38.62891 -107.39453)"/>
      <path class="cls-8" d="M252.67188,138.668l-.0625,12.32812,3.79687-1.12109v2.93359l-7.32031,2.50782h-.36328l.0625-16.71094Zm-10.91016-.30469a5.26663,5.26663,0,0,1,4.30859,1.875,7.9253,7.9253,0,0,1,1.50781,5.22656v3.05078a7.969,7.969,0,0,1-1.53515,5.23047,5.32534,5.32534,0,0,1-4.3125,1.8125,5.209,5.209,0,0,1-4.27735-1.875,8.0043,8.0043,0,0,1-1.50781-5.22656v-3.05078a7.929,7.929,0,0,1,1.53907-5.22656A5.24371,5.24371,0,0,1,241.76172,138.36328Zm-1.47656,3.83984a5.82564,5.82564,0,0,0-.48047,2.62891v4.13672a6.1973,6.1973,0,0,0,.44922,2.69141,1.55686,1.55686,0,0,0,1.47656.90625,1.53739,1.53739,0,0,0,1.44922-.81641,5.77088,5.77088,0,0,0,.48047-2.50781v-4.26172a6.3425,6.3425,0,0,0-.45313-2.75,1.66977,1.66977,0,0,0-2.92187-.02735Z" transform="translate(-38.62891 -107.39453)"/>
    </g>
  </g>
</svg>
