<svg id="Layer_5" data-name="Layer 5" xmlns="http://www.w3.org/2000/svg" xmlns:xlink="http://www.w3.org/1999/xlink" viewBox="0 0 143.04698 143.07994">
  <defs>
    <style>
      .cls-1 {
        fill: none;
      }

      .cls-2, .cls-3 {
        fill: #1a1c5b;
      }

      .cls-3, .cls-7, .cls-8 {
        fill-rule: evenodd;
      }

      .cls-4 {
        fill: #f1f0f6;
      }

      .cls-5, .cls-7 {
        fill: #c7c7e4;
      }

      .cls-6 {
        fill: #7575a9;
      }

      .cls-8 {
        fill: #474988;
      }

      .cls-9 {
        clip-path: url(#clip-path);
      }
    </style>
    <clipPath id="clip-path" transform="translate(-308.53097 -309.63248)">
      <rect class="cls-1" x="344.1192" y="328.5588" width="108.07929" height="107.18212"/>
    </clipPath>
  </defs>
  <path class="cls-2" d="M431.33177,399.65966q0,2.613-.26167,5.20359a50.03132,50.03132,0,0,1-.7626,5.15127,50.80041,50.80041,0,0,1-1.26352,5.04659c-.50092,1.66724-1.09155,3.2971-1.74948,4.90454-.6654,1.60743-1.41305,3.17-2.228,4.70267q-1.2336,2.299-2.67656,4.47091c-.96446,1.44295-2.00368,2.83356-3.10272,4.17932a53.07744,53.07744,0,0,1-20.70971,15.35659c-1.6.6654-3.2373,1.24857-4.89707,1.757q-2.50086.75138-5.05406,1.26352c-1.70463.33644-3.41673.59064-5.15128.7626q-2.59056.25793-5.1961.2542-2.60181,0-5.2036-.2542-2.59059-.25794-5.14379-.7626-2.55693-.51587-5.05406-1.26352c-1.65977-.50839-3.29711-1.09156-4.89707-1.757a52.9713,52.9713,0,0,1-9.17358-4.90454q-2.16442-1.44669-4.1868-3.10272-2.00743-1.64855-3.85784-3.49149c-1.22613-1.23361-2.39245-2.51207-3.49149-3.85784q-1.65976-2.01864-3.10272-4.17932-1.44669-2.17564-2.67656-4.47091c-.81493-1.53267-1.56258-3.09524-2.228-4.70267a51.67778,51.67778,0,0,1-1.74948-4.90454,50.80041,50.80041,0,0,1-1.26352-5.04659q-.51588-2.55694-.77007-5.15127c-.16448-1.72705-.2542-3.46158-.2542-5.20359,0-1.73453.08972-3.46907.2542-5.19612q.25794-2.59059.77007-5.15126a50.799,50.799,0,0,1,1.26352-5.04659,51.6758,51.6758,0,0,1,1.74948-4.90454c.6654-1.60744,1.413-3.17749,2.228-4.71015.82241-1.5252,1.7121-3.02048,2.67656-4.46343s1.99621-2.83357,3.10272-4.17933a51.74981,51.74981,0,0,1,3.49149-3.85784q1.85041-1.8392,3.85784-3.499,2.01864-1.64855,4.1868-3.09524a49.97251,49.97251,0,0,1,4.46343-2.67656,52.07305,52.07305,0,0,1,4.71015-2.228c1.6-.6654,3.2373-1.24856,4.89707-1.757,1.66724-.50092,3.34944-.92708,5.05406-1.26352s3.41673-.59064,5.14379-.76259q2.6018-.25794,5.2036-.2542,2.60179,0,5.1961.2542c1.73455.17195,3.44665.42615,5.15128.76259s3.38682.7626,5.05406,1.26352c1.65977.5084,3.29711,1.09156,4.89707,1.757a52.07305,52.07305,0,0,1,4.71015,2.228,49.97251,49.97251,0,0,1,4.46343,2.67656c1.44295.96446,2.841,1.99621,4.17932,3.09524q2.01864,1.65976,3.85784,3.499a50.253,50.253,0,0,1,3.499,3.85784c1.099,1.34576,2.13826,2.73637,3.10272,4.17933s1.85416,2.93823,2.67656,4.46343c.81493,1.53266,1.56258,3.10271,2.228,4.71015.65793,1.60743,1.24856,3.23729,1.74948,4.90454a50.799,50.799,0,0,1,1.26352,5.04659,50.03073,50.03073,0,0,1,.7626,5.15126Q431.328,397.05412,431.33177,399.65966Z" transform="translate(-308.53097 -309.63248)"/>
  <path class="cls-3" d="M417.40318,337.07445a53.404,53.404,0,0,0-72.93259-19.58825l-9.24834,5.31574a53.38784,53.38784,0,1,0,53.40415,92.461l9.24087-5.31574A53.32543,53.32543,0,0,0,417.40318,337.07445Z" transform="translate(-308.53097 -309.63248)"/>
  <path class="cls-4" d="M392.49919,314.077c1.59995.69531,3.17,1.47286,4.6952,2.32517s3.00552,1.77939,4.441,2.77375a52.43691,52.43691,0,0,1,4.15689,3.19992c1.33081,1.12894,2.6018,2.33264,3.813,3.58868,1.21866,1.25605,2.36256,2.5719,3.45411,3.94756,1.08409,1.36819,2.09341,2.78871,3.04291,4.26157.942,1.47285,1.81677,2.98309,2.60928,4.54567a53.44538,53.44538,0,0,1,3.82793,9.74179,51.58125,51.58125,0,0,1,1.18128,5.1064q.471,2.57937.68035,5.19612.20187,2.613.157,5.2335-.04487,2.62424-.3514,5.2335c-.20186,1.73453-.49344,3.45411-.85979,5.16622q-.56073,2.55693-1.36818,5.06154c-.53831,1.65977-1.15885,3.29711-1.85416,4.89706a51.67132,51.67132,0,0,1-2.32517,4.6952c-.85231,1.52519-1.77939,3.013-2.77375,4.44848-1.00185,1.43547-2.0635,2.81861-3.19992,4.14942s-2.33264,2.6018-3.58868,3.82045q-1.88406,1.81678-3.94758,3.44664c-1.36817,1.08408-2.79616,2.10088-4.26155,3.04291-1.47285.942-2.99057,1.81677-4.54567,2.60927q-2.33264,1.2-4.77744,2.16069-2.44479.95325-4.96435,1.67472-2.52329.70653-5.1064,1.18128-2.57937.4598-5.19612.67288c-1.742.13457-3.49149.19438-5.241.157a51.11235,51.11235,0,0,1-5.226-.35139c-1.73453-.20186-3.46159-.486-5.16622-.85979-1.7121-.37382-3.3943-.82988-5.06154-1.36819a52.258,52.258,0,0,1-4.89706-1.85415,51.67393,51.67393,0,0,1-4.6952-2.32517q-2.299-1.27848-4.44848-2.77376c-1.43547-1.00184-2.81861-2.06349-4.14942-3.19991a50.91549,50.91549,0,0,1-3.82045-3.58869q-1.81678-1.88406-3.44664-3.94755a51.83926,51.83926,0,0,1-3.04291-4.26157c-.9495-1.47286-1.81677-2.9831-2.61675-4.54567q-1.18875-2.33265-2.15321-4.77744c-.6355-1.62239-1.19623-3.28215-1.67472-4.96435s-.86727-3.37935-1.18128-5.1064c-.30653-1.71958-.53082-3.44664-.67288-5.19612q-.21308-2.613-.16448-5.2335c.03739-1.74949.14953-3.4915.3514-5.23351.20934-1.73453.49344-3.45411.86726-5.16621q.56073-2.55695,1.36071-5.06154a52.316,52.316,0,0,1,1.86163-4.89707,51.67652,51.67652,0,0,1,2.32517-4.6952c.85232-1.52519,1.77192-3.013,2.77376-4.44847a53.93121,53.93121,0,0,1,6.7886-7.96988q1.88406-1.81677,3.94008-3.44663,2.06349-1.62614,4.269-3.04291c1.47286-.942,2.9831-1.81677,4.53819-2.60928q2.34387-1.2,4.77744-2.15321c1.62987-.643,3.28216-1.2037,4.97183-1.6822,1.6822-.471,3.37935-.86726,5.09891-1.17379,1.72707-.314,3.45413-.53831,5.19614-.68036,1.74948-.13458,3.49149-.19439,5.241-.157q2.62422.04487,5.226.3514c1.742.20186,3.46159.486,5.17369.85979,1.70463.37382,3.3943.82988,5.05407,1.36818A52.4006,52.4006,0,0,1,392.49919,314.077Z" transform="translate(-308.53097 -309.63248)"/>
  <path class="cls-5" d="M411.34727,326.03924a50.86416,50.86416,0,0,1,3.5214,3.88027c1.10651,1.35323,2.14574,2.75132,3.11767,4.20923.97194,1.45043,1.87659,2.95319,2.699,4.49333a51.731,51.731,0,0,1,2.23546,4.74006q1.00932,2.42237,1.77191,4.927c.5084,1.67472.92708,3.37187,1.271,5.084q.51586,2.57937.77007,5.18865c.172,1.73453.2542,3.484.2542,5.2335s-.08224,3.49149-.2542,5.2335-.42616,3.46906-.77007,5.18117-.7626,3.40925-1.271,5.084-1.099,3.31954-1.76444,4.93444q-1.00931,2.42237-2.24293,4.73259c-.8224,1.54762-1.71957,3.0429-2.69151,4.50081-.97194,1.45042-2.01864,2.856-3.12515,4.20923a52.325,52.325,0,0,1-3.5214,3.88027q-1.85041,1.85041-3.88027,3.52139c-1.35323,1.10652-2.75132,2.14574-4.20923,3.11768-1.45042.97193-2.95319,1.8691-4.49333,2.699-1.54015.82241-3.12515,1.57005-4.74006,2.23545a52.337,52.337,0,0,1-4.93444,1.76444c-1.66725.5084-3.3644.93455-5.0765,1.27847-1.71958.33644-3.44664.59811-5.18864.77007-1.742.16448-3.484.2542-5.23351.2542s-3.49149-.08972-5.2335-.2542c-1.742-.172-3.46906-.43363-5.18117-.77007-1.71957-.34392-3.40925-.77007-5.084-1.27847a50.31482,50.31482,0,0,1-4.93444-1.76444q-2.42237-.9981-4.74006-2.23545-2.31023-1.24483-4.49334-2.699-2.17563-1.45791-4.20923-3.11768c-1.35323-1.114-2.64665-2.28031-3.88027-3.52139q-1.85041-1.85043-3.52139-3.88027-1.65978-2.02986-3.11768-4.20923-1.4579-2.18687-2.699-4.49333-1.23361-2.32144-2.23545-4.74007a50.31389,50.31389,0,0,1-1.76444-4.93444c-.50841-1.67472-.93455-3.36439-1.27847-5.084-.33644-1.71211-.59811-3.43916-.77007-5.18117s-.2542-3.484-.2542-5.2335.08224-3.4915.2542-5.2335.43363-3.46907.77007-5.18117c.34392-1.71958.77006-3.40925,1.271-5.084a52.38435,52.38435,0,0,1,1.77191-4.93445c.6654-1.61491,1.413-3.19991,2.23545-4.74006.82989-1.54014,1.72706-3.0429,2.699-4.49333.97194-1.45791,2.01116-2.856,3.11768-4.20923a54.09915,54.09915,0,0,1,7.40166-7.40167c1.35324-1.10651,2.75881-2.15321,4.20923-3.12515q2.18687-1.4579,4.49334-2.69151c1.54014-.82241,3.12515-1.57005,4.74006-2.24293q2.42237-.99811,4.93444-1.76444c1.67472-.5084,3.3644-.92708,5.084-1.271q2.56816-.51588,5.18117-.77008,2.613-.25793,5.2335-.2542,2.6242,0,5.23351.2542,2.613.25794,5.18116.77008c1.71958.34391,3.40925.76259,5.084,1.271s3.31953,1.099,4.93444,1.76444q2.42237,1.00932,4.74006,2.24293,2.31021,1.2336,4.49333,2.69151,2.17564,1.45791,4.20923,3.12515A50.86416,50.86416,0,0,1,411.34727,326.03924Z" transform="translate(-308.53097 -309.63248)"/>
  <path class="cls-6" d="M408.32679,329.05972q1.70463,1.70461,3.2373,3.57373,1.52518,1.86164,2.87095,3.87279c.88969,1.33828,1.71958,2.714,2.4747,4.13448a47.18774,47.18774,0,0,1,2.06349,4.35127c.61307,1.48781,1.15885,3.00553,1.62239,4.54567a47.443,47.443,0,0,1,1.1738,4.67277q.471,2.3663.70276,4.77a47.0742,47.0742,0,0,1,.23925,4.81482q0,2.41115-.23175,4.81482c-.16448,1.6-.39625,3.185-.71026,4.77a47.97668,47.97668,0,0,1-1.1738,4.67277c-.46354,1.54015-1.00932,3.05039-1.62239,4.5382a47.321,47.321,0,0,1-2.06349,4.35876c-.75512,1.42052-1.585,2.79618-2.4747,4.13446-.89717,1.33828-1.85416,2.62423-2.87095,3.87279q-1.53641,1.86163-3.2373,3.57374c-1.13641,1.13641-2.33264,2.213-3.57373,3.23729q-1.86163,1.5252-3.87279,2.87095c-1.33828.8897-2.714,1.71958-4.13447,2.4747-1.42052.7626-2.87095,1.44295-4.35876,2.0635a48.14144,48.14144,0,0,1-4.53819,1.62238c-1.54015.46354-3.09524.85979-4.67277,1.1738s-3.17.54578-4.77.70279-3.20739.23924-4.81483.23924-3.21486-.08224-4.81482-.23924-3.19243-.38878-4.77-.70279a47.9738,47.9738,0,0,1-4.67277-1.1738c-1.54015-.46354-3.05039-1.00932-4.5382-1.62238a47.31831,47.31831,0,0,1-4.35875-2.0635c-1.42053-.75512-2.79619-1.585-4.13447-2.4747q-2.00742-1.34576-3.87279-2.87095c-1.24109-1.02427-2.43732-2.10088-3.57374-3.23729s-2.213-2.33265-3.23729-3.57374q-1.5252-1.86162-2.87095-3.87279c-.8897-1.33828-1.71958-2.71394-2.4747-4.13446a47.32118,47.32118,0,0,1-2.06351-4.35876c-.613-1.48781-1.15883-2.99805-1.62237-4.5382a47.9738,47.9738,0,0,1-1.1738-4.67277q-.471-2.36628-.70278-4.77a48.56788,48.56788,0,0,1,0-9.62964q.2355-2.39994.70278-4.77a49.58121,49.58121,0,0,1,2.79617-9.211,47.31977,47.31977,0,0,1,2.06351-4.35875c.75512-1.42053,1.585-2.7962,2.4747-4.13448q1.34575-2.00742,2.87095-3.87279c1.02427-1.24109,2.10088-2.43732,3.23729-3.57373s2.33265-2.213,3.57374-3.2373q1.86163-1.52519,3.87279-2.871c1.33828-.88969,2.71394-1.71958,4.13447-2.4747a47.32083,47.32083,0,0,1,4.35875-2.06349,49.57966,49.57966,0,0,1,9.211-2.79619q2.3663-.471,4.77-.71026,2.39994-.2355,4.81482-.23177,2.41116,0,4.81483.23177,2.39993.23552,4.77.71026a47.9774,47.9774,0,0,1,4.67277,1.1738,46.82645,46.82645,0,0,1,4.53819,1.62239q2.23171.9196,4.35876,2.056c1.42052.76259,2.79619,1.585,4.13447,2.48217,1.33828.8897,2.6317,1.85416,3.87279,2.871C405.99415,326.84669,407.19038,327.9233,408.32679,329.05972Z" transform="translate(-308.53097 -309.63248)"/>
  <path class="cls-7" d="M360.07391,323.26548a43.55089,43.55089,0,0,0-12.13425,6.355l5.084,1.271V336.439a32.26951,32.26951,0,0,1,9.48012-4.96435l-4.33633-.643Zm37.79336,5.37556-.34392,7.79791-4.44848-.63549a31.99736,31.99736,0,0,1,7.79792,7.454l1.33081-5.37555,5.4877.23177A40.27792,40.27792,0,0,0,397.86727,328.641Z" transform="translate(-308.53097 -309.63248)"/>
  <path class="cls-8" d="M411.39213,369.90346c1.84668-.29158,6.24282-2.72142,4.97183-3.76064-.75512-.6355-3.70085,1.50276-4.85968,2.83356a39.124,39.124,0,0,0,.23177-5.83909c1.73453-.6355,5.72694-3.75317,4.2765-4.56062-.86725-.46354-3.34944,2.13826-4.2765,3.641a36.62718,36.62718,0,0,0-.6355-5.14378,2.70241,2.70241,0,0,1-.11216-.6355c1.61492-.92708,4.97184-4.68025,3.40927-5.26341-.92708-.34391-2.94572,2.66161-3.58121,4.27652a36.38392,36.38392,0,0,0-1.79435-5.54751c1.44295-1.21118,4.04475-5.4877,2.42984-5.77928-.98689-.172-2.42984,3.12514-2.83357,4.85968-.57568-1.271-1.15884-2.54947-1.84667-3.76065a.42129.42129,0,0,0-.58317-.172.41149.41149,0,0,0-.172.57569c.63549,1.15885,1.271,2.37,1.79434,3.58121-1.50276-.97941-4.74006-2.31022-5.31574-1.49529-.98689,1.32333,3.86531,2.59433,5.71947,2.48218a41.37942,41.37942,0,0,1,1.73453,5.37555c-1.33081-1.21866-4.27652-3.12515-4.97183-2.42984-1.21118,1.15885,3.34944,3.2373,5.2036,3.40926a2.7028,2.7028,0,0,1,.11214.63549,35.44669,35.44669,0,0,1,.6355,4.97183c-1.099-1.44295-3.70083-3.813-4.50829-3.2373-1.38314.92708,2.72142,3.75317,4.56809,4.27652a36.12923,36.12923,0,0,1-.23176,5.60733c-.80745-1.62239-2.94571-4.39615-3.87279-3.99242-1.50276.6355,2.07845,4.16437,3.75317,4.97183v.11962a42.96036,42.96036,0,0,1-1.15137,5.4279c-.52335-1.73454-2.19807-4.85221-3.12515-4.62044-1.61491.40372,1.33081,4.50828,2.83357,5.60732a34.4188,34.4188,0,0,1-2.13826,5.25593c-.172-1.79434-1.271-5.2036-2.25041-5.14378-1.67472.11962.51588,4.68024,1.84668,6.01105a37.21347,37.21347,0,0,1-3.00552,4.79987c.11962-1.79435-.34392-5.37556-1.33081-5.49518-1.67472-.172-.2841,4.74006.75512,6.24282a38.29631,38.29631,0,0,1-3.813,4.21671c.40373-1.73454.57569-5.37556-.35139-5.65966-1.61491-.46354-1.09156,4.62043-.34392,6.29515-.86726.75512-1.73453,1.50277-2.66161,2.19807-.63549.46354-1.271.92708-1.90649,1.33081.75512-1.62239,1.50277-5.2036.6355-5.66714-1.50276-.74764-1.90649,4.39615-1.38314,6.13068a43.07884,43.07884,0,0,1-5.084,2.71394c.97941-1.44295,2.42236-4.912,1.61491-5.4877-1.33081-.98689-2.6018,3.98494-2.48218,5.83162a37.71818,37.71818,0,0,1-5.49519,1.79434c1.21867-1.21118,3.29712-4.39614,2.60181-5.14378-1.15137-1.21119-3.28963,3.46906-3.40925,5.31574v.05981a38.41121,38.41121,0,0,1-5.71947.74764c1.44295-.97941,3.98494-3.75316,3.46906-4.62043-.92707-1.39062-3.813,2.88591-4.27651,4.62043v.05982a38.64354,38.64354,0,0,1-5.77929-.23177c1.56258-.74765,4.56063-3.00553,4.1569-3.92513-.6355-1.56257-4.27652,2.13826-5.02416,3.813v0c-.29158-1.79434-2.71395-6.36244-3.76065-5.03164-.63549.75512,1.62239,3.813,2.89338,4.97183a30.90267,30.90267,0,0,1-5.60732-1.39061v-.05234c.05981-1.79435-1.56258-6.70636-2.83357-5.60733-.74764.63551.92708,4.04475,2.02611,5.37556a43.57623,43.57623,0,0,1-5.31574-2.31022v-.05981c.34392-1.79434-.40373-6.87832-1.79434-6.07086-.86727.52335.23177,4.16437,1.03922,5.66713a33.67553,33.67553,0,0,1-4.79239-3.23729v-.05981c.69531-1.67473.80745-6.87832-.75512-6.24282-.9196.35139-.51587,4.10456.05981,5.72694a44.33137,44.33137,0,0,1-4.15689-3.99241c.9196-1.5551,1.95882-6.58674.34391-6.29516-.97941.172-1.21118,3.87279-.97941,5.60733a23.29388,23.29388,0,0,1-1.45043-1.85416,29.79328,29.79328,0,0,1-1.90649-2.83357c1.21866-1.38314,3.12515-6.183,1.44295-6.12319-.97941,0-1.84668,3.58121-1.90649,5.37556a43.23762,43.23762,0,0,1-2.542-5.14379c1.44295-1.15885,4.10456-5.54752,2.48965-5.77929-.98689-.172-2.48965,3.2373-2.83357,4.97183a38.04961,38.04961,0,0,1-1.62239-5.4877c1.62239-.86727,5.03163-4.74006,3.46907-5.26341-.9196-.34391-3.00553,2.714-3.641,4.39614a37.61611,37.61611,0,0,1-.57569-5.66713c1.73453-.57569,5.71947-3.75317,4.27652-4.5681-.86727-.45606-3.34944,2.13826-4.33633,3.641a37.698,37.698,0,0,1,.40373-5.59986v-.05981c1.85415-.29158,6.30263-2.71393,5.03164-3.76064-.75512-.6355-3.641,1.50276-4.85221,2.83357a35.97427,35.97427,0,0,1,1.32333-5.48771c1.85415,0,6.64655-1.56256,5.60731-2.83356-.63548-.74765-3.87278.80745-5.25592,1.90649a36.36091,36.36091,0,0,1,2.01864-4.62044,5.85771,5.85771,0,0,0,.29158-.57568c1.84668.34391,6.8185-.41121,6.01105-1.85416-.52335-.86726-3.9326.172-5.49518.98689a36.571,36.571,0,0,1,3.185-4.68024c1.72706.63549,6.7587.74764,6.183-.75512-.35138-.92708-3.87278-.52335-5.60731,0a33.77446,33.77446,0,0,1,2.71394-2.94572.3844.3844,0,0,0,0-.57568.37391.37391,0,0,0-.57568,0c-.98689.97941-1.90649,1.95882-2.83357,3.05786.11962-1.78687-.34392-5.31575-1.3308-5.42789-1.61491-.17944-.28411,4.62043.75511,6.183a37.91214,37.91214,0,0,0-3.23729,4.79239c-.23177-1.78687-1.271-5.14379-2.25788-5.084-1.61491.11962.46354,4.62043,1.79434,5.95124a2.97907,2.97907,0,0,0-.29158.57568,34.452,34.452,0,0,0-2.01864,4.74006c-.52335-1.73453-2.13826-4.85221-3.11767-4.62044-1.62238.40373,1.271,4.44848,2.77376,5.54752a45.15976,45.15976,0,0,0-1.39062,5.60733c-.80745-1.6224-2.94571-4.39615-3.87279-3.99243-1.50276.6355,2.02611,4.16438,3.70083,4.97183v.11962a36.9527,36.9527,0,0,0-.40372,5.65966c-1.099-1.44295-3.70085-3.75317-4.50829-3.23729-1.39062.92708,2.65413,3.70083,4.50829,4.27652a38.02022,38.02022,0,0,0,.57568,5.71947c-1.3308-1.21119-4.27653-3.05786-4.97183-2.42237-1.15137,1.099,3.2373,3.17749,5.14379,3.40926.11962.6953.29158,1.38314.46354,2.01863a30.87971,30.87971,0,0,0,1.099,3.46907c-1.50276-.97942-4.74-2.25041-5.31574-1.50277-.98689,1.33081,3.75317,2.542,5.65966,2.48966a33.56035,33.56035,0,0,0,2.542,5.14378c-1.67472-.69531-5.02417-1.39062-5.4877-.58316-.74765,1.44295,4.10456,1.85415,6.011,1.44295.63549.98689,1.271,1.96631,1.9663,2.89338.46354.57568.9196,1.15885,1.38314,1.73453-1.78687-.40373-5.19612-.52335-5.4877.40373-.46354,1.56257,4.38866,1.099,6.183.40373a38.18623,38.18623,0,0,0,4.10456,3.98493c-1.85416-.05233-5.2036.40373-5.31575,1.33081-.17195,1.62238,4.50829.35139,6.1232-.69531a38.51341,38.51341,0,0,0,4.04475,2.83357c.23177.11962.46354.29158.69531.40372-1.79434.23177-5.03164,1.271-4.97183,2.25789.11962,1.61491,4.44848-.40373,5.89891-1.73454a35.37715,35.37715,0,0,0,5.19612,2.31022c-1.73454.57569-4.68025,2.13826-4.50829,3.06534.35139,1.5551,4.33633-1.21866,5.49518-2.72142a41.79484,41.79484,0,0,0,5.54751,1.39061c-1.62239.86727-4.27652,2.94572-3.87279,3.813.63548,1.50277,4.04475-1.90649,4.97182-3.641h.172c.40373,1.90649,2.71395,6.1232,3.75317,4.85221.57568-.74765-1.38314-3.46159-2.65413-4.73259a38.52162,38.52162,0,0,0,5.71947.2243c.6953,1.79434,3.75316,5.54751,4.50828,4.16438.46354-.80746-1.90649-3.17749-3.46906-4.21672a37.65927,37.65927,0,0,0,5.65966-.80745c1.0467,1.67472,4.62791,4.79239,5.20359,3.28963.34392-.92708-2.48217-2.83357-4.15689-3.5214.22429-.05981.51587-.11962.74764-.17944a31.80336,31.80336,0,0,0,4.68025-1.55509c1.271,1.443,5.43536,3.92512,5.66713,2.37.172-.92708-2.95319-2.37-4.74-2.77376a39.81943,39.81943,0,0,0,5.084-2.72142c1.50276,1.21866,6.07086,3.00552,6.01105,1.3308,0-.97941-3.34944-1.79434-5.14379-1.90649.6355-.40372,1.21119-.86726,1.84668-1.271a33.3996,33.3996,0,0,0,2.72142-2.25042c1.67472.91961,6.46712,1.90649,6.183.28411-.17943-.92708-3.641-1.21118-5.43536-.97941a38.6862,38.6862,0,0,0,3.87279-4.27652c1.79434.63549,6.75869.74764,6.183-.80746-.34392-.92707-3.813-.52335-5.54751,0a36.6999,36.6999,0,0,0,2.01863-3.06533c.35139-.57569.69531-1.21119,1.0467-1.84668,1.84668.2841,6.7587-.41121,5.95124-1.85416-.52335-.86726-3.87279.11963-5.49518.98689a43.79814,43.79814,0,0,0,2.19808-5.37555c1.85415,0,6.58673-1.62239,5.54751-2.83357-.6355-.74764-3.813.80745-5.25593,1.90649a43.8853,43.8853,0,0,0,1.21118-5.60732C411.39213,369.9558,411.39213,369.9558,411.39213,369.90346Zm-31.37858-13.06132,9.18853,1.3308a.69539.69539,0,0,0,.74765-.58316,14.29209,14.29209,0,0,0-1.95883-9.53244,13.45087,13.45087,0,0,0-7.63344-5.71948.78146.78146,0,0,1-.51587-.86727l.51587-3.52887a2.5101,2.5101,0,1,0-4.97182-.69531l-.45607,3.41673a.80864.80864,0,0,1-.81493.68783,14.88683,14.88683,0,0,0-9.30069,2.66161,11.93113,11.93113,0,0,0-4.79986,8.14931,13.16963,13.16963,0,0,0,.23177,5.4877,11.52363,11.52363,0,0,0,2.31022,4.27652,20.5642,20.5642,0,0,0,4.05223,3.58121c1.61491,1.099,3.34944,2.19807,5.25593,3.29711a11.52228,11.52228,0,0,1,3.87279,3.23729,5.651,5.651,0,0,1,.69531,4.04475,4.88371,4.88371,0,0,1-1.6822,3.28963,4.44065,4.44065,0,0,1-3.5214.81493,5.68344,5.68344,0,0,1-4.21671-2.48965,7.934,7.934,0,0,1-.92707-4.74006.897.897,0,0,0-.80746-.9794l-8.67266-1.21119a.91864.91864,0,0,0-1.03922.80745,14.58817,14.58817,0,0,0,2.25788,9.93618,15.59359,15.59359,0,0,0,9.0091,5.95124.91042.91042,0,0,1,.643.98689l-.4112,3.06533a2.50959,2.50959,0,0,0,4.97183.68784l.40372-3.00553a.87329.87329,0,0,1,.86727-.74764,14.077,14.077,0,0,0,8.95676-2.66161,12.05194,12.05194,0,0,0,4.62791-8.20165,13.43662,13.43662,0,0,0-.29158-5.54751,12.20932,12.20932,0,0,0-2.37-4.33633,24.91836,24.91836,0,0,0-3.98494-3.641c-1.56258-1.099-3.29711-2.25041-5.084-3.34944a13.214,13.214,0,0,1-3.82045-3.17749,5.288,5.288,0,0,1-.80746-3.82045,5.44461,5.44461,0,0,1,1.62239-3.40925,4.50418,4.50418,0,0,1,6.64655,1.39061,8.323,8.323,0,0,1,.63549,4.50829A.67169.67169,0,0,0,380.01355,356.84214Zm-2.02611-28.32073a36.54383,36.54383,0,0,1,18.78079,8.553l5.60731-6.41478a44.84168,44.84168,0,0,0-48.365-6.8185l3.58121,7.74558A36.24645,36.24645,0,0,1,377.98744,328.52141Z" transform="translate(-308.53097 -309.63248)"/>
  <path class="cls-7" d="M412.08744,369.20815c1.84668-.29158,6.24282-2.71394,4.96435-3.76064-.74764-.6355-3.69336,1.50276-4.85221,2.83357a39.06258,39.06258,0,0,0,.23177-5.83162c1.73454-.6355,5.71947-3.76065,4.27652-4.5681-.86726-.46354-3.34944,2.13827-4.27652,3.641a37.76833,37.76833,0,0,0-.63549-5.14378,2.36746,2.36746,0,0,1-.11215-.6355c1.61491-.92708,4.96435-4.68025,3.40925-5.25593-.92707-.35139-2.95319,2.65413-3.58868,4.27652a36.18334,36.18334,0,0,0-1.78687-5.555c1.443-1.21118,4.04475-5.4877,2.42236-5.77181-.97941-.17943-2.42236,3.11768-2.8261,4.85221-.58315-1.271-1.15883-2.542-1.85414-3.76065a.42664.42664,0,1,0-.74765.41121,38.97387,38.97387,0,0,1,1.78687,3.58121c-1.49528-.98689-4.73258-2.31022-5.31574-1.50276-.97941,1.3308,3.87279,2.60179,5.72695,2.48217a41.72517,41.72517,0,0,1,1.727,5.37555c-1.32334-1.21118-4.27652-3.11767-4.96435-2.42984-1.21866,1.15885,3.34944,3.2373,5.19612,3.40926a2.382,2.382,0,0,1,.11961.63549,36.59011,36.59011,0,0,1,.63551,4.97183c-1.099-1.44294-3.70083-3.813-4.50829-3.23729-1.39063.92707,2.714,3.76064,4.5681,4.27651a36.99729,36.99729,0,0,1-.23177,5.60733c-.81493-1.61491-2.95319-4.38867-3.87279-3.98494-1.50276.6355,2.07845,4.1569,3.75317,4.96435v.11962A42.96122,42.96122,0,0,1,410.181,374.636c-.52335-1.727-2.19807-4.8522-3.12515-4.62043-1.61491.40373,1.3308,4.50829,2.83357,5.60732a34.114,34.114,0,0,1-2.13826,5.25593c-.172-1.78686-1.271-5.19612-2.25041-5.14378-1.68219.11962.51588,4.68024,1.84668,6.01105a37.21388,37.21388,0,0,1-3.00552,4.79987c.11214-1.79435-.34392-5.37556-1.33081-5.49518-1.67472-.172-.2841,4.74006.75512,6.24283a38.36912,38.36912,0,0,1-3.813,4.22417c.40373-1.73453.57569-5.37555-.35139-5.66713-1.61491-.46354-1.099,4.62043-.34392,6.30263-.86726.74764-1.73453,1.50276-2.66161,2.1906-.63549.46353-1.271.92707-1.90649,1.3308.75512-1.61491,1.50277-5.2036.6355-5.65966-1.50276-.75512-1.90649,4.38867-1.38314,6.1232a43.17721,43.17721,0,0,1-5.09145,2.71394c.98689-1.44295,2.42984-4.912,1.62239-5.4877-1.33081-.98689-2.6018,3.98494-2.48218,5.8391a38.609,38.609,0,0,1-5.49518,1.78686c1.21865-1.21118,3.29711-4.38866,2.6018-5.14378-1.15885-1.21118-3.29712,3.46906-3.40925,5.31574v.05981a39.43965,39.43965,0,0,1-5.71947.75512c1.44295-.98689,3.98494-3.76064,3.46906-4.62791-.92707-1.38314-3.82045,2.89338-4.27652,4.62791v.05234a38.56492,38.56492,0,0,1-5.77928-.23177c1.5551-.74765,4.56063-3.00553,4.1569-3.92513-.6355-1.56257-4.27652,2.13826-5.02416,3.813v0c-.29158-1.79434-2.72142-6.355-3.76065-5.03164-.6355.75512,1.62239,3.82046,2.89338,4.97183a30.279,30.279,0,0,1-5.60732-1.38314V400.183c.05981-1.79434-1.56258-6.70636-2.83357-5.60732-.74764.63549.92708,4.04474,2.02611,5.37555A42.59161,42.59161,0,0,1,355.917,397.641v-.0598c.34392-1.78688-.4112-6.87833-1.79434-6.0634-.86727.51588.23177,4.1569,1.03922,5.65966a33.67526,33.67526,0,0,1-4.79239-3.23729v-.05981c.68783-1.67472.80744-6.87084-.75512-6.23535-.92708.34392-.51588,4.09709.05981,5.71947a45.24228,45.24228,0,0,1-4.16437-3.98493c.92707-1.56258,1.9663-6.59422.35139-6.30264-.98689.172-1.21866,3.8728-.98689,5.60733-.51587-.58316-.97941-1.21866-1.44295-1.85416a29.234,29.234,0,0,1-1.90649-2.82609c1.21118-1.39061,3.11767-6.183,1.44295-6.13067-.97941,0-1.84668,3.58868-1.90649,5.37555a42.12967,42.12967,0,0,1-2.542-5.14378c1.443-1.15137,4.10456-5.54752,2.48218-5.77928-.97941-.172-2.48218,3.23729-2.82609,4.97182a37.12491,37.12491,0,0,1-1.62239-5.4877c1.62239-.86726,5.03164-4.74006,3.46907-5.26341-.92708-.34391-3.00553,2.72143-3.641,4.39615a36.6727,36.6727,0,0,1-.57568-5.66714c1.73452-.57568,5.71947-3.75317,4.27652-4.56062-.86728-.46354-3.35692,2.13826-4.33633,3.641a36.74759,36.74759,0,0,1,.40373-5.60732v-.05982c1.84667-.29158,6.30263-2.71394,5.03163-3.75316-.75512-.6355-3.641,1.50276-4.85968,2.82609a36.9023,36.9023,0,0,1,1.33081-5.4877c1.84668,0,6.64655-1.56258,5.60732-2.83357-.6355-.74764-3.87279.81493-5.26341,1.90649a37.51139,37.51139,0,0,1,2.02612-4.62044c.11214-.17195.172-.3439.29158-.57568,1.84668.34392,6.8185-.40373,6.00357-1.85416-.51587-.85979-3.92512.17944-5.4877.98689a37.305,37.305,0,0,1,3.17748-4.68024c1.73454.63549,6.76617.74764,6.183-.75512-.34391-.9196-3.87279-.51588-5.59984,0a32.64342,32.64342,0,0,1,2.71394-2.94572.40707.40707,0,1,0-.57568-.57568c-.98689.97941-1.90649,1.9663-2.83357,3.05786.11214-1.78687-.35139-5.31574-1.33082-5.42789-1.6149-.172-.29157,4.62043.75513,6.183a37.46253,37.46253,0,0,0-3.23729,4.79987c-.23177-1.79435-1.271-5.14379-2.25788-5.09145-1.61491.11962.46353,4.62791,1.79434,5.95124a2.83028,2.83028,0,0,0-.29158.58317,34.06287,34.06287,0,0,0-2.01864,4.74005c-.52335-1.73454-2.13826-4.85968-3.12515-4.62791-1.61491.40372,1.271,4.44847,2.77376,5.54751a46.84687,46.84687,0,0,0-1.38314,5.60732c-.80745-1.61491-2.94571-4.38866-3.87279-3.98494-1.50276.6355,2.01863,4.1569,3.70083,4.96435v.11963a36.95259,36.95259,0,0,0-.40373,5.65965c-1.099-1.44295-3.70083-3.75316-4.50828-3.22981-1.39062.9196,2.65413,3.69335,4.50828,4.269a37.076,37.076,0,0,0,.57569,5.72695c-1.3308-1.21866-4.27652-3.06534-4.97184-2.42985-1.15883,1.099,3.23731,3.17749,5.1438,3.40926a20.10518,20.10518,0,0,0,.46354,2.02611,29.29,29.29,0,0,0,1.099,3.46159c-1.50276-.97941-4.74006-2.25041-5.31574-1.50276-.98689,1.3308,3.75317,2.54946,5.65966,2.48965a33.55985,33.55985,0,0,0,2.542,5.14378c-1.67472-.69531-5.02416-1.39061-5.4877-.58316-.75513,1.45043,4.10456,1.85416,6.01105,1.45043.6355.97942,1.271,1.9663,1.96631,2.8859.45606.57569.9196,1.15885,1.38314,1.73453-1.79435-.40372-5.2036-.51587-5.4877.40373-.46354,1.56257,4.38866,1.099,6.183.40373a37.5803,37.5803,0,0,0,4.10456,3.99241c-1.85415-.05981-5.20359.40373-5.32321,1.32333-.172,1.62239,4.50828.35139,6.13067-.68783a38.78263,38.78263,0,0,0,4.04475,2.82609c.23177.11962.46354.29158.69531.4112-1.79435.2243-5.03164,1.271-4.97183,2.25041.11215,1.61491,4.44848-.40373,5.89143-1.73453a34.35617,34.35617,0,0,0,5.20359,2.31021c-1.73453.58317-4.68024,2.13826-4.50828,3.06534.34391,1.56257,4.33633-1.21118,5.4877-2.71394a43.282,43.282,0,0,0,5.54751,1.38314c-1.61491.86726-4.27652,2.94571-3.86532,3.813.6355,1.50276,4.04475-1.90649,4.96434-3.641h.172c.41121,1.90649,2.72142,6.13068,3.76065,4.85968.57568-.75512-1.39062-3.46906-2.66161-4.74a38.58841,38.58841,0,0,0,5.72694.23177c.68784,1.78686,3.75317,5.54751,4.50082,4.15689.46352-.80745-1.90649-3.17748-3.46159-4.21671a36.72345,36.72345,0,0,0,5.65966-.80745c1.03922,1.67472,4.62791,4.79239,5.20358,3.28963.34393-.9196-2.48964-2.82609-4.16436-3.5214.23177-.05981.52335-.11962.75512-.172a31.82711,31.82711,0,0,0,4.68025-1.56257c1.271,1.44295,5.42787,3.9326,5.65965,2.37.17944-.92708-2.94571-2.37-4.73258-2.77376a40.26372,40.26372,0,0,0,5.084-2.71394c1.50276,1.21118,6.06338,2.99805,6.01105,1.32333,0-.97942-3.35692-1.78687-5.14379-1.90649.6355-.40373,1.21118-.86727,1.84668-1.271a33.30152,33.30152,0,0,0,2.71395-2.2504c1.67472.9196,6.47459,1.90649,6.183.2841-.17195-.9196-3.641-1.21118-5.42788-.97941a39.44475,39.44475,0,0,0,3.87279-4.27652c1.78686.6355,6.75869.75512,6.183-.80746-.3514-.92707-3.813-.52335-5.54752,0a36.69337,36.69337,0,0,0,2.01864-3.06533c.35139-.57569.69531-1.21118,1.03922-1.84667,1.85416.28409,6.76617-.40374,5.95872-1.85417-.52335-.85979-3.87279.11963-5.49518.98689a43.79651,43.79651,0,0,0,2.19807-5.37555c1.84668,0,6.58674-1.61491,5.54752-2.83357-.6355-.74764-3.813.80746-5.25594,1.90649a44.79037,44.79037,0,0,0,1.21119-5.59985C412.08744,369.268,412.08744,369.20815,412.08744,369.20815Zm-31.37858-13.06132,9.18853,1.3308a.6941.6941,0,0,0,.74764-.57568,14.27271,14.27271,0,0,0-1.9663-9.53993,13.40915,13.40915,0,0,0-7.626-5.71947.79436.79436,0,0,1-.52335-.86726l.52335-3.52888a2.50959,2.50959,0,0,0-4.97182-.68783l-.46354,3.40925a.8075.8075,0,0,1-.80746.69531,14.86918,14.86918,0,0,0-9.30068,2.65413,11.9311,11.9311,0,0,0-4.79987,8.14931,13.16262,13.16262,0,0,0,.23177,5.4877,11.41738,11.41738,0,0,0,2.31022,4.27652,20.4855,20.4855,0,0,0,4.04475,3.58121c1.62238,1.099,3.35692,2.19807,5.26341,3.29711a11.5224,11.5224,0,0,1,3.87279,3.23729,5.68978,5.68978,0,0,1,.68783,4.04475,4.91319,4.91319,0,0,1-1.67472,3.29711,4.4679,4.4679,0,0,1-3.5214.80745,5.69851,5.69851,0,0,1-4.22418-2.48964,7.92308,7.92308,0,0,1-.91961-4.73259.90931.90931,0,0,0-.80745-.98689l-8.67266-1.21118a.9238.9238,0,0,0-1.03922.80745,14.6473,14.6473,0,0,0,2.2504,9.94366,15.64831,15.64831,0,0,0,9.01658,5.95124.89154.89154,0,0,1,.63548.97941l-.40371,3.06534a2.5101,2.5101,0,0,0,4.97182.6953l.40373-3.00552a.87341.87341,0,0,1,.86727-.75512,14.11846,14.11846,0,0,0,8.95676-2.65413,12.049,12.049,0,0,0,4.62044-8.20912,13.3262,13.3262,0,0,0-.28411-5.54752,12.20928,12.20928,0,0,0-2.37-4.33633,24.66516,24.66516,0,0,0-3.99241-3.641c-1.5551-1.099-3.28963-2.25042-5.084-3.34944a13.27049,13.27049,0,0,1-3.813-3.17749,5.26012,5.26012,0,0,1-.80746-3.813,5.42024,5.42024,0,0,1,1.61491-3.40926,4.50722,4.50722,0,0,1,6.64655,1.38314,8.27647,8.27647,0,0,1,.63548,4.50829A.67306.67306,0,0,0,380.70886,356.14683Zm-2.02612-28.31325a36.484,36.484,0,0,1,18.7808,8.553l5.60732-6.41478a44.83943,44.83943,0,0,0-48.37251-6.826l3.58869,7.74558A35.815,35.815,0,0,1,378.68274,327.83358Z" transform="translate(-308.53097 -309.63248)"/>
  <path class="cls-2" d="M442.02307,387.92914q0,2.613-.26168,5.20359a50.034,50.034,0,0,1-.76259,5.15127,50.80041,50.80041,0,0,1-1.26352,5.04659c-.50092,1.65976-1.09156,3.2971-1.757,4.90454-.65793,1.59995-1.40557,3.17-2.2205,4.70267q-1.23361,2.299-2.67656,4.46343c-.96446,1.45043-2.00369,2.841-3.10272,4.1868q-1.64856,2.00742-3.499,3.85784a51.74542,51.74542,0,0,1-3.85784,3.49149,51.212,51.212,0,0,1-4.17932,3.10272,52.829,52.829,0,0,1-14.07065,6.654c-1.66724.50839-3.34944.92707-5.05407,1.271-1.70462.33644-3.41673.59064-5.15126.7626q-2.59057.25793-5.19612.25419-2.60179,0-5.20359-.25419-2.59062-.25794-5.14379-.7626c-1.70462-.34392-3.38682-.7626-5.05407-1.271q-2.48964-.75138-4.90453-1.74949-2.39994-.9981-4.70268-2.228a53.3862,53.3862,0,0,1-8.65023-5.77929q-2.00742-1.64855-3.85784-3.49149-1.8392-1.85041-3.49149-3.85784a51.33239,51.33239,0,0,1-3.10272-4.1868q-1.44669-2.16442-2.67656-4.46343-1.23361-2.299-2.228-4.70267-.9981-2.41116-1.74949-4.90454a50.80313,50.80313,0,0,1-1.26351-5.04659q-.51588-2.55695-.77008-5.15127c-.16448-1.727-.25419-3.46158-.25419-5.20359,0-1.73453.08971-3.46907.25419-5.19612q.25793-2.59059.77008-5.15126a50.80175,50.80175,0,0,1,1.26351-5.04659,52.5358,52.5358,0,0,1,3.97747-9.6147q1.2336-2.299,2.67656-4.46342a51.21086,51.21086,0,0,1,3.10272-4.17932,51.74578,51.74578,0,0,1,3.49149-3.85785q1.85041-1.83919,3.85784-3.499c1.34576-1.099,2.73637-2.13078,4.1868-3.10272q2.16442-1.44669,4.46343-2.67656,2.299-1.2224,4.70268-2.2205,2.41114-.9981,4.90453-1.757c1.66725-.50092,3.34945-.92708,5.05407-1.26352s3.41671-.59064,5.14379-.76259q2.60179-.25794,5.20359-.2542,2.60179,0,5.19612.2542c1.73453.17195,3.44664.42615,5.15126.76259s3.38683.7626,5.05407,1.26352c1.65977.5084,3.29711,1.09156,4.89706,1.757q2.41116.9981,4.71016,2.2205,2.299,1.23361,4.46343,2.67656c1.44295.97194,2.841,2.00369,4.17932,3.10272q2.01864,1.65977,3.85784,3.499a50.25338,50.25338,0,0,1,3.499,3.85785c1.099,1.33827,2.13826,2.73636,3.10272,4.17932s1.85415,2.93076,2.67656,4.46342a53.97266,53.97266,0,0,1,3.97746,9.6147,50.799,50.799,0,0,1,1.26352,5.04659,50.03343,50.03343,0,0,1,.76259,5.15126Q442.01933,385.32359,442.02307,387.92914Z" transform="translate(-308.53097 -309.63248)"/>
  <path class="cls-4" d="M396.2,327.84106c1.742,0,3.46907.08972,5.2036.26167,1.72705.17944,3.43916.43364,5.14378.77755s3.38683.77008,5.04659,1.271c1.66725.50839,3.29711,1.099,4.90454,1.76443,1.6.67288,3.17,1.413,4.6952,2.23546q2.299,1.2336,4.46343,2.684,2.16442,1.45789,4.17933,3.11019,2.00742,1.65977,3.85036,3.50645,1.83918,1.85041,3.484,3.86531c1.099,1.34576,2.13078,2.73638,3.09524,4.1868a52.61909,52.61909,0,0,1,4.88211,9.18106q.9981,2.41114,1.74948,4.90454a51.39376,51.39376,0,0,1,1.24857,5.05407q.50466,2.55693.75512,5.15126a50.26231,50.26231,0,0,1,.24672,5.19612q0,2.613-.26168,5.2036c-.17943,1.727-.43363,3.44663-.77755,5.15126q-.51586,2.54573-1.27846,5.04659c-.50093,1.65977-1.09156,3.28963-1.757,4.89706-.67288,1.6-1.413,3.17-2.23545,4.70268q-1.23362,2.28778-2.684,4.45595-1.4579,2.16442-3.11019,4.17932-1.65978,2.00743-3.50645,3.85037-1.85041,1.8392-3.86531,3.484c-1.34576,1.10652-2.74386,2.13079-4.18681,3.09525q-2.17563,1.44669-4.4709,2.66909a51.95163,51.95163,0,0,1-4.71015,2.213q-2.41116.9981-4.90454,1.74948-2.50087.75138-5.05407,1.256c-1.70463.33644-3.42421.58316-5.15126.75512q-2.59059.24672-5.2036.23925-2.6018,0-5.19612-.26168-2.59057-.25794-5.15126-.77755c-1.69715-.34391-3.37935-.76259-5.04659-1.271q-2.48965-.7626-4.89706-1.76444-2.39994-.9981-4.70268-2.23545c-1.53267-.82241-3.013-1.71958-4.45595-2.684-1.44295-.97194-2.83357-2.00368-4.17933-3.1102q-2.00742-1.65976-3.85036-3.50644c-1.22613-1.22614-2.385-2.51956-3.49149-3.86532a51.15566,51.15566,0,0,1-3.08777-4.1868,51.86652,51.86652,0,0,1-2.6691-4.4709q-1.22238-2.299-2.22048-4.71016c-.65793-1.60743-1.24109-3.23729-1.742-4.90454-.50092-1.65976-.9196-3.34944-1.256-5.05406s-.58317-3.41673-.75512-5.15126q-.24672-2.59059-.23925-5.19612c0-1.742.08972-3.46907.26168-5.2036q.25792-2.59059.77755-5.14379a50.83251,50.83251,0,0,1,1.271-5.04659c.5084-1.66724,1.099-3.2971,1.76444-4.90454q.9981-2.39993,2.23545-4.70267,1.23361-2.28778,2.684-4.45595c.97193-1.443,2.00367-2.83357,3.11019-4.17933q1.65978-2.00742,3.50645-3.85036a51.76263,51.76263,0,0,1,3.86531-3.484c1.34576-1.099,2.73638-2.13078,4.18681-3.09524a53.47337,53.47337,0,0,1,14.08559-6.6316,50.87276,50.87276,0,0,1,5.05407-1.24856,51.81693,51.81693,0,0,1,5.15126-.75512A50.25952,50.25952,0,0,1,396.2,327.84106Z" transform="translate(-308.53097 -309.63248)"/>
  <g class="cls-9">
    <path class="cls-5" d="M435.93725,344.57331q1.85043,1.86163,3.52139,3.88775c1.10653,1.35323,2.14575,2.75132,3.11769,4.20923.97193,1.45043,1.8691,2.95319,2.699,4.49333q1.2336,2.31023,2.23545,4.73258a51.74352,51.74352,0,0,1,1.76444,4.93445q.7626,2.51208,1.27847,5.084c.33644,1.71958.59811,3.44664.77007,5.18865.172,1.73453.2542,3.484.2542,5.2335s-.08224,3.49149-.2542,5.2335c-.172,1.73453-.43363,3.46906-.77007,5.18117q-.51588,2.56815-1.27847,5.084a50.31482,50.31482,0,0,1-1.76444,4.93444q-.9981,2.42237-2.23545,4.73259c-.82989,1.54762-1.72706,3.0429-2.699,4.50081q-1.45791,2.17563-3.11769,4.20923-1.65975,2.01864-3.52139,3.88027-1.85041,1.85041-3.88026,3.52139-2.02986,1.65978-4.20923,3.11768-2.18686,1.45789-4.49334,2.69151a51.68431,51.68431,0,0,1-4.74006,2.24293,52.337,52.337,0,0,1-4.93444,1.76444c-1.67472.5084-3.3644.93455-5.084,1.27847q-2.56813.50466-5.18115.76259t-5.2335.26168q-2.62424,0-5.23351-.26168c-1.742-.16448-3.46906-.42615-5.18116-.76259-1.71958-.34392-3.40926-.77007-5.084-1.27847a52.337,52.337,0,0,1-4.93444-1.76444q-2.42237-.9981-4.74006-2.23545-2.31021-1.24484-4.49333-2.699-2.17564-1.45791-4.20923-3.11768-2.02986-1.671-3.88027-3.52139a50.868,50.868,0,0,1-3.5214-3.88027c-1.10651-1.35324-2.15321-2.75881-3.11767-4.20923-.97194-1.45791-1.87659-2.95319-2.699-4.49334q-1.2336-2.32143-2.24292-4.74006-.99812-2.42237-1.76444-4.93444c-.5084-1.67472-.92709-3.36439-1.271-5.084q-.51587-2.56817-.77007-5.18117-.25794-2.613-.2542-5.2335,0-2.62423.2542-5.2335.25794-2.613.77007-5.18865c.34391-1.7121.7626-3.40925,1.271-5.0765q.76257-2.51208,1.76444-4.93444c.67287-1.61491,1.42052-3.19991,2.24292-4.74006s1.71958-3.0429,2.69152-4.49333c.97194-1.45791,2.01864-2.856,3.12515-4.20923a54.1,54.1,0,0,1,7.40167-7.40167,51.95278,51.95278,0,0,1,4.20923-3.12515c1.45042-.97193,2.95319-1.86911,4.49333-2.69151s3.12515-1.57,4.74006-2.24293q2.42236-.99812,4.93444-1.76444c1.66725-.5084,3.3644-.92708,5.0765-1.271q2.57937-.51588,5.18864-.77008,2.613-.25794,5.23351-.2542,2.62422,0,5.2335.2542,2.613.25794,5.18115.77008a51.54259,51.54259,0,0,1,5.084,1.271q2.51208.7626,4.93444,1.76444,2.42237,1.00932,4.74006,2.24293,2.31022,1.2336,4.49334,2.69151,2.17563,1.45791,4.20923,3.12515Q434.08683,342.71916,435.93725,344.57331Z" transform="translate(-308.53097 -309.63248)"/>
  </g>
  <path class="cls-6" d="M432.91678,347.60127q1.70461,1.70461,3.23729,3.57373c1.0168,1.24109,1.97378,2.53451,2.87095,3.86532.8897,1.33828,1.71958,2.72142,2.4747,4.13446.7626,1.42052,1.44295,2.87843,2.06349,4.35876.61307,1.48781,1.15883,2.998,1.62239,4.5382a48.11861,48.11861,0,0,1,1.1738,4.68024c.314,1.57753.54578,3.16253.70278,4.77.157,1.59995.23925,3.19991.23925,4.81482,0,1.60744-.08224,3.20739-.23925,4.81482q-.2355,2.39994-.70278,4.76249a48.11861,48.11861,0,0,1-1.1738,4.68024c-.46356,1.54015-1.00932,3.05039-1.62239,4.5382a47.3158,47.3158,0,0,1-2.06349,4.35876c-.75512,1.42052-1.585,2.79618-2.4747,4.13446-.89717,1.33828-1.85415,2.62423-2.87095,3.87279q-1.53641,1.86163-3.23729,3.56626a47.15772,47.15772,0,0,1-3.57374,3.2373q-1.86163,1.53641-3.87279,2.87843c-1.33828.88969-2.71394,1.71957-4.13447,2.47469s-2.87095,1.44295-4.35876,2.0635q-2.23171.91959-4.53819,1.62238c-1.54014.46354-3.09524.85979-4.67277,1.1738s-3.17.54578-4.77.70279-3.20739.23924-4.81482.23924-3.21487-.08224-4.81483-.23924-3.19245-.38878-4.77-.70279-3.13262-.71026-4.67277-1.1738q-2.31021-.70652-4.53819-1.62238c-1.48781-.62055-2.93824-1.3009-4.35876-2.0635-1.42052-.75512-2.7962-1.585-4.13447-2.47469q-2.00742-1.34577-3.87279-2.87095c-1.24109-1.02428-2.43732-2.10089-3.57373-3.2373q-1.70463-1.71585-3.2373-3.57374-1.52519-1.86162-2.87095-3.87279c-.88969-1.33828-1.71958-2.71394-2.4747-4.13446a47.321,47.321,0,0,1-2.06349-4.35876c-.61307-1.48781-1.15885-2.998-1.6224-4.5382a47.97951,47.97951,0,0,1-1.17379-4.67277c-.314-1.57752-.54578-3.17-.71026-4.77q-.2355-2.39994-.23177-4.81482,0-2.41116.23177-4.81482.23552-2.39994.71026-4.77a49.57724,49.57724,0,0,1,2.79619-9.211,46.4148,46.4148,0,0,1,2.06349-4.35876,47.18188,47.18188,0,0,1,2.4747-4.13447q1.34575-2.00742,2.87095-3.87279,1.53641-1.87284,3.2373-3.57373,1.70461-1.70463,3.57373-3.2373c1.24109-1.01679,2.53451-1.98125,3.87279-2.87095,1.33827-.89717,2.714-1.71958,4.13447-2.48217,1.413-.75512,2.87095-1.44295,4.35876-2.056a46.12542,46.12542,0,0,1,4.53819-1.62239,47.44231,47.44231,0,0,1,4.67277-1.1738q2.36626-.471,4.77-.71026,2.39994-.2355,4.81483-.23177,2.41114,0,4.81482.23177c1.59995.157,3.185.39625,4.77.71026q2.3663.471,4.67277,1.16633c1.54015.471,3.05038,1.00932,4.53819,1.62986q2.23172.9196,4.35876,2.056c1.42053.76259,2.79619,1.585,4.13447,2.48217A46.704,46.704,0,0,1,429.343,344.364C430.58413,345.38077,431.77288,346.46485,432.91678,347.60127Z" transform="translate(-308.53097 -309.63248)"/>
  <path class="cls-7" d="M428.20662,361.814l7.8054.57569a42.45026,42.45026,0,0,0-8.26893-10.92307l-.40373,5.25593-5.4877.92708a32.32442,32.32442,0,0,1,6.47459,8.553Zm.80746,39.69985-.11215-4.50828a32.79429,32.79429,0,0,1-6.07086,8.897l5.49518.46354.63549,5.43536a42.15453,42.15453,0,0,0,7.74559-11.27446Z" transform="translate(-308.53097 -309.63248)"/>
  <path class="cls-8" d="M418.44241,415.72651c1.15882-.74764,2.31021-1.5551,3.40925-2.42236a.39891.39891,0,0,0,.05981-.58317.39143.39143,0,0,0-.58316-.05233c-1.03923.85979-2.13826,1.61491-3.22982,2.36255.74764-1.67472,1.50274-5.084.6355-5.48769-1.45043-.74765-1.90649,4.2167-1.50277,6.07085a34.88464,34.88464,0,0,1-5.03164,2.542c.98689-1.50277,2.37-4.74007,1.62239-5.31575-1.3308-.98689-2.66161,3.813-2.542,5.71947-.17943.05981-.4112.17195-.58316.23177a45.93628,45.93628,0,0,1-4.79239,1.44295c1.271-1.271,3.17748-4.27652,2.48217-4.97183-1.099-1.21118-3.23729,3.29711-3.46906,5.14379a43.76435,43.76435,0,0,1-5.54751.6953c1.44295-1.03922,3.813-3.641,3.2971-4.44847-.86726-1.39062-3.813,2.71394-4.33633,4.50829h-.11214a35.33463,35.33463,0,0,1-5.54751-.29159c1.61491-.74764,4.44847-2.94571,4.04475-3.813-.6355-1.50276-4.22419,2.02612-5.03164,3.70084a35.80853,35.80853,0,0,1-5.54751-1.271c1.73453-.46353,4.912-2.13825,4.74-3.06533-.34391-1.61491-4.5681,1.271-5.60732,2.77375a37.46,37.46,0,0,1-5.25593-2.19807c1.78685-.172,5.25593-1.21118,5.19612-2.19059-.05234-1.6822-4.73258.45606-6.00358,1.727a41.132,41.132,0,0,1-4.79987-3.11767c1.79435.172,5.37556-.29158,5.48771-1.271.23175-1.67472-4.73259-.34392-6.23535.69531a32.60235,32.60235,0,0,1-2.54946-2.25789c-.57569-.51587-1.09156-1.099-1.61491-1.6149,1.67472.46353,5.37555.63549,5.66713-.29159.51588-1.6149-4.62791-1.15137-6.30263-.40372a42.73377,42.73377,0,0,1-3.46906-4.5681c1.56257.75512,5.20359,1.62238,5.66713.75512.74765-1.50277-4.39614-1.9663-6.13067-1.50277A42.86652,42.86652,0,0,1,362.272,397.813c1.38314,1.03922,4.912,2.542,5.4877,1.73453,1.03922-1.3308-3.98494-2.66161-5.77928-2.542h-.05982a36.82983,36.82983,0,0,1-1.67472-5.54752c1.21865,1.21119,4.39615,3.34944,5.14379,2.65414,1.21866-1.15137-3.46907-3.34944-5.25593-3.46159h-.05981a48.49291,48.49291,0,0,1-.69531-5.72695c.98689,1.45043,3.70083,4.04476,4.5681,3.46907,1.39061-.92708-2.83357-3.87279-4.5681-4.33633h0c1.73453-.57569,5.83909-3.69336,4.39614-4.56063-.86727-.52335-3.52888,2.1906-4.39614,3.69336a37.68548,37.68548,0,0,1,.46354-5.71947h.05981c1.79434-.23177,6.355-2.65413,5.084-3.69336-.74764-.63549-3.87279,1.55511-5.02416,2.88591a37.8803,37.8803,0,0,1,1.44295-5.60733h.0598c1.78688.05981,6.75871-1.50276,5.65967-2.77375-.63551-.74765-4.10456.86726-5.42789,1.9663a35.51313,35.51313,0,0,1,2.42236-5.25593h.05982c1.79434.40372,6.87831-.29158,6.07086-1.73454-.52335-.86726-4.10456.172-5.66714.97942a37.77852,37.77852,0,0,1,3.29711-4.74006c1.67472.69531,6.81851.92708,6.29516-.68783-.34392-.92708-4.04475-.58316-5.71947-.05981.51587-.57569,1.03922-1.15885,1.56257-1.73454.80745-.80745,1.61491-1.61491,2.48217-2.37,1.56258.97941,6.58674,2.07844,6.30264.40372-.17944-.97941-3.8728-1.271-5.60733-1.03922a38.74159,38.74159,0,0,1,4.68025-3.29711c1.3308,1.21866,6.1232,3.185,6.1232,1.50277,0-.97942-3.58121-1.90649-5.31575-1.95883a42.59566,42.59566,0,0,1,5.2036-2.48965c1.099,1.44295,5.4877,4.22418,5.77928,2.542.172-.97942-3.17748-2.48218-4.912-2.88591a36.387,36.387,0,0,1,5.4877-1.50276c.86726,1.61491,4.62043,5.084,5.20359,3.5214.34392-.9196-2.66161-3.00553-4.27652-3.641a46.10635,46.10635,0,0,1,5.59985-.51588h.11962c.57569,1.73454,3.70084,5.77928,4.50829,4.33633.51588-.86726-2.02611-3.35691-3.52887-4.33633a37.13852,37.13852,0,0,1,5.66713.46354c.28411,1.84668,2.65413,6.29516,3.69336,5.02416.63549-.74764-1.44295-3.641-2.714-4.912a36.80409,36.80409,0,0,1,4.912,1.21118,2.65147,2.65147,0,0,1,.57568.23177c-.05233,1.85415,1.50277,6.64655,2.77376,5.60732.75512-.63549-.80745-3.87279-1.84668-5.25593a34.014,34.014,0,0,1,5.14379,2.37c-.34392,1.84668.34391,6.81851,1.73453,6.011.86726-.46354-.11964-3.9326-.86727-5.49518,1.15885.69531,2.25041,1.39062,3.34944,2.19808a.40811.40811,0,0,0,.58317-.11215.40394.40394,0,0,0-.11963-.58316,35.831,35.831,0,0,0-3.46906-2.25041c1.79434-.172,5.20359-1.21866,5.14378-2.19807-.05233-1.61491-4.62043.46355-6.01105,1.73453a42.94158,42.94158,0,0,0-5.25593-2.42984c1.73453-.46354,4.85219-2.07845,4.68025-3.05786-.34392-1.62238-4.44848,1.21118-5.60733,2.714-.23177-.05981-.40372-.172-.63549-.23177a46.4335,46.4335,0,0,0-4.96435-1.271c1.61491-.80745,4.44847-2.89338,4.04475-3.813-.6355-1.50276-4.16438,1.96631-5.03164,3.641a37.98246,37.98246,0,0,0-5.77928-.46354c1.44295-1.03923,3.87279-3.641,3.35691-4.44848-.86726-1.39062-3.76064,2.65413-4.33633,4.44848h-.11962a45.6161,45.6161,0,0,0-5.65966.52335c1.271-1.27847,3.11767-4.22419,2.48218-4.97183-1.099-1.21866-3.2373,3.2373-3.46907,5.14379a35.48919,35.48919,0,0,0-5.54751,1.50276c.98689-1.50276,2.37-4.68025,1.56258-5.26341-1.271-.97941-2.6018,3.76065-2.542,5.66714-.6355.23176-1.271.51587-1.90649.80745-1.099.52335-2.19807,1.03922-3.29711,1.67472.75512-1.67472,1.50277-5.02416.6355-5.4877-1.44295-.75512-1.90649,4.10456-1.50276,6.01105a33.23446,33.23446,0,0,0-4.68025,3.34944c.40373-1.73453.58315-5.20359-.34392-5.4877-1.56257-.46354-1.15884,4.38867-.46353,6.183a32.16378,32.16378,0,0,0-2.542,2.42236,20.099,20.099,0,0,0-1.50276,1.6822c.11962-1.79434-.34392-5.2036-1.271-5.32322-1.61491-.22429-.40372,4.50829.6355,6.13068a43.35751,43.35751,0,0,0-3.29711,4.68024c-.22429-1.79434-1.21118-5.03164-2.19059-5.03164-1.62239.05981.40373,4.50829,1.67472,5.95872a39.30406,39.30406,0,0,0-2.13826,4.44848c-.11962.23177-.172.46353-.29158.74764-.51587-1.73453-2.07845-4.74-3.00553-4.50829-1.55509.35139,1.15885,4.33633,2.66161,5.54751a35.3409,35.3409,0,0,0-1.44295,5.54751c-.81493-1.6149-2.89338-4.27651-3.76064-3.92512-1.50277.6355,1.85415,4.04475,3.58121,4.97183a37.53667,37.53667,0,0,0-.45606,5.71947c-1.099-1.45043-3.58869-3.76065-4.39615-3.2373-1.38314.86727,2.542,3.70083,4.39615,4.27652v.172c-1.79435.69531-5.60733,3.70083-4.22419,4.50829.81493.46353,3.2373-1.90649,4.22419-3.40926a45.70249,45.70249,0,0,0,.68783,5.65966c-1.67472.98689-4.85222,4.5681-3.34944,5.14379.86726.35139,2.83356-2.42237,3.58121-4.09709a38.28517,38.28517,0,0,0,1.67472,5.4877c-1.443,1.271-3.98494,5.37556-2.42237,5.65966.9196.17943,2.37-2.8859,2.83357-4.68025a3.8897,3.8897,0,0,1,.28411.69531,45.57641,45.57641,0,0,0,2.31021,4.38867c-1.21118,1.50276-3.05786,6.01105-1.44295,6.01105.98689,0,1.84668-3.28963,1.96629-5.14379a37.47345,37.47345,0,0,0,3.46908,4.5681c-.92708,1.67472-1.9663,6.47459-.3514,6.183.92708-.172,1.271-3.641,1.03923-5.42789.52335.51588,1.0467,1.09156,1.56257,1.61491.86727.80746,1.73454,1.56258,2.66161,2.31022-.63549,1.79434-.80745,6.70636.68783,6.183.92708-.34392.58317-3.813.11963-5.54751a43.49145,43.49145,0,0,0,4.8522,3.12514c-.34391,1.84668.35139,6.7587,1.79434,5.95124.86727-.46353-.05981-3.87279-.86726-5.49517a32.72384,32.72384,0,0,0,3.34944,1.50276c.6355.23177,1.3308.52335,1.9663.69531,0,1.90649,1.50276,6.58673,2.77376,5.54751.75512-.6355-.74765-3.813-1.84668-5.25593a38.68788,38.68788,0,0,0,5.65966,1.271c.29158,1.84668,2.66161,6.24282,3.70083,5.02416.6355-.74764-1.44295-3.641-2.71394-4.8522a38.17287,38.17287,0,0,0,5.71947.29158h.11214c.6355,1.73453,3.70084,5.71947,4.50829,4.32885.52335-.86726-2.07845-3.40924-3.58121-4.32885a49.18334,49.18334,0,0,0,5.77928-.69531c.92708,1.61492,4.62044,5.02416,5.2036,3.46907.34391-.92708-2.6018-2.95319-4.27652-3.641a47.20774,47.20774,0,0,0,4.96435-1.45042c.17943-.05234.40373-.172.58316-.2243,1.15137,1.443,5.42789,4.1569,5.71947,2.48218.172-.97941-3.06535-2.48218-4.8522-2.89338a36.58484,36.58484,0,0,0,5.19612-2.65413c1.39061,1.21118,6.07086,3.11767,6.07086,1.50277C423.75815,416.7134,420.23675,415.78632,418.44241,415.72651Zm6.41477-34.67569-3.40925.05981a.80114.80114,0,0,1-.80745-.69531,14.92217,14.92217,0,0,0-4.10456-8.725,11.823,11.823,0,0,0-8.84462-3.40925,13.26733,13.26733,0,0,0-5.37556,1.099,11.8594,11.8594,0,0,0-3.86531,2.94572,18.58556,18.58556,0,0,0-2.89338,4.5681q-1.21119,2.60179-2.42984,5.71947a11.24711,11.24711,0,0,1-2.59432,4.33633,6.022,6.022,0,0,1-3.87279,1.3308,4.70122,4.70122,0,0,1-3.52888-1.15885,4.344,4.344,0,0,1-1.33082-3.34944,5.64392,5.64392,0,0,1,1.79436-4.5681,7.96643,7.96643,0,0,1,4.5681-1.67472.98954.98954,0,0,0,.86726-.92708l-.17943-8.725a.87915.87915,0,0,0-.97941-.86727,14.26429,14.26429,0,0,0-9.42032,3.813,15.56629,15.56629,0,0,0-4.38865,9.824.93416.93416,0,0,1-.86727.81493l-3.06533.05234a2.48664,2.48664,0,1,0,.11962,4.97183l2.99805-.05981a.82754.82754,0,0,1,.86726.75511,14.378,14.378,0,0,0,4.04475,8.43342,12.0424,12.0424,0,0,0,8.84462,3.23729,13.87181,13.87181,0,0,0,5.43537-1.15137,12.35154,12.35154,0,0,0,3.87279-3.00552,21.95869,21.95869,0,0,0,2.94571-4.50829c.86727-1.73453,1.67472-3.58121,2.48218-5.54751a12.44231,12.44231,0,0,1,2.542-4.27652,4.82767,4.82767,0,0,1,3.641-1.39062,5.5897,5.5897,0,0,1,3.641,1.03923,4.21941,4.21941,0,0,1,1.39061,3.17748,4.12563,4.12563,0,0,1-1.67472,3.641,8.16327,8.16327,0,0,1-4.33633,1.33081.655.655,0,0,0-.63549.69531l.172,9.30068a.64841.64841,0,0,0,.69531.63549,13.63955,13.63955,0,0,0,13.51739-11.90248.80813.80813,0,0,1,.75512-.6953l3.58121-.05234a2.46785,2.46785,0,0,0,2.42984-2.542A2.66247,2.66247,0,0,0,424.85718,381.05082Zm17.45.98689a44.4052,44.4052,0,0,0-7.7381-24.276l-7.05028,4.79987a36.33883,36.33883,0,0,1,.85979,39.5877l7.28205,4.50829A45.59384,45.59384,0,0,0,442.30717,382.03771Z" transform="translate(-308.53097 -309.63248)"/>
  <path class="cls-7" d="M419.19005,415.0312c1.15885-.74764,2.31769-1.5551,3.41673-2.42236a.38907.38907,0,0,0,.05233-.57569.38455.38455,0,0,0-.57568-.05981c-1.03923.86727-2.13826,1.61491-3.2373,2.37.7551-1.67472,1.50277-5.09145.6355-5.49518-1.44295-.74764-1.90649,4.22419-1.50276,6.07086a34.42294,34.42294,0,0,1-5.02417,2.542c.97942-1.50276,2.37-4.74006,1.61491-5.31574-1.3308-.97941-2.65413,3.813-2.542,5.71947-.172.05981-.40373.172-.57569.23177a46.07029,46.07029,0,0,1-4.79987,1.44295c1.271-1.271,3.17749-4.27652,2.48965-4.96435-1.099-1.21866-3.23729,3.28963-3.46906,5.14378a45.50883,45.50883,0,0,1-5.54751.68784c1.44295-1.03923,3.813-3.641,3.28963-4.44848-.86727-1.38314-3.813,2.71394-4.32886,4.50829h-.11962a35.38207,35.38207,0,0,1-5.54751-.29158c1.62238-.74765,4.44848-2.94572,4.04475-3.813-.6355-1.50277-4.21671,2.02611-5.02416,3.70083a35.61322,35.61322,0,0,1-5.54752-1.271c1.73454-.46354,4.912-2.13826,4.73259-3.06534-.34392-1.61491-4.56064,1.271-5.59985,2.77376a37.17934,37.17934,0,0,1-5.26341-2.19808c1.79434-.17195,5.26341-1.21118,5.2036-2.19059-.05981-1.67472-4.74006.46354-6.01105,1.73453a42.09867,42.09867,0,0,1-4.7924-3.12515c1.78687.172,5.36808-.2841,5.4877-1.271.23177-1.67472-4.74-.34392-6.24282.69531a31.10169,31.10169,0,0,1-2.542-2.25041c-.57569-.52335-1.099-1.099-1.61491-1.62238,1.67472.46354,5.36808.63549,5.65966-.29158.52335-1.61491-4.62044-1.15137-6.29516-.40373a42.41554,42.41554,0,0,1-3.46906-4.56062c1.5551.74764,5.19612,1.61491,5.65966.74764.75512-1.50276-4.38867-1.9663-6.1232-1.50276a42.91674,42.91674,0,0,1-2.66161-5.14379c1.39062,1.03923,4.912,2.542,5.49518,1.73453,1.03922-1.3308-3.99242-2.65413-5.77928-2.542h-.05982a35.987,35.987,0,0,1-1.67472-5.54751c1.21118,1.21118,4.38867,3.34944,5.14379,2.6616,1.21118-1.15884-3.46907-3.35691-5.26341-3.46906H360.829a45.42679,45.42679,0,0,1-.69531-5.71947c.97941,1.44295,3.70083,4.04475,4.56062,3.46159,1.39062-.9196-2.82609-3.87279-4.56062-4.32886h0c1.73453-.58316,5.83909-3.70083,4.38866-4.56809-.86726-.52336-3.5214,2.19807-4.38866,3.70083a36.77062,36.77062,0,0,1,.46354-5.727h.05233c1.79434-.22429,6.36244-2.65413,5.09145-3.69335-.75512-.6355-3.87279,1.55509-5.03164,2.8859a38.48657,38.48657,0,0,1,1.44295-5.59985h.05981c1.79435.05234,6.7587-1.50276,5.66714-2.78123-.6355-.74765-4.10456.86726-5.43537,1.9663a35.911,35.911,0,0,1,2.42984-5.25593h.05234c1.79434.40373,6.87832-.29158,6.07086-1.73453-.52335-.86726-4.10456.172-5.65966.97941a38.442,38.442,0,0,1,3.28963-4.73258c1.67472.68783,6.81851.9196,6.30263-.69531-.35139-.92708-4.04474-.57569-5.72694-.05981.52335-.57569,1.0467-1.15137,1.56257-1.73453.80746-.80746,1.62239-1.61491,2.48218-2.37,1.56257.98689,6.59421,2.08592,6.30263.40372-.172-.97941-3.87279-1.271-5.60732-1.03922a37.866,37.866,0,0,1,4.68024-3.28963c1.33081,1.21118,6.13068,3.17748,6.13068,1.50276,0-.98689-3.58869-1.90649-5.31575-1.9663a43.02776,43.02776,0,0,1,5.19612-2.48965c1.099,1.45043,5.4877,4.22418,5.77927,2.54946.172-.98689-3.17747-2.48965-4.912-2.89338a37.54388,37.54388,0,0,1,5.4877-1.50276c.86727,1.62239,4.62791,5.084,5.2036,3.52888.34391-.92708-2.65414-3.00553-4.27652-3.641a44.77581,44.77581,0,0,1,5.60732-.52335h.11215c.58316,1.73453,3.70083,5.77928,4.50828,4.33633.52335-.86726-2.07844-3.34945-3.52139-4.33633a37.04175,37.04175,0,0,1,5.65965.46353c.29158,1.84668,2.66161,6.29516,3.70084,5.02417.63549-.74765-1.44295-3.641-2.714-4.912a35.98352,35.98352,0,0,1,4.912,1.21867,2.066,2.066,0,0,1,.57568.23176c-.05981,1.84668,1.50277,6.64655,2.77376,5.59985.74764-.6355-.80745-3.86532-1.84668-5.31575a35.47979,35.47979,0,0,1,5.14379,2.37c-.3514,1.85416.34391,6.81851,1.72705,6.01105.86727-.46354-.11214-3.9326-.86728-5.4877,1.15886.69531,2.2579,1.38314,3.35693,2.19807a.39568.39568,0,0,0,.57569-.11962.38858.38858,0,0,0-.11215-.57569,36.83484,36.83484,0,0,0-3.46906-2.25788c1.78686-.172,5.20359-1.21118,5.14378-2.19059-.05981-1.62239-4.62791.45606-6.01105,1.727a44.58988,44.58988,0,0,0-5.25593-2.42236c1.72706-.46354,4.8522-2.07845,4.68025-3.06534-.3514-1.61491-4.456,1.21118-5.60734,2.71395-.23176-.05234-.40371-.172-.63548-.2243a48.95484,48.95484,0,0,0-4.97183-1.27847c1.62239-.80745,4.44848-2.8859,4.04475-3.813-.6355-1.50276-4.1569,1.96631-5.02416,3.641a38.96168,38.96168,0,0,0-5.77928-.46354c1.44295-1.03923,3.87279-3.641,3.34944-4.44848-.86727-1.38314-3.75317,2.66161-4.33633,4.44848h-.11215a45.86985,45.86985,0,0,0-5.66713.52335c1.271-1.271,3.12514-4.21671,2.48965-4.97183-1.099-1.21118-3.2373,3.2373-3.46907,5.14379a36.33162,36.33162,0,0,0-5.54751,1.50276c.97941-1.50276,2.37-4.68025,1.56257-5.25593-1.271-.98689-2.60179,3.75317-2.542,5.65966-.63551.23177-1.27847.52335-1.914.80745-1.09156.52335-2.19059,1.0467-3.28963,1.6822.74765-1.6822,1.50276-5.03164.6355-5.49518-1.443-.74764-1.90649,4.10456-1.50276,6.01105a32.8599,32.8599,0,0,0-4.68025,3.35692c.40373-1.73453.57569-5.2036-.35139-5.49518-1.5551-.46354-1.15137,4.39614-.45606,6.183a33.69589,33.69589,0,0,0-2.542,2.42984,18.76285,18.76285,0,0,0-1.50276,1.67472c.11214-1.79434-.3514-5.20359-1.271-5.31574-1.62238-.23177-.4112,4.50829.6355,6.1232a42.04121,42.04121,0,0,0-3.29712,4.68024c-.23176-1.78687-1.21117-5.02416-2.19806-5.02416-1.61491.05981.40373,4.50829,1.67472,5.95124a39.92889,39.92889,0,0,0-2.13826,4.44848c-.11214.23177-.172.46353-.2841.75512-.52335-1.73454-2.08593-4.74006-3.00553-4.50829-1.56257.34391,1.15137,4.33633,2.65414,5.54751a35.95667,35.95667,0,0,0-1.44295,5.54751c-.80746-1.62238-2.88591-4.27652-3.75317-3.9326-1.50277.6355,1.84668,4.04475,3.58121,4.97183a36.60085,36.60085,0,0,0-.46354,5.71947c-1.099-1.443-3.58121-3.75317-4.38867-3.2373-1.39061.86727,2.542,3.70083,4.38867,4.27652v.17943c-1.79434.68784-5.60732,3.69337-4.21671,4.50082.80746.46353,3.2373-1.90649,4.21671-3.40926a45.65388,45.65388,0,0,0,.69531,5.66714c-1.67472.97941-4.85221,4.5681-3.34944,5.14378.85979.34392,2.82609-2.42984,3.58121-4.10456a37.0825,37.0825,0,0,0,1.67472,5.4877c-1.44295,1.271-3.98494,5.37556-2.42984,5.66714.92707.172,2.37-2.89338,2.83356-4.68025a3.93412,3.93412,0,0,1,.29159.69531,44.79891,44.79891,0,0,0,2.31021,4.38866c-1.21118,1.50277-3.06533,6.01106-1.44295,6.01106.97941,0,1.84668-3.29711,1.95883-5.14379a39.48909,39.48909,0,0,0,3.46906,4.5681c-.9196,1.67472-1.9663,6.46711-.34392,6.183.92708-.17944,1.271-3.641,1.03923-5.43537.52335.52335,1.03922,1.099,1.56257,1.61491.86727.81493,1.73453,1.56258,2.65414,2.3177-.6355,1.78686-.80746,6.69888.6953,6.183.92708-.3514.57569-3.813.11215-5.54752a44.611,44.611,0,0,0,4.85968,3.11767c-.35139,1.84668.34392,6.7587,1.78687,5.95124.86726-.46353-.05234-3.87279-.86727-5.4877a35.58445,35.58445,0,0,0,3.35692,1.50277c.6355.23177,1.32333.51587,1.9663.6953,0,1.90649,1.49529,6.58674,2.77376,5.54752.74764-.6355-.75512-3.813-1.85416-5.26341a37.13335,37.13335,0,0,0,5.66714,1.271c.2841,1.85416,2.65413,6.24282,3.69335,5.03164.6355-.75512-1.44295-3.641-2.71394-4.8522a38.17843,38.17843,0,0,0,5.71947.28411h.11962c.6355,1.73452,3.69336,5.71946,4.50829,4.33632.51587-.86726-2.08592-3.40925-3.58869-4.33632a46.20735,46.20735,0,0,0,5.77928-.69532c.92708,1.62239,4.62792,5.03164,5.2036,3.46907.34392-.9196-2.6018-2.94572-4.27652-3.641a49.73715,49.73715,0,0,0,4.97183-1.443c.172-.05981.40373-.17195.57568-.23177,1.15885,1.443,5.43537,4.16438,5.71947,2.48218.17944-.97941-3.05786-2.48218-4.8522-2.8859a36.31592,36.31592,0,0,0,5.2036-2.66161c1.38314,1.21866,6.06338,3.12515,6.06338,1.50276C424.45346,416.01809,420.92458,415.091,419.19005,415.0312Zm6.36244-34.66821-3.40925.05233a.8142.8142,0,0,1-.81493-.68783,14.89348,14.89348,0,0,0-4.09709-8.725,11.81145,11.81145,0,0,0-8.84462-3.41673,13.36524,13.36524,0,0,0-5.37555,1.099,11.98956,11.98956,0,0,0-3.87279,2.95319,18.66132,18.66132,0,0,0-2.8859,4.56063c-.80746,1.73453-1.62239,3.641-2.42984,5.71947a11.09665,11.09665,0,0,1-2.6018,4.33633,5.99077,5.99077,0,0,1-3.87279,1.3308,4.63479,4.63479,0,0,1-3.5214-1.15884,4.344,4.344,0,0,1-1.33081-3.34945,5.59738,5.59738,0,0,1,1.79435-4.5681,8.01536,8.01536,0,0,1,4.56062-1.67472.98842.98842,0,0,0,.86727-.9196l-.172-8.73247a.88726.88726,0,0,0-.97941-.86727,14.233,14.233,0,0,0-9.42031,3.82046,15.53522,15.53522,0,0,0-4.39614,9.824.9275.9275,0,0,1-.86727.80746l-3.05786.05981a2.48281,2.48281,0,1,0,.11215,4.96435l3.00553-.05234a.82624.82624,0,0,1,.86726.74765,14.39956,14.39956,0,0,0,4.04475,8.44089,12.05619,12.05619,0,0,0,8.84462,3.22982,13.57369,13.57369,0,0,0,5.42789-1.15137A12.35157,12.35157,0,0,0,397,394a21.67325,21.67325,0,0,0,2.95319-4.50829c.85979-1.73453,1.67472-3.58121,2.48218-5.5475a12.32606,12.32606,0,0,1,2.542-4.27653,4.82766,4.82766,0,0,1,3.641-1.39062,5.59191,5.59191,0,0,1,3.641,1.04671,4.16425,4.16425,0,0,1,1.38314,3.17748,4.099,4.099,0,0,1-1.67472,3.641,8.17937,8.17937,0,0,1-4.32887,1.32333.655.655,0,0,0-.63548.69531l.17195,9.30815a.65567.65567,0,0,0,.68783.6355,13.65444,13.65444,0,0,0,13.52487-11.90995.79469.79469,0,0,1,.75512-.68784l3.58121-.05981a2.47751,2.47751,0,0,0,2.42984-2.542A2.54093,2.54093,0,0,0,425.55249,380.363Zm17.45.97941a44.30659,44.30659,0,0,0-7.74558-24.26849l-7.05028,4.79239a36.31968,36.31968,0,0,1,.86727,39.5877l7.282,4.50829A44.71461,44.71461,0,0,0,443.00248,381.3424Z" transform="translate(-308.53097 -309.63248)"/>
</svg>
