<svg id="Layer_3" data-name="Layer 3" xmlns="http://www.w3.org/2000/svg" xmlns:xlink="http://www.w3.org/1999/xlink" viewBox="0 0 258.05888 272.2078">
  <defs>
    <style>
      .cls-1 {
        fill: none;
      }

      .cls-2 {
        clip-path: url(#clip-path);
      }

      .cls-3 {
        fill: #1a1c5b;
      }

      .cls-3, .cls-4, .cls-5, .cls-7, .cls-8 {
        fill-rule: evenodd;
      }

      .cls-4 {
        fill: #07bf9b;
      }

      .cls-5 {
        fill: #262c69;
      }

      .cls-6 {
        clip-path: url(#clip-path-2);
      }

      .cls-7 {
        fill: #3c3c8d;
      }

      .cls-8 {
        fill: #474b9b;
      }
    </style>
    <clipPath id="clip-path" transform="translate(-616.81248 -53.08203)">
      <rect class="cls-1" x="616" y="50.5" width="261" height="278"/>
    </clipPath>
    <clipPath id="clip-path-2" transform="translate(-616.81248 -53.08203)">
      <rect class="cls-1" x="616.43748" y="52.5" width="238.56252" height="250"/>
    </clipPath>
  </defs>
  <g class="cls-2">
    <g id="surface5">
      <path class="cls-3" d="M730.80078,73.457l125.96484,62.5625a3.00419,3.00419,0,0,1,1.35157,4.03906l-91.73828,183.5586a3.025,3.025,0,0,1-4.05469,1.34765L618.30078,253.47266l-1.21484-1.34766Z" transform="translate(-616.81248 -53.08203)"/>
      <path class="cls-3" d="M691.39453,53.39844l181.22266,71.80468a3.03438,3.03438,0,0,1,2.16015,3.67969L822.80859,322.09375a3.04858,3.04858,0,0,1-3.69531,2.15234l-201.98437-72.168Z" transform="translate(-616.81248 -53.08203)"/>
      <path class="cls-4" d="M691.66406,53.44141l160.59766,77.77734a3.03034,3.03034,0,0,1,1.39453,4.03906l-89.93359,184.457a3.05362,3.05362,0,0,1-4.05469,1.39063L617.21875,252.125Z" transform="translate(-616.81248 -53.08203)"/>
      <path class="cls-5" d="M688.10547,62.86719l112.81641,54.66406a5.03019,5.03019,0,0,1,2.5664,6.19141,40.13416,40.13416,0,0,0,16.48047,47.4375,5.032,5.032,0,0,1,1.84766,6.46484L777.5,268.55078a5.06342,5.06342,0,0,1-6.21484,2.5586,40.4134,40.4134,0,0,0-47.60157,16.42578,5.07042,5.07042,0,0,1-6.48437,1.83984l-96.37891-46.67578Z" transform="translate(-616.81248 -53.08203)"/>
      <path class="cls-5" d="M758.63281,281.69922l8.19531,8.168-1.9375,3.94922-4.36718-3.94922-8.0625,16.51562-5.22266-2.51172,10.89844-22.39453Zm-24.18359,4.625,1.98047-4.08594c1.48437-3.00781,3.28515-4.98047,5.44922-5.96875a8.82226,8.82226,0,0,1,11.52734,5.56641c.543,2.28906.08984,4.9375-1.35156,7.98828l-1.98047,4.082c-1.44141,3.00781-3.28516,4.98437-5.44922,5.97266a8.00738,8.00738,0,0,1-6.98047-.3164,7.79933,7.79933,0,0,1-4.54687-5.25C732.51172,291.97656,732.96094,289.332,734.44922,286.32422Zm3.6914,7.13672a2.302,2.302,0,0,0,1.39454,2.0625,2.41642,2.41642,0,0,0,2.57031-.17969,8.97393,8.97393,0,0,0,2.42969-3.36719l2.793-5.69922a8.83749,8.83749,0,0,0,.99219-3.67968,2.28662,2.28662,0,0,0-1.39843-2.0625,2.33161,2.33161,0,0,0-2.56641.22265,8.78284,8.78284,0,0,0-2.38672,3.27735l-2.70313,5.51953A8.55532,8.55532,0,0,0,738.14062,293.46094Z" transform="translate(-616.81248 -53.08203)"/>
      <g class="cls-6">
        <path class="cls-3" d="M691.43748,53.26172l.40627.13672,160.64453,77.77344a3.048,3.048,0,0,1,1.39453,4.03906L772.32422,302.39062,621.04688,254.41406l-4.2344-2.0664Z" transform="translate(-616.81248 -53.08203)"/>
      </g>
      <path class="cls-4" d="M691.39453,53.082,863.87891,99.12891a3.03679,3.03679,0,0,1,2.16406,3.67968L812.76562,300.86328a3.05283,3.05283,0,0,1-3.69531,2.15625l-191.9414-51.25391Z" transform="translate(-616.81248 -53.08203)"/>
      <path class="cls-5" d="M687.56641,62.23828,810.55859,95.08984a5.08019,5.08019,0,0,1,3.69141,5.60938,40.24166,40.24166,0,0,0,25.17578,43.48829,5.00554,5.00554,0,0,1,3.01953,5.96874l-26.25783,97.61719a5.10193,5.10193,0,0,1-5.62889,3.67968A40.4217,40.4217,0,0,0,766.918,276.53906a5.02522,5.02522,0,0,1-5.98828,3.00782L620.32812,242.02734Z" transform="translate(-616.81248 -53.08203)"/>
      <path class="cls-7" d="M770.51953,204.05859A20.12374,20.12374,0,1,1,795.24609,189.832,20.12006,20.12006,0,0,1,770.51953,204.05859Zm4.55078-94.51562a2.03465,2.03465,0,0,1-2.47656,1.43359l-93.85547-25.043,3.5586-9.46875L775.25,101.28516a2.025,2.025,0,0,1,1.44141,2.46875Zm-36.66015,97.38672a.9949.9949,0,0,1,1.21484-.71875l56.52344,15.125a.99193.99193,0,0,1,.71875,1.21484l-.76563,2.91406a.99191.99191,0,0,1-1.21484.71875l-56.51953-15.07812a.99206.99206,0,0,1-.72266-1.21094Zm7.11718,12.34375a.99314.99314,0,0,1,1.21485-.71875l37.01953,9.875a.98614.98614,0,0,1,.71875,1.21093l-.76563,2.918a.986.986,0,0,1-1.21484.71485l-37.01953-9.8711a.9879.9879,0,0,1-.71875-1.21093Z" transform="translate(-616.81248 -53.08203)"/>
      <path class="cls-7" d="M682.11719,222.10156l29.22656,7.8086-6.80078,5.96875,2.88281,8.57031-19.457-5.20313,2.61328-9.69531Z" transform="translate(-616.81248 -53.08203)"/>
      <path class="cls-4" d="M673.332,100.25c1.57813.31641,3.15625.67578,4.6875,1.07812a65.34612,65.34612,0,1,1-33.957,126.20313,66.40585,66.40585,0,0,1-15.89842-6.55469Z" transform="translate(-616.81248 -53.08203)"/>
      <path class="cls-5" d="M644.46484,206.75a1.64218,1.64218,0,0,0-.94531-1.92969,31.4404,31.4404,0,0,1-7.83594-4.57812l15.8086-42.23047c2.92578-.582,5.94529-1.1211,9.09765-1.52734a24.15469,24.15469,0,0,0,8.8711-2.64454,9.45214,9.45214,0,0,0,4.14453-5.97265,9.75039,9.75039,0,0,0-.31641-6.95313,7.48088,7.48088,0,0,0-5.13281-3.85937,7.59252,7.59252,0,0,0-7.25391,1.43359,15.00749,15.00749,0,0,0-4.32031,7.22656,1.14976,1.14976,0,0,1-.67578.76172l9.32031-24.99609a1.48666,1.48666,0,0,0,1.39844-1.07813l1.71094-6.418a4.63568,4.63568,0,0,1,8.96094,2.3789l-1.6211,6.10547a1.49252,1.49252,0,0,0,.85547,1.75c6.35156,2.55469,10.98828,6.32813,13.96094,11.26172a21.263,21.263,0,0,1,2.207,17.32422,24.13122,24.13122,0,0,1-4.41406,9.15625,21.57881,21.57881,0,0,1-7.07032,5.60937,36.33819,36.33819,0,0,1-9.5039,3.1875c-3.51172.71875-7.33985,1.30078-11.39063,1.83985-4.10156.49218-7.07422,1.4375-9.00783,2.6914a10.4304,10.4304,0,0,0-4.05467,6.375,9.07715,9.07715,0,0,0,.4961,6.86719,8.28589,8.28589,0,0,0,5.40234,3.85937c3.51563.94141,6.48828.53907,8.96484-1.168,2.207-1.52735,3.8711-3.99219,4.9961-7.44922a1.71917,1.71917,0,0,1,2.07422-1.1211l15.71484,4.17188a1.686,1.686,0,0,1,1.17187,2.15625Q682.83789,199.27539,675,204.23828c-5.31252,3.36719-11.89062,4.53125-19.67969,3.54688a1.66212,1.66212,0,0,0-1.80078,1.21093l-1.48828,5.47266a4.63519,4.63519,0,0,1-8.96094-2.375Z" transform="translate(-616.81248 -53.08203)"/>
      <path class="cls-8" d="M630.68359,213.48438l59.89844,16.0664-3.918,14.53906-61.02344-16.28906Z" transform="translate(-616.81248 -53.08203)"/>
      <path class="cls-5" d="M843.34375,104.06641l9.59373,6.46093-1.125,4.21875-5.04686-3.05078-4.77343,17.72657-5.582-1.48047,6.39453-24.01172Zm-21.707,4.71093c.85547-3.23046,2.25-5.51953,4.23437-6.91015a7.773,7.773,0,0,1,6.89063-.98828,7.919,7.919,0,0,1,5.49219,4.3086c.99218,2.15624,1.03515,4.84765.17968,8.07811l-1.168,4.39844c-.85546,3.23047-2.2539,5.51953-4.1914,6.91406a8.88714,8.88714,0,0,1-12.38281-3.27734c-.99219-2.15625-1.03516-4.84766-.17969-8.07812Zm3.82812,10.6836a2.21317,2.21317,0,0,0,1.75782,1.75,2.31492,2.31492,0,0,0,2.47656-.67578,9.127,9.127,0,0,0,1.7539-3.76954l1.668-6.14843a8.13287,8.13287,0,0,0,.26953-3.76953,2.31966,2.31966,0,0,0-1.7539-1.75,2.26335,2.26335,0,0,0-2.48047.71875,8.82442,8.82442,0,0,0-1.71094,3.67968l-1.57422,5.92579A7.96985,7.96985,0,0,0,825.46484,119.46094ZM800.24609,264.28906l9.58985,6.46094-1.125,4.21875-5.043-3.05078-4.77344,17.72656-5.58594-1.48047L799.75,264.19922Zm-22.8789,9.0625L778.53906,269c.85547-3.23047,2.25-5.51953,4.23047-6.91016a7.76083,7.76083,0,0,1,6.89063-.98828,7.91606,7.91606,0,0,1,5.49609,4.3086c.99219,2.15235,1.03516,4.84765.17969,8.07812l-1.17188,4.39844c-.85547,3.23047-2.25,5.51953-4.1875,6.91016a8.87866,8.87866,0,0,1-12.38281-3.27735C776.55469,279.27734,776.51172,276.58594,777.36719,273.35156Zm5.043,6.32813a2.20322,2.20322,0,0,0,1.75781,1.75,2.31332,2.31332,0,0,0,2.47656-.67188,9.19919,9.19919,0,0,0,1.75781-3.76953l1.66407-6.14844a8.13521,8.13521,0,0,0,.26953-3.76953,2.3197,2.3197,0,0,0-1.75391-1.75,2.24908,2.24908,0,0,0-2.47656.71875,8.77334,8.77334,0,0,0-1.71485,3.67969l-1.57421,5.92187A7.55679,7.55679,0,0,0,782.41016,279.67969Z" transform="translate(-616.81248 -53.08203)"/>
    </g>
  </g>
</svg>
