<svg id="Layer_4" data-name="Layer 4" xmlns="http://www.w3.org/2000/svg" xmlns:xlink="http://www.w3.org/1999/xlink" viewBox="0 0 143.51174 139.58431">
  <defs>
    <style>
      .cls-1 {
        fill: none;
      }

      .cls-2 {
        clip-path: url(#clip-path);
      }

      .cls-3 {
        fill: #1a1c5b;
      }

      .cls-3, .cls-7, .cls-8 {
        fill-rule: evenodd;
      }

      .cls-4 {
        fill: #7575a9;
      }

      .cls-5 {
        clip-path: url(#clip-path-2);
      }

      .cls-6, .cls-7 {
        fill: #c7c7e4;
      }

      .cls-8 {
        fill: #474988;
      }
    </style>
    <clipPath id="clip-path" transform="translate(-109.83028 -301.84501)">
      <rect class="cls-1" x="109.15625" y="304.55694" width="141.82506" height="137.7127"/>
    </clipPath>
    <clipPath id="clip-path-2" transform="translate(-109.83028 -301.84501)">
      <rect class="cls-1" x="123.5117" y="301.14258" width="130.4883" height="130.88398"/>
    </clipPath>
  </defs>
  <g class="cls-2">
    <path class="cls-3" d="M241.72518,337.598a64.45868,64.45868,0,0,0-88.31112-23.80719l-11.21227,6.49085a64.83708,64.83708,0,0,0,64.60617,112.434l11.20784-6.49529A64.94142,64.94142,0,0,0,241.72518,337.598Z" transform="translate(-109.83028 -301.84501)"/>
  </g>
  <path class="cls-4" d="M231.44208,324.07839q2.24735,2.254,4.26351,4.72143,2.01393,2.46741,3.77891,5.12155,1.76721,2.64745,3.26321,5.46387,1.50045,2.81418,2.71193,5.76174,1.22037,2.94756,2.13843,5.99737.92694,3.05426,1.54268,6.18409.62019,3.1276.93362,6.30412.30676,3.1743.31121,6.36192,0,3.19431-.31121,6.36637-.31342,3.1743-.93362,6.30413-.62017,3.1276-1.54268,6.17964-.92028,3.05425-2.134,6.00181-1.22039,2.94756-2.71638,5.76175-1.49378,2.8075-3.26321,5.46387a63.51861,63.51861,0,0,1-3.77891,5.1171q-2.01395,2.46741-4.25907,4.72142-2.24735,2.2607-4.70364,4.2813a63.43988,63.43988,0,0,1-5.09932,3.7967q-2.6408,1.77387-5.44164,3.27655-2.80085,1.50045-5.73507,2.72526-2.93421,1.22037-5.97514,2.14732t-6.15741,1.54713q-3.11427.62019-6.27745.93362-3.161.31342-6.33525.31565-3.181,0-6.33969-.31565c-2.10731-.20451-4.20127-.52016-6.27745-.93362s-4.13014-.92917-6.15742-1.54713-4.019-1.33374-5.97514-2.14732-3.86783-1.72052-5.73506-2.72526q-2.80085-1.50047-5.44165-3.27655a63.4415,63.4415,0,0,1-5.09931-3.7967q-2.45407-2.02062-4.70365-4.27685-2.24734-2.254-4.25906-4.72143-2.01395-2.46741-3.78337-5.12154-1.76052-2.64747-3.25876-5.46387-1.50045-2.81419-2.71637-5.76175-1.21371-2.94755-2.13843-5.99736-.92028-3.05425-1.54269-6.18409-.61351-3.12762-.92917-6.30413-.31343-3.17429-.3112-6.36192,0-3.1943.3112-6.36637.31344-3.17429.92917-6.30412.62019-3.12762,1.54269-6.17964.92028-3.05427,2.13843-6.00182,1.2137-2.94754,2.71193-5.76174,1.50045-2.80752,3.2632-5.46387,1.76721-2.65414,3.77892-5.1171,2.02062-2.46742,4.26351-4.72143a63.01485,63.01485,0,0,1,4.70365-4.28129q2.45408-2.02728,5.09487-3.79671,2.64079-1.77385,5.44164-3.27654,2.80752-1.50045,5.73951-2.72527,2.93423-1.22037,5.97514-2.14731t6.153-1.54714q3.12095-.62019,6.27745-.93361,3.16095-.31342,6.33969-.31565,3.1743,0,6.3397.31565c2.1073.2045,4.19682.52015,6.27745.93361q3.11427.62019,6.153,1.54714,3.04092.92694,5.97514,2.14731t5.73951,2.72527q2.80085,1.50045,5.44164,3.27654,2.64079,1.77387,5.09932,3.79671Q229.197,321.82215,231.44208,324.07839Z" transform="translate(-109.83028 -301.84501)"/>
  <g class="cls-5">
    <path class="cls-6" d="M234.39852,320.86409q2.24735,2.254,4.26351,4.72143,2.01395,2.46741,3.77892,5.1171,1.76721,2.65413,3.26321,5.46832a63.5015,63.5015,0,0,1,2.71193,5.75729q1.22037,2.94756,2.13842,6.00181.92028,3.05425,1.54269,6.17965.62019,3.13428.92917,6.30412.31343,3.1743.31565,6.36637,0,3.18764-.3112,6.36637-.31343,3.17428-.93362,6.29968-.62019,3.13428-1.54269,6.18409-.92026,3.05426-2.13842,5.99736-1.2137,2.94756-2.71193,5.76175-1.49379,2.81418-3.26321,5.46831-1.76052,2.64747-3.77892,5.1171-2.01393,2.46743-4.26351,4.72143-2.24067,2.254-4.69919,4.28129-2.45408,2.02062-5.09932,3.79671-2.64079,1.7672-5.44164,3.27654-2.80084,1.50045-5.73507,2.72082t-5.97514,2.14732q-3.04092.92694-6.15741,1.55158-3.11428.62019-6.27745.93361-3.161.31344-6.3397.31121-3.17428,0-6.33525-.31121-3.16095-.31342-6.27745-.93361-3.11427-.62687-6.15741-1.55158a63.29761,63.29761,0,0,1-5.97514-2.14287q-2.93422-1.22037-5.73506-2.72527-2.80084-1.50713-5.4461-3.27654-2.64079-1.77387-5.09487-3.79671-2.45408-2.0206-4.70364-4.28129-2.24735-2.254-4.25906-4.72143a63.56742,63.56742,0,0,1-3.78337-5.1171q-1.76054-2.65413-3.26321-5.46387-1.49378-2.81418-2.71193-5.76174-1.21369-2.94756-2.13842-6.00181-.92028-3.0476-1.54269-6.17965-.62019-3.12761-.92917-6.30412-.31342-3.1743-.31121-6.36637,0-3.18763.31121-6.36192.31344-3.1743.92917-6.30413.62019-3.1276,1.54269-6.18409.92028-3.04758,2.13842-5.99736,1.21371-2.94756,2.71193-5.76174,1.50046-2.81419,3.26321-5.46388,1.76721-2.65413,3.77892-5.12154,2.02062-2.46742,4.26351-4.72143,2.24735-2.254,4.70364-4.27685a63.09878,63.09878,0,0,1,5.09487-3.7967q2.64081-1.77387,5.44165-3.27654,2.80085-1.50712,5.73951-2.72527,2.93422-1.22037,5.97514-2.14732t6.153-1.54713q3.12095-.62687,6.27745-.93806,3.161-.31342,6.33969-.31121,3.1743,0,6.3397.31121,3.161.31342,6.27745.93806,3.11427.62019,6.153,1.54713,3.04092.927,5.97513,2.14732t5.73952,2.72527q2.80085,1.50045,5.44164,3.27209,2.64079,1.77387,5.09487,3.79671Q232.15563,318.61008,234.39852,320.86409Z" transform="translate(-109.83028 -301.84501)"/>
  </g>
  <path class="cls-4" d="M241.454,339.18073q1.34707,2.60079,2.43629,5.32606,1.09367,2.72082,1.91169,5.53945.81357,2.82085,1.356,5.70394.54017,2.88087.7958,5.8062.25341,2.92755.22229,5.85955a58.43607,58.43607,0,0,1-.34677,5.85065q-.3201,2.92089-.92028,5.79286c-.40012,1.91169-.8936,3.8056-1.476,5.66838q-.88027,2.80085-2.02728,5.49944-1.147,2.70083-2.55188,5.27271-1.40709,2.5741-3.05426,4.99706-1.64717,2.42073-3.53,4.67252-1.87391,2.24734-3.96565,4.29908a58.39322,58.39322,0,0,1-4.36576,3.89006q-2.28069,1.84056-4.72587,3.44549-2.4474,1.60049-5.04152,2.96089-2.58746,1.35375-5.30383,2.44963-2.70748,1.09366-5.51722,1.91614-2.80752.82024-5.67727,1.36041c-1.91613.36455-3.84116.62685-5.784.80024q-2.91422.25341-5.83287.22673-2.92755-.03334-5.82843-.35121-2.90754-.3201-5.76618-.92473a57.61434,57.61434,0,0,1-5.64616-1.48489q-2.7875-.88026-5.4772-2.03173-2.68749-1.15368-5.25048-2.56521a57.02654,57.02654,0,0,1-4.97483-3.0676q-2.41407-1.65382-4.65474-3.53884-2.24068-1.88724-4.2813-3.98343-2.04727-2.10063-3.87672-4.388-1.82722-2.28736-3.42771-4.74366-1.59381-2.46073-2.94755-5.06375-1.34708-2.60079-2.44074-5.32605-1.087-2.72082-1.90724-5.53945-.82024-2.81418-1.356-5.6995-.54017-2.88754-.79579-5.81065-.25341-2.92087-.22674-5.85954.03334-2.93423.35122-5.85066.31342-2.92087.91583-5.78841.60018-2.87421,1.48045-5.67283.88026-2.80084,2.02728-5.49944,1.147-2.70081,2.55188-5.2727,1.40042-2.5741,3.05425-4.99707,1.64717-2.42073,3.52551-4.66807,1.88058-2.254,3.97009-4.30352a58.39128,58.39128,0,0,1,4.36577-3.89007q2.28067-1.84056,4.72587-3.441,2.4474-1.60714,5.03707-2.96089,2.59413-1.36041,5.30827-2.44963,2.70749-1.09366,5.51723-1.91613a57.63639,57.63639,0,0,1,5.67727-1.36486q2.8742-.54016,5.784-.80024,2.90754-.25341,5.83287-.22229c1.94725.01778,3.89006.13782,5.82842.34677q2.90756.3201,5.76619.92472,2.86086.60018,5.64615,1.4849,2.78751.88026,5.47721,2.03172,2.68748,1.15368,5.25048,2.56522A59.68307,59.68307,0,0,1,231.202,324.98978q2.04729,2.094,3.87673,4.38355,1.82722,2.28735,3.4277,4.7481Q240.10024,336.57551,241.454,339.18073Z" transform="translate(-109.83028 -301.84501)"/>
  <path class="cls-7" d="M239.81794,359.05785l-4.31241,4.76144-5.9129-3.21431a40.30321,40.30321,0,0,1-.12,13.04839l3.13873-4.268,7.0199,6.37081A50.63013,50.63013,0,0,0,239.81794,359.05785Zm-32.51649,44.77352a40.77747,40.77747,0,0,1-12.43931,4.08568l4.92593,4.51247-3.38769,5.75285a51.1977,51.1977,0,0,0,15.76476-5.07264l-8.1269-4.88592Z" transform="translate(-109.83028 -301.84501)"/>
  <path class="cls-8" d="M188.82476,413.91442a31.78776,31.78776,0,0,1-4.86369-.18673c1.90724-1.0492,5.17045-3.77,4.677-4.82368-.86249-1.79165-4.98818,2.65858-5.90845,4.6992a48.87835,48.87835,0,0,1-6.71314-1.23593c2.094-.6802,5.78841-2.78306,5.47721-3.95675-.489-1.91613-5.35718,1.72941-6.6509,3.58775-.24452-.06224-.489-.12448-.738-.18672-1.90724-.618-3.81893-1.36041-5.66393-2.1651,2.1562-.30676,6.15741-1.72941,6.03293-2.90754-.18228-1.97838-5.60169.74244-7.14438,2.41406a43.24762,43.24762,0,0,1-5.85066-3.46327c2.15621.06224,6.34414-.618,6.46862-1.7961.18228-1.97837-5.60613-.24452-7.45114,1.11589-.06224,0-.06224-.06224-.12448-.06224a49.8915,49.8915,0,0,1-5.11265-4.39243c2.1562.43568,6.40638.49792,6.71313-.68021.49349-1.91613-5.54389-1.17369-7.57562-.18672a44.47777,44.47777,0,0,1-4.37021-5.31716c1.96949.80468,6.2819,1.60937,6.77538.55572.858-1.85389-5.29937-2.1651-7.45558-1.48489a48.22911,48.22911,0,0,1-3.38769-5.99737c1.78721,1.17369,5.9129,2.72082,6.5931,1.73386,1.16924-1.67162-4.86814-3.032-7.08214-2.78307a45.83062,45.83062,0,0,1-2.28069-6.55753c1.60049,1.48489,5.35718,3.71223,6.21966,2.8453,1.41821-1.42265-4.308-3.83227-6.52642-3.95675-.30675-1.36041-.618-2.72082-.80024-4.08123-.12448-.92917-.249-1.85834-.3112-2.78306,1.29372,1.72941,4.68141,4.637,5.66838,3.95675,1.66272-1.17369-3.57442-4.57472-5.72618-5.07265a44.13707,44.13707,0,0,1,.0578-6.98877c.92472,1.92058,3.81893,5.44608,4.93038,4.88592,1.845-.86249-2.77418-5.13044-4.8059-5.99737a44.82623,44.82623,0,0,1,1.29372-6.92654c.618,2.04062,2.832,6.05961,4.00566,5.75285,1.96948-.56017-1.84945-5.50388-3.6989-6.74426h-.05779a49.04232,49.04232,0,0,1,2.463-6.55309c.24452,2.10286,1.72052,6.43305,2.95645,6.37081,2.03173-.18672-.86248-5.75284-2.46741-7.23773h-.05779a44.80966,44.80966,0,0,1,3.57-5.99737c-.12448,2.10285.618,6.61533,1.78721,6.73981,2.03172.18672.18228-5.81509-1.16924-7.60674h.05779c2.094.74244,8.31807.74244,7.57562-1.11145-.43124-1.11589-4.98817-.49793-6.95765.24452a46.84235,46.84235,0,0,1,4.68141-5.19268h.06224c1.90724,1.11145,8.06466,2.22734,7.63342.18672-.24452-1.17813-4.86369-1.36041-6.89542-.99141a41.46746,41.46746,0,0,1,5.5439-4.3302l.05779.06225c1.66273,1.42265,7.57563,3.58775,7.51338,1.54713-.05779-1.23593-4.55693-2.1651-6.65089-2.1651a45.84046,45.84046,0,0,1,6.2241-3.27654v.06224c1.41376,1.66717,6.83317,4.82368,7.08214,2.8453.18228-1.24037-4.0679-2.90754-6.16186-3.281a42.3328,42.3328,0,0,1,6.65089-2.10286c1.11145,1.92058,5.9129,5.93957,6.53087,4.02345.369-1.17814-3.44993-3.52552-5.41942-4.268.92473-.18673,1.845-.37345,2.76973-.49793,1.356-.18228,2.71193-.369,4.06345-.43125.74244,2.10286,4.74365,6.8643,5.73062,5.07265.55127-1.05365-2.77418-4.08123-4.61918-5.13489a50.71775,50.71775,0,0,1,6.89542.249c.369,2.1651,3.51217,7.60674,4.74365,5.99736.738-.92916-2.03172-4.51247-3.6322-5.87288a42.41775,42.41775,0,0,1,6.77093,1.48045c0,2.22734,2.15621,8.10467,3.63665,6.74426.92028-.80469-1.17368-4.76144-2.58744-6.43306a48.50642,48.50642,0,0,1,6.40638,2.65858c-.37345,2.22734.738,8.34919,2.40072,7.23774.98252-.618-.30676-4.82367-1.41821-6.74425a47.66391,47.66391,0,0,1,5.73062,3.65l.0578.06224c-.55128,1.91613-.489,8.10022,1.356,7.3,1.107-.43569.49349-4.76588-.18227-6.8065a44.99015,44.99015,0,0,1,5.046,4.6414c-1.107,1.97838-2.15177,8.038-.18229,7.60674,1.16925-.249,1.356-4.57916.987-6.74426a41.39645,41.39645,0,0,1,3.75669,4.82368c.12.18673.30676.43569.43124.62241-1.4182,1.72942-3.51217,7.5445-1.48044,7.48226,1.16924-.06224,2.094-4.33019,2.1562-6.49529a48.33466,48.33466,0,0,1,3.201,6.12185c-1.66272,1.48489-4.73921,6.80205-2.76972,7.051,1.16924.18672,2.832-3.83227,3.201-5.93513a36.98229,36.98229,0,0,1,1.60049,4.637.50894.50894,0,1,0,.987-.249,33.97429,33.97429,0,0,0-1.66272-4.76144c1.84944,1.17814,5.85065,2.65858,6.52641,1.73386,1.17369-1.60937-4.73921-3.032-7.0199-2.78306a46.264,46.264,0,0,0-3.2632-6.24633c2.03172.80468,6.21965,1.60493,6.71313.49348.86248-1.79165-5.17489-2.1651-7.3889-1.54713-.12448-.24452-.3112-.43125-.43124-.68021a42.6308,42.6308,0,0,0-3.88117-4.88592c2.15621.43569,6.40638.49793,6.71314-.68021.49348-1.91613-5.48165-1.17368-7.51338-.24451a53.35688,53.35688,0,0,0-5.1749-4.76144c2.15621.05779,6.40638-.62241,6.53087-1.7961.18227-1.97837-5.60614-.249-7.45559,1.11589-.05779,0-.05779-.06224-.12-.06224a57.49933,57.49933,0,0,0-5.78841-3.71223c2.15176-.31121,6.15741-1.73386,6.03293-2.90755-.18227-1.97837-5.48165.74245-7.14438,2.35183a48.89359,48.89359,0,0,0-6.46417-2.65858c2.094-.68021,5.72617-2.78307,5.41941-3.899-.49348-1.91613-5.29938,1.67162-6.58865,3.52551-.80469-.24452-1.60493-.49348-2.46742-.68021-1.41376-.369-2.8942-.618-4.3702-.86692,1.90724-1.04921,5.11265-3.70779,4.61917-4.82368-.86248-1.79166-4.86814,2.53854-5.9129,4.6414a51.63518,51.63518,0,0,0-6.95766-.31121c1.72052-1.36041,4.37021-4.57471,3.75669-5.50388-1.11144-1.60938-4.37465,3.33878-4.98817,5.56612-1.4182.06225-2.83641.249-4.25017.43125-.92473.12448-1.78721.3112-2.64969.49792,1.476-1.67161,3.51217-5.25936,2.71193-6.064-1.41821-1.42265-3.6989,4.02344-3.94341,6.37081a45.19957,45.19957,0,0,0-6.58866,2.10286c1.107-1.91613,2.52521-5.75285,1.60048-6.433-1.60048-1.11145-2.95645,4.57916-2.76972,6.92653a42.57861,42.57861,0,0,0-5.29938,2.72528c-.30676.18227-.55128.369-.80024.49347.80024-2.10285,1.53824-6.12185.49348-6.61977-1.78721-.80025-2.094,5.0104-1.53824,7.3a51.76339,51.76339,0,0,0-5.48166,4.26795c.43124-2.16509.43124-6.30857-.6802-6.55753-1.90725-.49348-1.23149,5.31716-.24452,7.48226a62.548,62.548,0,0,0-4.68142,5.13488c.06225-2.22734-.67576-6.30857-1.845-6.37081-1.97393-.18672-.249,5.44164,1.04476,7.42l-.06224.06224-.06224.06224c-2.214-.68021-8.06466-.618-7.32666,1.17813.43124,1.04921,4.49469.55573,6.58866-.12448a38.69929,38.69929,0,0,0-3.50773,5.99737c-2.34293-.249-8.0691.80469-7.02434,2.47186.618.99141,4.49914-.24452,6.46862-1.29817a40.69935,40.69935,0,0,0-2.40072,6.49529c-2.34293.12448-7.82459,2.1651-6.53087,3.65.80025.86248,4.4369-1.05365,6.15742-2.41406-.0578.3112-.18228.618-.24452.92917a49.41716,49.41716,0,0,0-1.04476,5.93513c-2.28069.55572-7.3311,3.5255-5.79286,4.69919.92472.74245,4.18793-1.79165,5.66838-3.46327a52.29335,52.29335,0,0,0-.06224,6.98878c-2.15621.86693-6.6509,4.76589-4.92593,5.69061,1.04476.55572,3.87672-2.5341,4.98817-4.45023.06224.92472.18228,1.79165.30676,2.72082.18672,1.42265.49348,2.8453.80024,4.20571-1.96948,1.23593-5.72617,5.87289-3.88117,6.42861,1.11144.37345,3.38769-3.2143,4.18793-5.25492a49.70334,49.70334,0,0,0,2.34293,6.61533c-1.725,1.54714-4.68141,6.74426-2.71193,7.051,1.17369.18672,2.77417-3.77,3.20541-5.93513.61352,1.36042,1.35152,2.65859,2.094,3.95675.43124.74245.86248,1.42266,1.35152,2.1651-1.41376,1.79166-3.44549,7.48226-1.476,7.42,1.16924-.06224,2.094-4.268,2.1562-6.43305a53.50568,53.50568,0,0,0,4.43245,5.44609c-1.107,1.97837-2.094,8.038-.18228,7.60674,1.16925-.249,1.35152-4.57916.98252-6.74426a45.4709,45.4709,0,0,0,5.23714,4.51692l.06224.06224c-.74244,2.1651-.6802,8.28695,1.16924,7.48226,1.107-.43124.49349-4.82368-.18672-6.86429a47.26774,47.26774,0,0,0,6.09962,3.65c-.369,2.22289.738,8.28694,2.40073,7.17105.987-.618-.30676-4.82368-1.356-6.67757a52.93605,52.93605,0,0,0,5.85066,2.28958c.249.05779.49348.12.738.18228.06224,2.28958,2.1562,8.04243,3.63665,6.682.86248-.80468-1.16924-4.6414-2.52521-6.37081a43.93105,43.93105,0,0,0,6.89542,1.29817c.43124,2.22734,3.51217,7.5445,4.74366,5.93513.738-.92473-1.96949-4.388-3.57442-5.81065,1.66717.12449,3.38769.18673,5.11266.18673a.50508.50508,0,0,0,.49348-.56017C189.31824,414.10114,189.06928,413.91442,188.82476,413.91442Zm19.58369-25.47881,3.51217,2.59634a3.08694,3.08694,0,0,0,4.25018-.618,3.1209,3.1209,0,0,0-.618-4.268l-3.32545-2.47186a.96335.96335,0,0,1-.24451-1.24037,18.54547,18.54547,0,0,0,2.5252-11.50125,14.12367,14.12367,0,0,0-5.97514-9.83409,15.65366,15.65366,0,0,0-5.97513-2.90754,13.67077,13.67077,0,0,0-5.9129,0,25.7955,25.7955,0,0,0-6.15742,2.22734c-2.094,1.05365-4.25017,2.28958-6.58865,3.71223a13.64523,13.64523,0,0,1-5.66838,2.28958,7.09133,7.09133,0,0,1-4.68142-1.60937,5.6829,5.6829,0,0,1-2.52076-3.71224,5.29638,5.29638,0,0,1,1.16925-4.20571,6.6582,6.6582,0,0,1,5.05041-3.02758,9.30133,9.30133,0,0,1,5.60169,1.79165,1.12291,1.12291,0,0,0,1.48044-.249l6.28191-8.53147a1.13573,1.13573,0,0,0-.31121-1.60937,17.50351,17.50351,0,0,0-11.88359-3.33879c-4.06345.43124-7.94462,2.5341-11.519,6.18409a1.11661,1.11661,0,0,1-1.41376.12448l-3.01869-2.22734a3.0863,3.0863,0,0,0-4.25018.618,3.12091,3.12091,0,0,0,.618,4.26795l2.95645,2.1651a1.07167,1.07167,0,0,1,.30676,1.36042,17.42886,17.42886,0,0,0-2.34293,11.13224,14.32184,14.32184,0,0,0,6.09962,9.64736,15.47388,15.47388,0,0,0,6.03293,2.90755,16.26407,16.26407,0,0,0,5.97514,0,25.5248,25.5248,0,0,0,6.15741-2.1651q3.141-1.58047,6.46862-3.52551a16.94106,16.94106,0,0,1,5.60614-2.28958,6.28,6.28,0,0,1,4.55693,1.36041,6.62846,6.62846,0,0,1,2.70749,3.71223,5.54023,5.54023,0,0,1-5.35718,6.30857,9.40275,9.40275,0,0,1-5.17489-1.97837.784.784,0,0,0-1.107.18228l-6.6509,9.09163a.88086.88086,0,0,0,.18672,1.17813,17.60849,17.60849,0,0,0,11.27007,3.401,16.60414,16.60414,0,0,0,10.52763-4.82368A1.04022,1.04022,0,0,1,208.40845,388.43561Zm23.27814-18.121a44.49,44.49,0,0,1-8.4959,23.62491,43.74332,43.74332,0,0,1-19.95713,15.15125l3.63665,9.7096a53.80509,53.80509,0,0,0,24.63411-18.67676,54.94139,54.94139,0,0,0,10.53207-29.12879Z" transform="translate(-109.83028 -301.84501)"/>
  <path class="cls-7" d="M189.68724,413.04749a31.78776,31.78776,0,0,1-4.86369-.18673c1.90724-1.0492,5.17045-3.77,4.677-4.82367-.86248-1.79166-4.98817,2.663-5.9129,4.70364a48.952,48.952,0,0,1-6.70869-1.24038c2.094-.6802,5.78841-2.78306,5.47721-3.95675-.489-1.91613-5.35717,1.73386-6.6509,3.58775-.24452-.06224-.489-.12448-.738-.18672-1.90724-.618-3.81893-1.36041-5.66393-2.1651,2.15176-.30676,6.15741-1.72941,6.03293-2.9031-.18228-1.98282-5.60169.738-7.14438,2.40962a43.24751,43.24751,0,0,1-5.85065-3.46327c2.1562.06224,6.34413-.618,6.46862-1.79165.18227-1.97838-5.60614-.249-7.45114,1.11145a.2173.2173,0,0,0-.12449-.06225,49.89257,49.89257,0,0,1-5.11265-4.39243c2.15621.43568,6.40638.49793,6.71314-.68021.49348-1.91613-5.5439-1.17369-7.57562-.18228a44.51676,44.51676,0,0,1-4.37021-5.3216c1.96948.80468,6.28189,1.60937,6.77093.56017.86248-1.85834-5.29493-2.1651-7.45114-1.4849a48.28307,48.28307,0,0,1-3.38769-6.00181c1.78721,1.17813,5.9129,2.72082,6.5931,1.73386,1.16925-1.67162-4.86813-3.032-7.08213-2.78307a45.82816,45.82816,0,0,1-2.28069-6.55753c1.60048,1.4849,5.35717,3.71223,6.21965,2.8453,1.41821-1.42265-4.31241-3.83227-6.52641-3.95675-.30676-1.36041-.618-2.72082-.80024-4.08123-.12449-.92917-.249-1.85389-.31121-2.78306,1.29372,1.72941,4.68141,4.63695,5.66838,3.95675,1.66272-1.17369-3.57441-4.57472-5.72617-5.0682a44.12673,44.12673,0,0,1,.05779-6.98878c.92472,1.91614,3.81893,5.44165,4.93038,4.88592,1.845-.86693-2.77417-5.13488-4.8059-6.00181a44.925,44.925,0,0,1,1.29373-6.92654c.618,2.04062,2.832,6.05961,4.0012,5.75285,1.97393-.55572-1.845-5.50388-3.69444-6.73981h-.06224a49.50354,49.50354,0,0,1,2.46741-6.55753c.24452,2.10285,1.72052,6.433,2.952,6.37081,2.03617-.18673-.858-5.75285-2.463-7.23775h-.05779a44.80919,44.80919,0,0,1,3.57-5.99736c-.12449,2.10285.618,6.61977,1.7872,6.73981,2.03173.18672.18228-5.81064-1.16924-7.60674h.0578c2.094.74244,8.31362.74244,7.57562-1.11145-.43124-1.11145-4.98818-.49348-6.95766.249a46.8888,46.8888,0,0,1,4.68141-5.19713h.06224c1.90725,1.11145,8.06466,2.22734,7.63342.18672-.24452-1.17368-4.86369-1.36041-6.89541-.99141a42.20519,42.20519,0,0,1,5.54389-4.33019l.0578.06224c1.66272,1.42265,7.57562,3.58775,7.51338,1.54713-.0578-1.23593-4.55693-2.1651-6.6509-2.1651a46.56278,46.56278,0,0,1,6.21966-3.27654v.06224c1.4182,1.67161,6.83762,4.82368,7.08658,2.8453.18228-1.23593-4.06789-2.90754-6.16186-3.27654a41.42028,41.42028,0,0,1,6.6509-2.10286c1.11144,1.91613,5.91289,5.93513,6.53085,4.019.369-1.17813-3.44992-3.52551-5.41941-4.268.92028-.18673,1.845-.37345,2.76973-.49349,1.356-.18672,2.71193-.37344,4.06345-.43568.74245,2.10285,4.74365,6.86429,5.73062,5.07264.55128-1.05365-2.77417-4.08123-4.61917-5.13488a50.71767,50.71767,0,0,1,6.89541.249c.369,2.1651,3.51217,7.60674,4.74366,5.99737.738-.92473-2.03173-4.51248-3.63221-5.87289a42.43048,42.43048,0,0,1,6.77093,1.4849c0,2.22289,2.15621,8.10022,3.63666,6.73981.92027-.80469-1.17369-4.76144-2.58746-6.43306a48.50543,48.50543,0,0,1,6.40639,2.65858c-.37345,2.22734.738,8.34919,2.40072,7.23775.98252-.618-.3112-4.82368-1.4182-6.73982a46.69378,46.69378,0,0,1,5.72617,3.64555l.06224.06224c-.738,2.10286-.738,8.28695,1.11145,7.5445,1.107-.43124.489-4.76144-.18672-6.80205a44.6483,44.6483,0,0,1,5.05041,4.6414c-1.107,1.97837-2.15621,8.038-.18672,7.60674,1.17368-.249,1.356-4.57916.987-6.74426a40.4568,40.4568,0,0,1,3.75669,4.82368c.12448.18672.30676.43569.43124.618-1.4182,1.73386-3.51218,7.54895-1.476,7.48671,1.16924-.06224,2.094-4.3302,2.15176-6.4953a47.79961,47.79961,0,0,1,3.20542,6.12185c-1.66273,1.4849-4.74366,6.80206-2.77418,7.051,1.17369.18672,2.83642-3.83227,3.20541-5.93512a37.451,37.451,0,0,1,1.60049,4.637.54138.54138,0,0,0,.61352.369.55123.55123,0,0,0,.37344-.618,33.97384,33.97384,0,0,0-1.66272-4.76144c1.845,1.17369,5.85066,2.65858,6.52642,1.73386,1.16924-1.60938-4.74366-3.032-7.0199-2.78307a46.26644,46.26644,0,0,0-3.26321-6.24633c2.03172.80024,6.21966,1.60493,6.70869.49349.86249-1.79166-5.17045-2.1651-7.3889-1.54714-.12448-.24452-.30675-.43124-.43124-.6802a42.14954,42.14954,0,0,0-3.88118-4.88592c2.15622.43568,6.40639.49348,6.71315-.68021.49348-1.91613-5.47721-1.17369-7.51338-.24452a54.45045,54.45045,0,0,0-5.17045-4.76588c2.15621.06224,6.40193-.618,6.52641-1.79165.18673-1.97838-5.60169-.249-7.45113,1.11144-.06225,0-.06225-.05779-.12449-.05779a56.24084,56.24084,0,0,0-5.78841-3.71223c2.1562-.31121,6.15741-1.73386,6.03738-2.90755-.18673-1.97837-5.48166.74245-7.14438,2.35182A48.11885,48.11885,0,0,0,202.9268,322.14c2.094-.68465,5.73061-2.78306,5.41941-3.899-.49348-1.91614-5.29493,1.67161-6.58866,3.5255-.80024-.249-1.60048-.49347-2.463-.6802-1.41821-.369-2.89421-.618-4.37466-.86693,1.91169-1.0492,5.11266-3.70779,4.61918-4.82368-.86249-1.79165-4.86369,2.53855-5.9129,4.6414a51.57111,51.57111,0,0,0-6.95766-.3112c1.725-1.36041,4.37466-4.57472,3.75669-5.50389-1.107-1.60937-4.37021,3.33879-4.98817,5.56613-1.41821.06225-2.832.249-4.25017.43124-.92473.12448-1.78721.31121-2.64525.49793,1.476-1.67162,3.50773-5.25937,2.70749-6.06405-1.41821-1.42266-3.69445,4.02343-3.939,6.37081a45.25527,45.25527,0,0,0-6.5931,2.10286c1.11145-1.91614,2.52521-5.75285,1.60048-6.43306-1.60048-1.11144-2.952,4.57917-2.76972,6.92654a43.10451,43.10451,0,0,0-5.29494,2.72082c-.3112.18672-.55572.37345-.80024.49793.80024-2.10286,1.53824-6.12185.489-6.61978-1.78276-.80469-2.094,5.0104-1.53824,7.3a52.22022,52.22022,0,0,0-5.48166,4.268c.43124-2.1651.43124-6.30857-.67576-6.55754-1.91169-.49348-1.23148,5.31716-.249,7.48226a61.01017,61.01017,0,0,0-4.677,5.13489c.06224-2.22734-.68021-6.30857-1.84945-6.37082-1.96948-.18672-.24452,5.44165,1.04921,7.42l-.06224.06224-.06224.06225c-2.21845-.68021-8.06911-.618-7.33111,1.17369.43124,1.05364,4.49914.56016,6.5931-.12a39.08521,39.08521,0,0,0-3.51217,5.99736c-2.33848-.249-8.0691.80469-7.0199,2.47186.61352.99141,4.4947-.24452,6.46418-1.29817a41.579,41.579,0,0,0-2.40073,6.4953c-2.33848.12448-7.82014,2.16509-6.52641,3.65.80024.86248,4.43245-1.05365,6.15741-2.41406-.06224.3112-.18672.618-.24451.92916a49.43486,49.43486,0,0,0-1.04921,5.93513c-2.27624.55572-7.32666,3.52551-5.78842,4.6992.92473.74244,4.18794-1.79165,5.66394-3.46327a53.05272,53.05272,0,0,0-.0578,6.98878c-2.1562.86693-6.65534,4.76144-4.93038,5.6906,1.04921.55573,3.88118-2.53409,4.98818-4.45467.06224.92917.18672,1.79609.3112,2.72526.18228,1.42266.489,2.84086.80024,4.20127-1.97393,1.24038-5.73062,5.87733-3.88117,6.43306,1.107.37344,3.38769-3.21431,4.18793-5.25492a50.54966,50.54966,0,0,0,2.33849,6.61533c-1.72052,1.54713-4.677,6.73981-2.70749,7.051,1.16925.18672,2.76973-3.77448,3.201-5.93513.618,1.36041,1.356,2.65858,2.094,3.95675.43124.74245.86248,1.42265,1.356,2.1651-1.41821,1.79165-3.44993,7.48226-1.48045,7.42,1.17369-.06224,2.094-4.268,2.15621-6.43306a53.01251,53.01251,0,0,0,4.4369,5.44165c-1.11145,1.98282-2.094,8.04243-.18673,7.60674,1.16925-.24452,1.356-4.57472.987-6.73981a45.8047,45.8047,0,0,0,5.23269,4.51692l.06224.06224c-.738,2.16065-.67576,8.28694,1.16924,7.48226,1.11145-.43569.49348-4.82368-.18227-6.8643a46.39661,46.39661,0,0,0,6.09517,3.64555c-.369,2.22734.738,8.28694,2.40072,7.1755.987-.618-.30675-4.82368-1.35151-6.67758a52.22644,52.22644,0,0,0,5.85065,2.28514c.24452.06224.49348.12448.738.18672.06224,2.28958,2.15621,8.04243,3.63221,6.682.86248-.80469-1.16924-4.6414-2.52521-6.37081a43.98761,43.98761,0,0,0,6.89986,1.29817c.43125,2.22734,3.50773,7.5445,4.73921,5.93512.74245-.92472-1.96948-4.388-3.57-5.81064,1.66272.12,3.38769.18228,5.11265.18228a.50378.50378,0,0,0,.49348-.55573C190.18072,413.23421,189.93176,413.04749,189.68724,413.04749Zm19.58369-25.47881,3.51217,2.59634a3.08086,3.08086,0,0,0,4.24573-.618,3.11585,3.11585,0,0,0-.61351-4.268l-3.32545-2.47186a.95852.95852,0,0,1-.24452-1.23593,18.53007,18.53007,0,0,0,2.52076-11.50569,14.11181,14.11181,0,0,0-5.97069-9.83408,15.66935,15.66935,0,0,0-5.97514-2.9031,13.53447,13.53447,0,0,0-5.9129,0,25.5846,25.5846,0,0,0-6.15741,2.22289c-2.094,1.05365-4.25018,2.28958-6.58866,3.71223a13.64523,13.64523,0,0,1-5.66838,2.28958,7.06745,7.06745,0,0,1-4.68141-1.60937,5.69593,5.69593,0,0,1-2.52521-3.71223,5.30739,5.30739,0,0,1,1.17369-4.20127,6.65131,6.65131,0,0,1,5.05041-3.032,9.31,9.31,0,0,1,5.60169,1.79165,1.12689,1.12689,0,0,0,1.48045-.24452l6.2819-8.53591a1.13637,1.13637,0,0,0-.31121-1.60937,17.50349,17.50349,0,0,0-11.88359-3.33879c-4.06344.43569-7.94462,2.53855-11.519,6.18409a1.10552,1.10552,0,0,1-1.41376.12448l-2.95645-2.28958a3.04539,3.04539,0,0,0-3.63665,4.88592l2.95645,2.1651a1.07531,1.07531,0,0,1,.3112,1.36041,17.43438,17.43438,0,0,0-2.34293,11.13225,14.31218,14.31218,0,0,0,6.09962,9.64736,15.41165,15.41165,0,0,0,6.03293,2.90755,16.26407,16.26407,0,0,0,5.97514,0,25.1492,25.1492,0,0,0,6.15742-2.1651q3.14094-1.57382,6.46862-3.52551a16.80327,16.80327,0,0,1,5.60169-2.28514,6.2491,6.2491,0,0,1,4.55693,1.36042,6.59412,6.59412,0,0,1,2.71193,3.70778,5.54735,5.54735,0,0,1-5.35717,6.30857,9.40275,9.40275,0,0,1-5.1749-1.97837.781.781,0,0,0-1.107.18672l-6.6509,9.09164a.87491.87491,0,0,0,.18228,1.17368,17.5822,17.5822,0,0,0,11.27007,3.401,16.5821,16.5821,0,0,0,10.53207-4.82368A1.01786,1.01786,0,0,1,209.27093,387.56868Zm23.27815-18.121a44.49026,44.49026,0,0,1-8.4959,23.62492A43.71289,43.71289,0,0,1,204.096,408.22381l3.63665,9.7096a53.80513,53.80513,0,0,0,24.63411-18.67675,54.92822,54.92822,0,0,0,10.53207-29.1288Z" transform="translate(-109.83028 -301.84501)"/>
</svg>
