<svg id="Layer_1" data-name="Layer 1" xmlns="http://www.w3.org/2000/svg" viewBox="0 0 273 280.9"><defs><style>.cls-1{fill:none;}.cls-2{fill:#1a1c5b;}.cls-2,.cls-3,.cls-4,.cls-5,.cls-7{fill-rule:evenodd;}.cls-3,.cls-6{fill:#07bf9b;}.cls-4{fill:#262c69;}.cls-5{fill:#3c3c8d;}.cls-7{fill:#474b9b;}</style></defs><title>money-dollar</title><polyline class="cls-1" points="269.9 278.6 2.9 278.6 2.9 38.6"/><line class="cls-1" x1="269.9" y1="38.6" x2="269.9" y2="278.6"/><polyline class="cls-1" points="164.2 0 273 97.4 108.8 280.9 0 183.6 164.2 0"/><polyline class="cls-1" points="164.2 0 0 183.6 108.8 280.9 273 97.4 164.2 0"/><polyline class="cls-1" points="164.2 0.1 0.2 183.3 109 280.7 273 97.4 164.2 0.1"/><path class="cls-2" d="M322.14,311.45l125.1-139,76.4-3.9,63.9,57.5a2.15,2.15,0,0,1,.2,2.9l-160,177.6a2.15,2.15,0,0,1-2.9.2l-102.6-92.4A2.05,2.05,0,0,1,322.14,311.45Z" transform="translate(-318.54 -129.05)"/><polyline class="cls-1" points="269.9 276.6 2.9 276.6 2.9 37.6"/><line class="cls-1" x1="269.9" y1="37.6" x2="269.9" y2="276.6"/><polyline class="cls-1" points="164.2 0 273 97.4 108.8 280.9 0 183.6 164.2 0"/><polyline class="cls-1" points="164.2 0 0 183.6 108.8 280.9 273 97.4 164.2 0"/><polyline class="cls-1" points="164.2 0.1 0.2 183.3 109 280.7 273 97.4 164.2 0.1"/><path class="cls-3" d="M322.14,309.85l125.1-139,76.4-3.9,63.9,57.5a2.15,2.15,0,0,1,.2,2.9L427.74,405a2.15,2.15,0,0,1-2.9.2l-102.6-92.4A2.05,2.05,0,0,1,322.14,309.85Z" transform="translate(-318.54 -129.05)"/><polyline class="cls-1" points="241.9 249.6 30.9 249.6 30.9 37.6"/><polyline class="cls-1" points="30.9 37.6 241.9 37.6 241.9 249.6"/><polyline class="cls-1" points="164.2 0 273 97.4 108.8 280.9 0 183.6 164.2 0"/><polyline class="cls-1" points="164.2 0 0 183.6 108.8 280.9 273 97.4 164.2 0"/><polyline class="cls-1" points="164.2 0.1 0.2 183.3 109 280.7 273 97.4 164.2 0.1"/><path class="cls-4" d="M350.54,288.55l106.3-118.2,57.1-2.9,43,38.7a3.38,3.38,0,0,1,.5,4.5,27.1,27.1,0,0,0,1.8,33.7,3.37,3.37,0,0,1,0,4.5l-113.1,125.8a3.38,3.38,0,0,1-4.5.5,27,27,0,0,0-33.7,1.7,3.37,3.37,0,0,1-4.5,0l-50.6-45.6a3.38,3.38,0,0,1-.5-4.5,27.1,27.1,0,0,0-1.8-33.7A3.26,3.26,0,0,1,350.54,288.55Z" transform="translate(-318.54 -129.05)"/><rect class="cls-1" x="136.9" y="133.6" width="67" height="73"/><polyline class="cls-1" points="164.2 0 273 97.4 108.8 280.9 0 183.6 164.2 0"/><polyline class="cls-1" points="164.2 0 0 183.6 108.8 280.9 273 97.4 164.2 0"/><polyline class="cls-1" points="164.2 0.1 0.2 183.3 109 280.7 273 97.4 164.2 0.1"/><path class="cls-5" d="M469.24,313.35l-2,7.3,5,4.5-9,10-1.5-5.9-6-.9Zm46.7-44.2,6,.9-9,10-5-4.5-7,2.8,13.5-15Z" transform="translate(-318.54 -129.05)"/><rect class="cls-1" x="96.9" y="99.6" width="89" height="89"/><polyline class="cls-1" points="164.2 0 273 97.4 108.8 280.9 0 183.6 164.2 0"/><polyline class="cls-1" points="164.2 0 0 183.6 108.8 280.9 273 97.4 164.2 0"/><polyline class="cls-1" points="164.2 0.1 0.2 183.3 109 280.7 273 97.4 164.2 0.1"/><path class="cls-6" d="M446.34,231.35a27.4,27.4,0,0,0-4,1.5c-1.3.6-2.6,1.2-3.9,1.9s-2.5,1.5-3.7,2.3-2.3,1.7-3.4,2.6-2.1,1.9-3.1,2.9-1.9,2.1-2.8,3.2-1.7,2.3-2.5,3.5a34.71,34.71,0,0,0-2.1,3.7c-.7,1.3-1.2,2.6-1.8,3.9s-1,2.7-1.4,4.1-.7,2.8-1,4.2a29.75,29.75,0,0,0-.5,4.3,46.36,46.36,0,0,0,.2,8.6c.2,1.4.4,2.8.7,4.3s.7,2.8,1.1,4.2,1,2.7,1.5,4,1.2,2.6,1.9,3.9,1.5,2.5,2.3,3.7,1.7,2.3,2.6,3.4a29.12,29.12,0,0,0,3,3.1,30.39,30.39,0,0,0,3.3,2.8c1.2.9,2.3,1.7,3.5,2.5s2.5,1.5,3.7,2.2a33.89,33.89,0,0,0,3.9,1.8c1.3.5,2.7,1,4.1,1.4s2.8.7,4.2,1,2.8.4,4.3.6a20.77,20.77,0,0,0,4.3.1,31.08,31.08,0,0,0,4.3-.3c1.4-.2,2.8-.4,4.3-.7s2.8-.7,4.2-1.1a27.4,27.4,0,0,0,4-1.5c1.3-.6,2.6-1.2,3.9-1.9s2.5-1.5,3.7-2.3,2.3-1.7,3.4-2.6,2.1-1.9,3.1-2.9,1.9-2.1,2.8-3.2,1.7-2.3,2.5-3.5a34.71,34.71,0,0,0,2.1-3.7c.6-1.2,1.2-2.6,1.8-3.9s1-2.7,1.4-4.1.7-2.8,1-4.2.4-2.8.6-4.3a20.77,20.77,0,0,0,.1-4.3c-.1-1.4-.1-2.9-.3-4.3s-.4-2.8-.7-4.3-.7-2.8-1.1-4.2-1-2.7-1.5-4a34.92,34.92,0,0,0-1.9-3.9c-.7-1.3-1.5-2.5-2.3-3.7s-1.7-2.3-2.6-3.4a29.12,29.12,0,0,0-3-3.1,30.39,30.39,0,0,0-3.3-2.8c-1.1-.9-2.3-1.7-3.5-2.5s-2.5-1.5-3.7-2.2-2.6-1.2-3.9-1.8-2.7-1-4.1-1.4-2.8-.7-4.2-1-2.8-.4-4.3-.6a30.88,30.88,0,0,0-4.3-.1c-1.4.1-2.9.1-4.3.3s-2.8.4-4.3.7A27,27,0,0,0,446.34,231.35Z" transform="translate(-318.54 -129.05)"/><rect class="cls-1" x="147.9" y="145.6" width="49" height="53"/><polyline class="cls-1" points="164.2 0 273 97.4 108.8 280.9 0 183.6 164.2 0"/><polyline class="cls-1" points="164.2 0 0 183.6 108.8 280.9 273 97.4 164.2 0"/><polyline class="cls-1" points="164.2 0.1 0.2 183.3 109 280.7 273 97.4 164.2 0.1"/><path class="cls-7" d="M515.44,282.25l-7.5-6.8-40.6,45.2,7.5,6.8Z" transform="translate(-318.54 -129.05)"/><polyline class="cls-1" points="52.9 55.6 219.9 55.6 219.9 228.6 52.9 228.6 52.9 55.6"/><polyline class="cls-1" points="164.2 0 273 97.4 108.8 280.9 0 183.6 164.2 0"/><polyline class="cls-1" points="164.2 0 0 183.6 108.8 280.9 273 97.4 164.2 0"/><polyline class="cls-1" points="164.2 0.1 0.2 183.3 109 280.7 273 97.4 164.2 0.1"/><path class="cls-5" d="M535,210a.64.64,0,0,1,.9-.1l1.5,1.4a.64.64,0,0,1,.1.9l-26.2,29.1a.64.64,0,0,1-.9.1l-1.5-1.3a.64.64,0,0,1-.1-.9Zm.5,9.6a.64.64,0,0,1,.9-.1l1.5,1.3a.64.64,0,0,1,.1.9l-17.1,19.1a.64.64,0,0,1-.9.1l-1.5-1.4a.64.64,0,0,1-.1-.9Zm-104.4,105.8a.64.64,0,0,1,.9-.1l1.5,1.4a.64.64,0,0,1,.1.9l-26.2,29.1a.64.64,0,0,1-.9.1l-1.6-1.3a.64.64,0,0,1-.1-.9Zm.5,9.6a.64.64,0,0,1,.9-.1l1.5,1.4a.64.64,0,0,1,.1.9l-17.2,19.1a.64.64,0,0,1-.9.1l-1.5-1.3a.64.64,0,0,1-.1-.9Zm84.2-134a13.52,13.52,0,1,1-19.1,1A13.57,13.57,0,0,1,515.84,201Zm-103.9,115.3a13.52,13.52,0,1,1-19.1,1A13.57,13.57,0,0,1,411.94,316.25Zm-39.3-37.2,84-93.3a1.3,1.3,0,0,1,1.9-.1l3,2.7a1.3,1.3,0,0,1,.1,1.9l-84,93.3a1.3,1.3,0,0,1-1.9.1l-3-2.7A1.3,1.3,0,0,1,372.64,279.05Z" transform="translate(-318.54 -129.05)"/><polyline class="cls-1" points="258.9 265.6 12.9 265.6 12.9 87.6"/><polyline class="cls-1" points="12.9 87.6 258.9 87.6 258.9 265.6"/><polyline class="cls-1" points="164.2 0 273 97.4 108.8 280.9 0 183.6 164.2 0"/><polyline class="cls-1" points="164.2 0 0 183.6 108.8 280.9 273 97.4 164.2 0"/><polyline class="cls-1" points="164.2 0.1 0.2 183.3 109 280.7 273 97.4 164.2 0.1"/><path class="cls-4" d="M558.34,224.75l12.4,11.2-2.6,2.9-9.2-8.3-1.7,3.6-2.2-2,3-7.1Zm8.1,5.7-2.3-2a8.13,8.13,0,0,1-2.9-4.6,5.44,5.44,0,0,1,1.5-4.4,5.08,5.08,0,0,1,4.3-1.9,8.33,8.33,0,0,1,4.9,2.4l2.3,2a8.13,8.13,0,0,1,2.9,4.6,6,6,0,0,1-5.8,6.4A9.2,9.2,0,0,1,566.44,230.45Zm7-1.6a1.38,1.38,0,0,0,.3-1.6,5.74,5.74,0,0,0-1.7-2.1l-3.1-2.8a7.3,7.3,0,0,0-2.3-1.5,1.57,1.57,0,0,0-1.7.5,1.61,1.61,0,0,0-.4,1.6,5,5,0,0,0,1.5,2l3.2,2.8a6.6,6.6,0,0,0,2.4,1.5A1.5,1.5,0,0,0,573.44,228.85Zm-238,76.6.2-.3,12.4,11.2-2.6,2.9-9.2-8.3-1.7,3.6-2.2-2Zm8.3,5.5-2.3-2a8.13,8.13,0,0,1-2.9-4.6A5.44,5.44,0,0,1,340,300a5.08,5.08,0,0,1,4.3-1.9,8.33,8.33,0,0,1,4.9,2.4l2.3,2a8.13,8.13,0,0,1,2.9,4.6,6,6,0,0,1-5.8,6.4A10.4,10.4,0,0,1,343.74,311Zm7-1.6a1.38,1.38,0,0,0,.3-1.6,5.74,5.74,0,0,0-1.7-2.1l-3.1-2.8a7.3,7.3,0,0,0-2.3-1.5,1.57,1.57,0,0,0-1.7.5,1.42,1.42,0,0,0-.4,1.6,4.51,4.51,0,0,0,1.6,2l3.2,2.8a6.6,6.6,0,0,0,2.4,1.5A1.53,1.53,0,0,0,350.74,309.35Zm67.9,70.6,12.4,11.2-2.6,2.9-9.2-8.3-1.7,3.6-2.2-2,3-7.1Zm8.2,5.7-2.3-2a8.13,8.13,0,0,1-2.9-4.6,5.44,5.44,0,0,1,1.5-4.4,5.08,5.08,0,0,1,4.3-1.9,8.33,8.33,0,0,1,4.9,2.4l2.3,2a8.13,8.13,0,0,1,2.9,4.6,6,6,0,0,1-5.8,6.4C430.14,388.15,428.44,387.15,426.84,385.65Zm6.9-1.6a1.38,1.38,0,0,0,.3-1.6,5.74,5.74,0,0,0-1.7-2.1l-3.1-2.8a7.3,7.3,0,0,0-2.3-1.5,1.57,1.57,0,0,0-1.7.5,1.61,1.61,0,0,0-.4,1.6,5,5,0,0,0,1.5,2l3.2,2.8a6.6,6.6,0,0,0,2.4,1.5A1.65,1.65,0,0,0,433.74,384.05Z" transform="translate(-318.54 -129.05)"/><rect class="cls-1" x="112.9" y="116.6" width="57" height="56"/><polyline class="cls-1" points="164.2 0 273 97.4 108.8 280.9 0 183.6 164.2 0"/><polyline class="cls-1" points="164.2 0 0 183.6 108.8 280.9 273 97.4 164.2 0"/><polyline class="cls-1" points="164.2 0.1 0.2 183.3 109 280.7 273 97.4 164.2 0.1"/><path class="cls-4" d="M432.74,247.65a3,3,0,0,1,4.4-.2l3.3,3a1.05,1.05,0,0,0,1.3,0,17.39,17.39,0,0,1,11.2-3.9,18.08,18.08,0,0,1,11.2,4.6.91.91,0,0,1,.1,1.2l-7.7,8.6a.79.79,0,0,1-1.1.1,10.07,10.07,0,0,0-5.1-2.5,5.18,5.18,0,0,0-4.6,1.8,5.53,5.53,0,0,0-1.5,4.1,7.09,7.09,0,0,0,2.4,4.1,6.46,6.46,0,0,0,4.5,1.9,14.52,14.52,0,0,0,5.9-1.7c2.4-1.1,4.7-2.1,7-2.9a23.72,23.72,0,0,1,6.5-1.6,15.69,15.69,0,0,1,6.1.6,15.88,15.88,0,0,1,5.9,3.5,14.92,14.92,0,0,1,5.3,10.5,18,18,0,0,1-3.5,11.1,1.08,1.08,0,0,0,.2,1.4l2.8,2.5a3.14,3.14,0,0,1,.3,4.4,3,3,0,0,1-4.4.2l-2.9-2.6a1,1,0,0,0-1.4,0c-4,3.4-8.1,5.1-12.4,5.2-4.1.1-8.1-1.5-11.8-4.6a1.15,1.15,0,0,1-.1-1.7l7.3-8.1a1.22,1.22,0,0,1,1.6-.1A10.12,10.12,0,0,0,469,289a7,7,0,0,0,5.5-2.6,5.47,5.47,0,0,0,1.6-4.2,5.63,5.63,0,0,0-2.2-4,6.88,6.88,0,0,0-4.6-2.1,16.67,16.67,0,0,0-6.1,1.7c-2.5,1.2-4.9,2.3-7.1,3.1a28.45,28.45,0,0,1-6.5,1.7,15,15,0,0,1-6-.6,15.35,15.35,0,0,1-5.8-3.6,14.18,14.18,0,0,1-5.1-10.6,18.67,18.67,0,0,1,3.7-11.4,1,1,0,0,0-.1-1.3l-3.2-2.8A3.32,3.32,0,0,1,432.74,247.65Z" transform="translate(-318.54 -129.05)"/><rect class="cls-1" x="127.9" y="37.6" width="78" height="51"/><polyline class="cls-1" points="164.2 0 273 97.4 108.8 280.9 0 183.6 164.2 0"/><polyline class="cls-1" points="164.2 0 0 183.6 108.8 280.9 273 97.4 164.2 0"/><polyline class="cls-1" points="164.2 0.1 0.2 183.3 109 280.7 273 97.4 164.2 0.1"/><path class="cls-2" d="M523.54,167.05l-31.1,49a2.15,2.15,0,0,1-2.9.2l-42.4-45.2Z" transform="translate(-318.54 -129.05)"/><rect class="cls-1" x="127.9" y="37.6" width="78" height="40"/><polyline class="cls-1" points="164.2 0 273 97.4 108.8 280.9 0 183.6 164.2 0"/><polyline class="cls-1" points="164.2 0 0 183.6 108.8 280.9 273 97.4 164.2 0"/><polyline class="cls-1" points="164.2 0.1 0.2 183.3 109 280.7 273 97.4 164.2 0.1"/><path class="cls-3" d="M523.54,167.05l-34.8,38.7a2.15,2.15,0,0,1-2.9.2l-38.7-34.9Z" transform="translate(-318.54 -129.05)"/><rect class="cls-1" x="137.9" y="37.6" width="58" height="12"/><polyline class="cls-1" points="164.2 0 273 97.4 108.8 280.9 0 183.6 164.2 0"/><polyline class="cls-1" points="164.2 0 0 183.6 108.8 280.9 273 97.4 164.2 0"/><polyline class="cls-1" points="164.2 0.1 0.2 183.3 109 280.7 273 97.4 164.2 0.1"/><path class="cls-4" d="M514.24,167.25l-7.1,7.9a3.38,3.38,0,0,1-4.5.5,27,27,0,0,0-33.7,1.8,3.37,3.37,0,0,1-4.5,0l-8-7.2Z" transform="translate(-318.54 -129.05)"/><rect class="cls-1" x="157.9" y="44.6" width="23" height="22"/><polyline class="cls-1" points="164.2 0 273 97.4 108.8 280.9 0 183.6 164.2 0"/><polyline class="cls-1" points="164.2 0 0 183.6 108.8 280.9 273 97.4 164.2 0"/><polyline class="cls-1" points="164.2 0.1 0.2 183.3 109 280.7 273 97.4 164.2 0.1"/><path class="cls-4" d="M485.74,173.85l9.1,8.3,1.7-3.6,2.2,2-3,7.1-.2.3-12.4-11.2Zm-7.5,8a5.48,5.48,0,0,1,4.3-2c1.6,0,3.2.9,4.9,2.4l2.3,2a8.13,8.13,0,0,1,2.9,4.6,5.44,5.44,0,0,1-1.5,4.4,5.08,5.08,0,0,1-4.3,1.9,8.33,8.33,0,0,1-4.9-2.4l-2.3-2a8.13,8.13,0,0,1-2.9-4.6A4.93,4.93,0,0,1,478.24,181.85Zm1.9,3.6a6.45,6.45,0,0,0,1.6,2.1l3.1,2.8a7.3,7.3,0,0,0,2.3,1.5,1.57,1.57,0,0,0,1.7-.5,1.61,1.61,0,0,0,.4-1.6,5,5,0,0,0-1.5-2l-3.2-2.8a7.3,7.3,0,0,0-2.3-1.5,1.42,1.42,0,0,0-1.6.5A1.14,1.14,0,0,0,480.14,185.45Z" transform="translate(-318.54 -129.05)"/></svg>