<svg id="Layer_2" data-name="Layer 2" xmlns="http://www.w3.org/2000/svg" xmlns:xlink="http://www.w3.org/1999/xlink" viewBox="0 0 267.48438 157.85156">
  <defs>
    <style>
      .cls-1 {
        fill: none;
      }

      .cls-2 {
        fill: #1a1c5b;
      }

      .cls-2, .cls-4, .cls-5, .cls-6, .cls-8 {
        fill-rule: evenodd;
      }

      .cls-3 {
        clip-path: url(#clip-path);
      }

      .cls-4, .cls-7 {
        fill: #07bf9b;
      }

      .cls-5 {
        fill: #262c69;
      }

      .cls-6 {
        fill: #3c3c8d;
      }

      .cls-8 {
        fill: #474b9b;
      }
    </style>
    <clipPath id="clip-path" transform="translate(-312.42578 -96.12891)">
      <rect class="cls-1" x="311.98438" y="96.07031" width="268" height="156.95703"/>
    </clipPath>
  </defs>
  <path class="cls-2" d="M576.92969,97.55859,315.34375,97.457a2.80673,2.80673,0,0,0-2.78516,2.79688l-.13281,150.79687a2.80928,2.80928,0,0,0,2.78516,2.79688l261.58592.13281a2.80593,2.80593,0,0,0,2.78126-2.79688l.10157-150.832A2.75839,2.75839,0,0,0,576.92969,97.55859Z" transform="translate(-312.42578 -96.12891)"/>
  <g class="cls-3">
    <path class="cls-4" d="M577.12891,96.26172l-261.58985-.13281a2.80255,2.80255,0,0,0-2.78125,2.793l-.09765,150.832a2.80255,2.80255,0,0,0,2.78125,2.793l261.58593.13671a2.80927,2.80927,0,0,0,2.78515-2.79687l.09767-150.832A2.78238,2.78238,0,0,0,577.12891,96.26172Z" transform="translate(-312.42578 -96.12891)"/>
  </g>
  <path class="cls-5" d="M569.17578,133.31251a29.71943,29.71943,0,0,1-26.17187-26.3086,3.70279,3.70279,0,0,0-3.67579-3.32422l-185.92187-.10157a3.70081,3.70081,0,0,0-3.67578,3.293,29.71374,29.71374,0,0,1-26.23828,26.27344,3.70893,3.70893,0,0,0-3.3125,3.69532l-.06641,74.89843a3.70356,3.70356,0,0,0,3.27734,3.69141,29.71569,29.71569,0,0,1,26.17187,26.30859,3.704,3.704,0,0,0,3.6797,3.32813l185.95312.13281a3.70082,3.70082,0,0,0,3.67578-3.293,29.72137,29.72137,0,0,1,26.23829-26.27734,3.7023,3.7023,0,0,0,3.31248-3.6914l.06642-74.89845A3.81916,3.81916,0,0,0,569.17578,133.31251Z" transform="translate(-312.42578 -96.12891)"/>
  <path class="cls-6" d="M401.71094,224.67578,398,230.26562h14.83984v-7.44921l7.42188-3.72656H398Zm70.49609-5.55469,7.42188,3.72657v7.44922h14.83984l-3.707-5.58594,3.707-5.58985Z" transform="translate(-312.42578 -96.12891)"/>
  <path class="cls-7" d="M425.625,138.10938q2.13867-1.01953,4.37109-1.82032,2.22657-.80273,4.52735-1.38281,2.29688-.58008,4.64453-.92969,2.34375-.35156,4.707-.46875,2.36718-.11718,4.73438-.0039,2.36717.11718,4.71093.46094,2.34375.35155,4.64453.92577,2.29688.57423,4.53125,1.375,2.23244.80274,4.375,1.81641c1.42577.67969,2.82032,1.42188,4.17577,2.23828,1.35548.8125,2.668,1.69531,3.93752,2.63672q1.9043,1.418,3.66015,3.01172,1.75782,1.59961,3.35156,3.35937Q483.584,151.0918,485,153q1.41212,1.91016,2.63281,3.94922,1.21875,2.03906,2.23438,4.1914,1.01367,2.1504,1.8125,4.38672.80272,2.23828,1.3789,4.54688c.38282,1.53906.69532,3.09375.92579,4.66016q.35156,2.35547.46874,4.73047.11719,2.373.00391,4.7539-.11718,2.373-.46094,4.72656-.35155,2.35547-.92187,4.66407-.57422,2.30859-1.3711,4.54687-.79689,2.24414-1.80859,4.39063c-.67578,1.4375-1.418,2.832-2.23047,4.19531q-1.21288,2.03906-2.625,3.95312-1.4121,1.91016-3,3.67578-1.59375,1.76368-3.34765,3.36329-1.752,1.59375-3.65625,3.01562-1.89845,1.418-3.9336,2.64453-2.03321,1.22462-4.17187,2.24219-2.14453,1.01953-4.375,1.82031-2.22657.80274-4.52735,1.38282-2.29687.58006-4.64062.92968-2.34375.35157-4.71094.46875a46.68271,46.68271,0,0,1-4.73437.00391q-2.3672-.11719-4.71094-.46094c-1.5625-.23437-3.10938-.53906-4.64453-.92578q-2.29687-.57422-4.53125-1.375c-1.48438-.53516-2.94531-1.14062-4.3711-1.81641a48.18739,48.18739,0,0,1-8.11718-4.875q-1.90433-1.418-3.66016-3.01172-1.75781-1.5996-3.34766-3.35937-1.59375-1.76367-3.00781-3.67188-1.4121-1.91015-2.63281-3.94921-1.21875-2.03905-2.23438-4.1875-1.01367-2.1504-1.8125-4.39063-.80273-2.23828-1.3789-4.54687-.57422-2.3086-.92578-4.66016-.34571-2.35547-.46485-4.73047a46.98833,46.98833,0,0,1-.0039-4.75q.1113-2.37891.46093-4.73047.34571-2.35547.918-4.66406.57423-2.30859,1.3711-4.54687t1.80859-4.39063q1.01367-2.1504,2.23047-4.19531,1.21875-2.03907,2.625-3.95313,1.4121-1.91016,3.0039-3.67578a46.77356,46.77356,0,0,1,3.34376-3.35938q1.75194-1.5996,3.65624-3.01953a47.33568,47.33568,0,0,1,3.9336-2.64062Q423.48243,139.13086,425.625,138.10938Z" transform="translate(-312.42578 -96.12891)"/>
  <path class="cls-8" d="M412.83984,233.98828V222.81641h66.78907v11.17187Z" transform="translate(-312.42578 -96.12891)"/>
  <path class="cls-6" d="M552.94141,196.80469l-42.668-.03125a.95014.95014,0,0,0-.92969.92968v1.86329a.95014.95014,0,0,0,.92969.92968l42.668.03516a.95089.95089,0,0,0,.92968-.93359v-1.85938A.95089.95089,0,0,0,552.94141,196.80469Zm-7.418,7.44922H517.69531a.95091.95091,0,0,0-.92969.9336v1.86327a.95015.95015,0,0,0,.92969.92969h27.82813a.94941.94941,0,0,0,.92578-.92969v-1.86327A.92938.92938,0,0,0,545.52344,204.25391Zm-163.26172-7.51563-42.668-.03125a.94747.94747,0,0,0-.92969.92969V199.5a.94747.94747,0,0,0,.92969.92969l42.668.03516a.95361.95361,0,0,0,.92969-.9336v-1.85937A.93015.93015,0,0,0,382.26172,196.73828Zm-7.42188,7.44923H347.01172a.95016.95016,0,0,0-.92578.93358v1.86329a.9494.9494,0,0,0,.92578.92968h27.82812a.95014.95014,0,0,0,.92969-.92968v-1.86329A.93019.93019,0,0,0,374.83984,204.18751Zm156.80078-44.63282a14.9005,14.9005,0,1,0,14.84376,14.89843A14.86559,14.86559,0,0,0,531.64062,159.55469Zm-170.67968-.06641a14.90051,14.90051,0,1,0,14.83984,14.89844A14.86891,14.86891,0,0,0,360.96094,159.48828Zm154.01562-44.63672-137.28515-.0664a1.85633,1.85633,0,0,0-1.85547,1.86328V120.375a1.85633,1.85633,0,0,0,1.85547,1.86328l137.28515.06641a1.85633,1.85633,0,0,0,1.85547-1.86328v-3.72656A1.85633,1.85633,0,0,0,514.97656,114.85156Z" transform="translate(-312.42578 -96.12891)"/>
  <path class="cls-5" d="M557.84766,103.87891l-8.0508,2.793v3.22656l4.17189-1.23047v13.60156h4.24219V103.87891Zm12.85156,1.76171a6.46894,6.46894,0,0,0-9.40625,0,8.733,8.733,0,0,0-1.65625,5.75391v3.35938a9.00135,9.00135,0,0,0,1.65625,5.7539,6.50975,6.50975,0,0,0,9.44141,0,8.75482,8.75482,0,0,0,1.65624-5.7539v-3.35938A9.00542,9.00542,0,0,0,570.69922,105.64062Zm-3.07813,2.22657a6.80713,6.80713,0,0,1,.52735,2.96093v4.5586a6.525,6.525,0,0,1-.52735,2.92579,1.83766,1.83766,0,0,1-3.21484-.03517,6.72888,6.72888,0,0,1-.53125-3.02343v-4.6914a6.36161,6.36161,0,0,1,.53125-2.76173,1.68235,1.68235,0,0,1,1.58984-.89453A1.772,1.772,0,0,1,567.62109,107.86719Zm-9.875,118.90625-8.05078,2.793V232.793l4.17578-1.23046v13.60155h4.23829V226.77344Zm8.15235-.26563a5.69859,5.69859,0,0,0-4.707,2.02735,8.75482,8.75482,0,0,0-1.65625,5.7539v3.35938a9.00135,9.00135,0,0,0,1.65625,5.7539,6.50972,6.50972,0,0,0,9.4414,0,8.73294,8.73294,0,0,0,1.65625-5.7539v-3.35938a9.00135,9.00135,0,0,0-1.65625-5.7539A5.9429,5.9429,0,0,0,565.89844,226.50781Zm1.62109,4.28907a6.71793,6.71793,0,0,1,.53125,2.96093v4.5547a6.4704,6.4704,0,0,1-.53125,2.92968,1.83765,1.83765,0,0,1-3.21484-.03516,6.81255,6.81255,0,0,1-.52735-3.02734v-4.6875a6.35636,6.35636,0,0,1,.52735-2.76172,1.69133,1.69133,0,0,1,1.59375-.89844A1.634,1.634,0,0,1,567.51953,230.79688ZM328.36328,103.74609l-8.05079,2.793v3.22656l4.17189-1.23046v13.60156h4.24218V103.74609Zm8.11328-.23437a5.69584,5.69584,0,0,0-4.70312,2.02734,8.76908,8.76908,0,0,0-1.65625,5.75391v3.35937a9.00138,9.00138,0,0,0,1.65625,5.75391,6.5446,6.5446,0,0,0,9.4414-.03125,8.74,8.74,0,0,0,1.65625-5.75391v-3.35937a9.00138,9.00138,0,0,0-1.65625-5.75391A5.833,5.833,0,0,0,336.47656,103.51172Zm1.66016,4.25781a6.78286,6.78286,0,0,1,.52734,2.96094v4.55469a6.50147,6.50147,0,0,1-.52734,2.92578,1.8358,1.8358,0,0,1-3.21485-.03125,6.74821,6.74821,0,0,1-.53125-3.02735v-4.68749a6.34861,6.34861,0,0,1,.53125-2.76173,1.68548,1.68548,0,0,1,1.58985-.89843A1.76852,1.76852,0,0,1,338.13672,107.76953Zm-9.875,118.90235-8.05078,2.76171v3.22657l4.17578-1.23047v13.60156H328.625V226.64062Zm8.11719-.26563a5.69586,5.69586,0,0,0-4.70313,2.02734,8.74713,8.74713,0,0,0-1.65625,5.75392v3.35937a8.99384,8.99384,0,0,0,1.65625,5.7539,6.50115,6.50115,0,0,0,9.44141,0,8.7548,8.7548,0,0,0,1.65625-5.7539v-3.35937a9.00891,9.00891,0,0,0-1.65625-5.75392A5.871,5.871,0,0,0,336.37891,226.40625Zm1.65625,4.25781a6.718,6.718,0,0,1,.53125,2.96094v4.55469a6.43992,6.43992,0,0,1-.53125,2.92578,1.83578,1.83578,0,0,1-3.21485-.03125,6.81272,6.81272,0,0,1-.52734-3.02734v-4.6875a6.35653,6.35653,0,0,1,.52734-2.76172,1.68934,1.68934,0,0,1,1.58985-.89844A1.76448,1.76448,0,0,1,338.03516,230.66406Z" transform="translate(-312.42578 -96.12891)"/>
  <path class="cls-5" d="M462.96484,156.62891a19.013,19.013,0,0,0-11.42968-6.35547,1.06638,1.06638,0,0,1-.89454-1.0625v-4.92188a3.41213,3.41213,0,1,0-6.82421,0v4.6875a1.10635,1.10635,0,0,1-.96094,1.09766,20.59545,20.59545,0,0,0-12.09375,5.39063,15.97284,15.97284,0,0,0-4.90234,11.97266,18.5246,18.5246,0,0,0,1.35937,7.418,16.35414,16.35414,0,0,0,3.94141,5.38672,26.03408,26.03408,0,0,0,6.1289,4.08984q3.58008,1.74609,7.75391,3.49219c2.81641,1.16406,4.76952,2.36329,5.86328,3.66016a7.85177,7.85177,0,0,1,1.65624,5.35547,6.58905,6.58905,0,0,1-1.6914,4.78906,6.07578,6.07578,0,0,1-4.60156,1.73047,7.70037,7.70037,0,0,1-6.16406-2.5625,10.32669,10.32669,0,0,1-2.12109-6.28516,1.26666,1.26666,0,0,0-1.25782-1.19921H424.76562a1.25811,1.25811,0,0,0-1.25781,1.332c.23047,5.32032,1.89063,9.67578,4.96875,13.03516q4.72266,5.13867,13.28516,6.32031a1.217,1.217,0,0,1,1.0625,1.19922v4.22266a3.41214,3.41214,0,1,0,6.82422,0v-4.15626a1.2136,1.2136,0,0,1,1.05859-1.19921,19.5528,19.5528,0,0,0,11.62891-5.28907,16.21791,16.21791,0,0,0,4.67187-12.0039,17.63341,17.63341,0,0,0-1.457-7.45313,16.58564,16.58564,0,0,0-4.043-5.418,28.82758,28.82758,0,0,0-6.09765-4.16015c-2.35157-1.23047-4.86719-2.39453-7.51954-3.52344a17.872,17.872,0,0,1-5.79687-3.59375,7.0281,7.0281,0,0,1-1.78906-5.05469,7.29673,7.29673,0,0,1,1.55859-4.92187,5.55332,5.55332,0,0,1,4.40625-1.79688,5.63788,5.63788,0,0,1,4.90233,2.42969,11.04887,11.04887,0,0,1,1.68752,6.01953.88776.88776,0,0,0,.89453.86328h12.6875a.89723.89723,0,0,0,.89453-.92968A19.34969,19.34969,0,0,0,462.96484,156.62891Z" transform="translate(-312.42578 -96.12891)"/>
</svg>
